<svg width="61" height="48" viewBox="0 0 61 48" fill="none" xmlns="http://www.w3.org/2000/svg">
<g clip-path="url(#clip0_23_84)">
<path d="M12.7035 0C9.26653 0 6.72324 3.00824 6.83712 6.27059C6.94653 9.40471 6.80441 13.4642 5.78253 16.7746C4.75759 20.0946 3.02394 22.1976 0.192413 22.4678V25.5162C3.02394 25.7864 4.75759 27.8894 5.78253 31.2096C6.80441 34.52 6.94653 38.5791 6.83712 41.7134C6.72324 44.9753 9.26653 47.984 12.7039 47.984H47.9211C51.3583 47.984 53.9009 44.9758 53.787 41.7134C53.6778 38.5793 53.8197 34.52 54.8416 31.2096C55.8672 27.8896 57.5962 25.7861 60.4277 25.5162V22.4678C57.5962 22.1976 55.8672 20.0946 54.8418 16.7746C53.8197 13.4647 53.6778 9.40494 53.787 6.27059C53.9009 3.00871 51.3583 0 47.9211 0H12.703H12.7035ZM41.0301 29.5372C41.0301 34.0294 37.6795 36.7536 32.119 36.7536H22.6531C22.3824 36.7536 22.1228 36.646 21.9314 36.4545C21.7399 36.2631 21.6324 36.0034 21.6324 35.7327V12.2513C21.6324 12.1172 21.6588 11.9844 21.7101 11.8605C21.7614 11.7366 21.8366 11.6241 21.9314 11.5292C22.0262 11.4344 22.1387 11.3592 22.2626 11.3079C22.3865 11.2565 22.5193 11.2301 22.6534 11.2301H32.0649C36.7014 11.2301 39.7442 13.7419 39.7442 17.5979C39.7442 20.3045 37.6971 22.7275 35.0894 23.1518V23.2932C38.6397 23.6826 41.0301 26.1412 41.0301 29.5372ZM31.0865 14.4666H25.6896V22.0901H30.2355C33.7494 22.0901 35.6872 20.6751 35.6872 18.1456C35.6872 15.7755 34.0206 14.4666 31.0865 14.4666ZM25.6896 25.1151V33.5162H31.2854C34.9437 33.5162 36.8821 32.0482 36.8821 29.2892C36.8821 26.5296 34.8898 25.1146 31.0501 25.1146H25.6896V25.1151Z" fill="#7E13F8"/>
</g>
<defs>
<clipPath id="clip0_23_84">
<rect width="60.24" height="48" fill="white" transform="translate(0.190063)"/>
</clipPath>
</defs>
</svg>
