<svg width="36" height="48" viewBox="0 0 36 48" fill="none" xmlns="http://www.w3.org/2000/svg">
<g clip-path="url(#clip0_23_257)">
<path fill-rule="evenodd" clip-rule="evenodd" d="M14.2628 43.6909H21.396L20.4254 48H15.2206L14.2628 43.6909ZM12.2812 17.3203C12.6527 23.8012 14.3024 31.9 17.1312 41.3C17.6203 41.5449 18.0849 41.5356 18.5275 41.3C21.3554 31.9032 23.0051 23.8064 23.3771 17.3265C24.6012 -6 11.0856 -5.34375 12.2812 17.3203ZM15.2333 0C15.2333 0 6.90639 3.1515 7.50583 15.2729C8.10517 27.3942 16.3874 41.2934 16.3874 41.2934C11.2886 36.7697 3.73661 22.677 3.59111 14.3841C3.5387 7.03125 8.54486 0.865312 15.2333 0ZM1.99427 15.4481C3.21142 27.7562 15.7652 41.7686 14.763 40.8495C11.9675 38.4386 2.5547 27.0874 0.785923 16.4507C-0.982859 5.81409 7.96155 2.13 7.96155 2.13C2.76967 5.65003 1.41161 10.8013 1.99436 15.4482L1.99427 15.4481ZM21.1612 40.7147C21.8442 39.2916 27.749 26.6913 28.3136 15.2729C28.913 3.1515 20.5862 0 20.5862 0C21.3625 0.033 23.0903 0.537 24.7213 1.31438C26.3524 2.09166 32.116 5.63316 32.2283 14.3841C32.1326 19.8319 29.5589 27.5906 26.3588 33.5559C29.6003 28.5847 33.2375 21.7903 33.8646 15.4481C34.4473 10.8013 33.0893 5.65003 27.8974 2.13C27.8974 2.13 36.8417 5.81409 35.073 16.4507C33.304 27.0874 23.8744 38.4499 21.079 40.8607L21.1612 40.7147Z" fill="#57687C"/>
</g>
<defs>
<clipPath id="clip0_23_257">
<rect width="34.79" height="48" fill="white" transform="translate(0.549988)"/>
</clipPath>
</defs>
</svg>
