<svg width="49" height="48" viewBox="0 0 49 48" fill="none" xmlns="http://www.w3.org/2000/svg">
<g clip-path="url(#clip0_23_77)">
<path d="M37.05 0H11.55C5.33685 0 0.300049 5.0368 0.300049 11.25V36.75C0.300049 42.9632 5.33685 48 11.55 48H37.05C43.2633 48 48.3 42.9632 48.3 36.75V11.25C48.3 5.0368 43.2633 0 37.05 0Z" fill="#092E20"/>
<path d="M21.4292 9.5625H26.7945V34.3969C24.0422 34.9194 22.0215 35.1285 19.8269 35.1285C13.2767 35.1283 9.86255 32.1673 9.86255 26.4883C9.86255 21.0184 13.486 17.4651 19.095 17.4651C19.966 17.4651 20.6279 17.5344 21.4292 17.7435V9.5625ZM21.4292 22.0633C20.8022 21.8546 20.2797 21.7849 19.6178 21.7849C16.9004 21.7849 15.3323 23.4572 15.3323 26.3835C15.3323 29.2406 16.8306 30.8083 19.5829 30.8083C20.1749 30.8083 20.6629 30.7734 21.4292 30.6692V22.0633Z" fill="white"/>
<path d="M35.3299 17.8481V30.2854C35.3299 34.5709 35.0164 36.6263 34.0757 38.4032C33.2046 40.1106 32.0549 41.1904 29.6858 42.375L24.7037 40.0058C27.0728 38.8911 28.2225 37.9159 28.954 36.4172C29.7207 34.8844 29.9648 33.1074 29.9648 28.4391V17.8479L35.3299 17.8481ZM29.9648 9.591H35.3299V15.0956H29.9648V9.591Z" fill="white"/>
</g>
<defs>
<clipPath id="clip0_23_77">
<rect width="48" height="48" fill="white" transform="translate(0.300049)"/>
</clipPath>
</defs>
</svg>
