<svg width="49" height="48" viewBox="0 0 49 48" fill="none" xmlns="http://www.w3.org/2000/svg">
<g clip-path="url(#clip0_23_245)">
<path d="M37.3 0H11.8C5.58678 0 0.549988 5.0368 0.549988 11.25V36.75C0.549988 42.9632 5.58678 48 11.8 48H37.3C43.5132 48 48.55 42.9632 48.55 36.75V11.25C48.55 5.0368 43.5132 0 37.3 0Z" fill="#F4F2ED"/>
<mask id="mask0_23_245" style="mask-type:luminance" maskUnits="userSpaceOnUse" x="11" y="5" width="26" height="38">
<path d="M11.9875 5.25H36.9925V42.75H11.9875V5.25Z" fill="white"/>
</mask>
<g mask="url(#mask0_23_245)">
<path d="M18.2401 42.75C21.6901 42.75 24.49 39.9501 24.49 36.5001V30.2499H18.2401C14.7901 30.2499 11.9899 33.0501 11.9899 36.5001C11.9899 39.9501 14.7901 42.75 18.2401 42.75Z" fill="#0ACF83"/>
<path d="M11.9899 24C11.9899 20.55 14.7901 17.7501 18.2401 17.7501H24.49V30.2499H18.2401C14.7901 30.2499 11.9899 27.45 11.9899 24Z" fill="#A259FF"/>
<path d="M11.9899 11.4999C11.9899 8.04994 14.7901 5.25 18.2401 5.25H24.49V17.7501H18.2401C14.7901 17.7501 11.9899 14.9499 11.9899 11.4999Z" fill="#F24E1E"/>
<path d="M24.49 5.25H30.7399C34.1899 5.25 36.9901 8.04994 36.9901 11.4999C36.9901 14.9499 34.1899 17.7501 30.7399 17.7501H24.49V5.25Z" fill="#FF7262"/>
<path d="M36.9901 24C36.9901 27.45 34.1899 30.2499 30.7399 30.2499C27.2899 30.2499 24.49 27.45 24.49 24C24.49 20.55 27.2899 17.7501 30.7399 17.7501C34.1899 17.7501 36.9901 20.55 36.9901 24Z" fill="#1ABCFE"/>
</g>
</g>
<defs>
<clipPath id="clip0_23_245">
<rect width="48" height="48" fill="white" transform="translate(0.549988)"/>
</clipPath>
</defs>
</svg>
