<svg width="49" height="48" viewBox="0 0 49 48" fill="none" xmlns="http://www.w3.org/2000/svg">
<path fill-rule="evenodd" clip-rule="evenodd" d="M24.392 4C13.374 4 4.444 12.93 4.444 23.948C4.444 32.76 10.158 40.238 18.086 42.878C19.084 43.058 19.444 42.444 19.444 41.916C19.444 41.442 19.428 40.186 19.422 38.524C13.872 39.728 12.7 35.848 12.7 35.848C11.796 33.544 10.486 32.93 10.486 32.93C8.676 31.692 10.624 31.72 10.624 31.72C12.628 31.86 13.678 33.776 13.678 33.776C15.458 36.824 18.35 35.944 19.482 35.434C19.664 34.144 20.184 33.264 20.752 32.766C16.324 32.264 11.668 30.552 11.668 22.906C11.668 20.732 12.446 18.948 13.716 17.556C13.514 17.05 12.824 15.02 13.914 12.276C13.914 12.276 15.588 11.738 19.398 14.318C21.0252 13.8753 22.7037 13.6494 24.39 13.646C26.0764 13.6487 27.7549 13.8747 29.382 14.318C33.194 11.736 34.866 12.276 34.866 12.276C35.956 15.02 35.272 17.05 35.064 17.556C36.344 18.948 37.112 20.73 37.112 22.906C37.112 30.572 32.452 32.256 28.008 32.75C28.718 33.366 29.358 34.582 29.358 36.442C29.358 39.11 29.334 41.262 29.334 41.916C29.334 42.45 29.69 43.07 30.708 42.874C38.632 40.23 44.34 32.758 44.34 23.948C44.34 12.93 35.41 4 24.392 4Z" fill="#57687C"/>
</svg>
