<svg width="49" height="48" viewBox="0 0 49 48" fill="none" xmlns="http://www.w3.org/2000/svg">
<g clip-path="url(#clip0_23_261)">
<path d="M47.1231 19.2682L47.0567 19.0987L40.6412 2.35574C40.5107 2.02752 40.2795 1.74908 39.9809 1.56037C39.6821 1.37486 39.3337 1.2855 38.9826 1.30434C38.6314 1.32319 38.2945 1.44933 38.0174 1.66574C37.7433 1.88835 37.5445 2.19005 37.4481 2.52974L33.1165 15.783H15.5759L11.2439 2.52974C11.1499 2.18834 10.9507 1.88523 10.6746 1.66349C10.3975 1.44708 10.0606 1.32094 9.70944 1.30209C9.35831 1.28325 9.00985 1.37261 8.71112 1.55812C8.41324 1.74766 8.18228 2.02584 8.05075 2.35349L1.62325 19.089L1.5595 19.2585C-0.337629 24.2156 1.27337 29.8305 5.51087 33.027L5.533 33.0442L5.59187 33.0859L15.3647 40.4044L20.1996 44.0636L23.1449 46.2874C23.4894 46.5489 23.9101 46.6904 24.3426 46.6904C24.7752 46.6904 25.1958 46.5489 25.5404 46.2874L28.4856 44.0636L33.3205 40.4044L43.1522 33.0416L43.1766 33.0221C47.404 29.8249 49.0124 24.2201 47.1231 19.2682Z" fill="#E24329"/>
<path d="M47.1231 19.2683L47.0567 19.0988C43.9307 19.7404 40.9849 21.0646 38.4299 22.9766L24.34 33.6308C29.1381 37.2608 33.3152 40.4145 33.3152 40.4145L43.147 33.0518L43.1714 33.0323C47.4055 29.8346 49.0161 24.2243 47.1231 19.2683Z" fill="#FC6D26"/>
<path d="M15.3647 40.4141L20.1996 44.0734L23.1449 46.2971C23.4894 46.5586 23.9101 46.7002 24.3426 46.7002C24.7752 46.7002 25.1958 46.5586 25.5404 46.2971L28.4856 44.0734L33.3205 40.4141C33.3205 40.4141 29.1385 37.2506 24.3404 33.6304C21.3467 35.8892 18.3548 38.1504 15.3647 40.4141Z" fill="#FCA326"/>
<path d="M10.2475 22.9766C7.69449 21.0608 4.74944 19.7332 1.62325 19.089L1.5595 19.2585C-0.337629 24.2156 1.27337 29.8305 5.51087 33.027L5.533 33.0442L5.59187 33.0859L15.3647 40.4044L24.34 33.6206L10.2475 22.9766Z" fill="#FC6D26"/>
</g>
<defs>
<clipPath id="clip0_23_261">
<rect width="48" height="48" fill="white" transform="translate(0.339996)"/>
</clipPath>
</defs>
</svg>
