<svg width="48" height="48" viewBox="0 0 48 48" fill="none" xmlns="http://www.w3.org/2000/svg">
<path d="M30.225 15.1125H30.375L30.3 15.0375L35.55 9.7875V9.675C31.125 5.775 25.0125 4.425 19.35 6.1125C13.6875 7.8 9.3375 12.3 7.7625 18C7.8375 17.9625 7.95 17.925 8.0625 17.925C10.0125 16.65 12.3375 15.9 14.775 15.9C15.6 15.9 16.3875 15.975 17.175 16.125C17.2125 16.0875 17.25 16.0875 17.2875 16.0875C20.6625 12.375 26.3625 11.925 30.2625 15.1125H30.225Z" fill="#EA4535"/>
<path d="M40.5375 17.925C39.675 14.7375 37.875 11.85 35.3625 9.63751L30 14.9625C32.25 16.8 33.5625 19.575 33.4875 22.4625V23.4C39.825 23.4 39.825 32.85 33.4875 32.85H23.9625V40.35H23.925L23.9625 40.425H33.4875C38.9625 40.4625 43.8 36.9375 45.4125 31.7625C47.025 26.5875 45.0375 20.9625 40.5375 17.925Z" fill="#557EBF"/>
<path d="M14.625 40.4625H24.4875V32.8875H14.625C13.9125 32.8875 13.2375 32.7375 12.6 32.475L6.9 37.95V38.025C9.15 39.6375 11.85 40.5 14.6625 40.5L14.625 40.4625Z" fill="#36A852"/>
<path d="M15.075 15.7125C9.4875 15.75 4.5375 19.2 2.7375 24.2625C0.9375 29.3625 2.7375 34.95 7.1625 38.25L13.0125 32.6625C9.7875 31.275 9.0375 27.225 11.5125 24.8625C13.9875 22.4625 18.1875 23.2125 19.65 26.2875L25.5 20.7C23.025 17.5875 19.1625 15.75 15.075 15.7875V15.7125Z" fill="#F9BC15"/>
</svg>
