<svg width="40" height="48" viewBox="0 0 40 48" fill="none" xmlns="http://www.w3.org/2000/svg">
<g clip-path="url(#clip0_23_82)">
<path d="M12.7325 47.8644C9.66064 46.5071 7.5734 43.5834 7.29952 40.2348C7.3883 38.5374 7.87748 36.8851 8.72706 35.4129C9.57665 33.9408 10.7625 32.6906 12.1878 31.7645C11.7135 32.921 11.8287 34.2377 12.487 35.2956C12.853 35.8077 13.3601 36.2022 13.9465 36.431C14.5329 36.6597 15.1732 36.7128 15.7893 36.5837C17.5878 36.0781 18.6412 34.2108 18.1355 32.4108C17.9557 31.7793 17.5984 31.2127 17.1061 30.7783C16.1053 29.9641 15.3316 28.9054 14.8598 27.7047C14.388 26.5039 14.234 25.2017 14.4128 23.924C14.7631 22.5426 15.5256 21.3005 16.5989 20.3629C15.7908 22.5176 18.0698 24.6437 19.5989 25.6897C22.3128 27.3182 24.9269 29.1074 27.4273 31.0478C30.161 33.2025 31.6513 36.5751 31.418 40.0255C30.803 43.6973 28.2053 46.7288 24.6652 47.8659C31.7472 46.2904 39.0489 40.6644 39.1881 32.6848C39.0489 26.3002 35.238 20.5709 29.4129 17.9614H29.1541C29.2837 18.2745 29.3449 18.6117 29.3336 18.9504C29.3531 18.7314 29.3531 18.5111 29.3336 18.2921C29.3651 18.5505 29.3651 18.8117 29.3336 19.0701C28.8907 20.8852 27.0593 22.0028 25.2398 21.5599C24.5127 21.3804 23.8633 20.9721 23.3964 20.3824C21.0622 17.39 23.3964 13.9844 23.7869 10.6925C23.9054 8.62558 23.5006 6.56221 22.6101 4.69324C21.7197 2.82427 20.3722 1.21008 18.6924 0C20.3996 2.84597 18.1252 6.58359 16.4718 8.70987C14.8155 10.836 12.4214 12.4206 10.4703 14.2759C8.36798 16.2316 6.44084 18.3817 4.71117 20.6799C0.971878 25.2482 -0.49592 31.2737 0.720486 37.0492C2.38894 42.6153 7.01532 46.7974 12.7206 47.8823H12.7521L12.7325 47.8644Z" fill="#DD4814"/>
</g>
<defs>
<clipPath id="clip0_23_82">
<rect width="38.89" height="48" fill="white" transform="translate(0.300049)"/>
</clipPath>
</defs>
</svg>
