<svg width="50" height="48" viewBox="0 0 50 48" fill="none" xmlns="http://www.w3.org/2000/svg">
<g clip-path="url(#clip0_23_307)">
<path d="M15.8239 47.2162C14.6777 47.2162 13.5953 46.7069 12.863 45.7835L1.71982 31.9339C0.987485 31.0105 0.701027 29.8327 0.987485 28.6863L4.96724 11.3982C5.22189 10.252 5.98604 9.3286 7.03683 8.8193L23.1469 1.11424C23.6564 0.859783 24.2295 0.732361 24.8026 0.732361C25.3757 0.732361 25.9486 0.85959 26.4581 1.11443L42.5684 8.78749C43.619 9.29679 44.3831 10.2202 44.6378 11.3664L48.6176 28.6545C48.8724 29.8007 48.6176 30.9787 47.8854 31.9021L36.7419 45.7517C36.0096 46.6431 34.9271 47.1844 33.7809 47.1844L15.8243 47.2162H15.8239Z" fill="#326DE6"/>
<path d="M24.7704 1.52828C25.2163 1.52828 25.662 1.6237 26.0759 1.81474L42.1861 9.4878C43.0139 9.90168 43.6506 10.6658 43.8417 11.5574L47.8214 28.8455C48.0443 29.7689 47.8214 30.724 47.2165 31.4562L36.0732 45.306C35.5001 46.0382 34.6085 46.452 33.6853 46.452H15.8239C14.9005 46.452 14.0092 46.0382 13.4361 45.306L2.29274 31.4562C1.71963 30.724 1.49659 29.7689 1.68782 28.8455L5.66758 11.5574C5.89042 10.634 6.49534 9.86987 7.3231 9.4878L23.4336 1.78312C23.8474 1.6239 24.3249 1.52847 24.7706 1.52847L24.7704 1.52828ZM24.7704 0.0317993C24.1019 0.0317993 23.4334 0.191028 22.7964 0.477486L6.68638 8.18255C5.41274 8.78746 4.52136 9.90168 4.20291 11.2707L0.223147 28.559C-0.095118 29.9281 0.223147 31.329 1.11471 32.4434L12.258 46.293C13.1178 47.3754 14.423 47.9803 15.7921 47.9803H33.6533C35.0224 47.9803 36.3278 47.3754 37.1874 46.293L48.3309 32.4432C49.2223 31.3608 49.5407 29.9281 49.2223 28.5588L45.2425 11.2707C44.9243 9.90168 44.0327 8.78746 42.7592 8.18255L26.7126 0.477293C26.1077 0.191028 25.4391 0.0317993 24.7704 0.0317993Z" fill="white"/>
<path d="M40.9125 27.4764C40.8807 27.4764 40.8807 27.4764 40.9125 27.4764H40.8807C40.8489 27.4764 40.8171 27.4764 40.8171 27.4446C40.7535 27.4446 40.6898 27.4128 40.626 27.4128C40.4032 27.381 40.2122 27.3492 40.0211 27.3492C39.9255 27.3492 39.8301 27.3492 39.7027 27.3172H39.6709C39.0023 27.2536 38.461 27.19 37.9515 27.0307C37.7287 26.9351 37.6651 26.8079 37.6013 26.6805C37.6013 26.6487 37.5695 26.6487 37.5695 26.6169L37.1556 26.4896C37.3511 24.9919 37.2756 23.4712 36.9327 22.0002C36.5851 20.5169 35.9818 19.1056 35.1498 17.8294L35.4683 17.5429V17.4793C35.4683 17.3201 35.5001 17.1609 35.6273 17.0016C36.0094 16.6514 36.487 16.3649 37.0602 16.0146C37.1556 15.951 37.251 15.9192 37.3466 15.8554C37.5376 15.76 37.6969 15.6646 37.8879 15.5371C37.9197 15.5053 37.9833 15.4735 38.0471 15.4099C38.0789 15.3779 38.1108 15.3779 38.1108 15.3461C38.5564 14.964 38.6521 14.3273 38.3336 13.9132C38.1744 13.6904 37.8879 13.5632 37.6013 13.5632C37.3468 13.5632 37.1238 13.6586 36.9009 13.8178L36.8373 13.8814C36.7737 13.9132 36.7417 13.9771 36.6781 14.0089C36.5189 14.1681 36.3914 14.2953 36.2642 14.4545C36.2006 14.5182 36.137 14.6138 36.0414 14.6774C35.5955 15.1551 35.1816 15.5371 34.7677 15.8236C34.6723 15.8872 34.5769 15.9192 34.4813 15.9192C34.4176 15.9192 34.3538 15.9192 34.2902 15.8872H34.2266L33.8443 16.1421C33.4305 15.6964 32.9848 15.3143 32.5391 14.9322C30.6199 13.4321 28.3103 12.5148 25.8848 12.2895L25.853 11.8757L25.7894 11.812C25.6938 11.7164 25.5666 11.621 25.5346 11.3982C25.5028 10.8887 25.5666 10.3156 25.6302 9.67884V9.64703C25.6302 9.55142 25.662 9.42419 25.6938 9.32857C25.7256 9.13773 25.7574 8.9465 25.7894 8.72366V8.4372C25.7894 7.86409 25.3435 7.3866 24.8024 7.3866C24.5476 7.3866 24.2929 7.51383 24.1019 7.70486C23.911 7.8959 23.8154 8.15055 23.8154 8.4372V8.69185C23.8154 8.91469 23.8472 9.10573 23.9109 9.29677C23.9427 9.39238 23.9427 9.4878 23.9745 9.61522V9.64703C24.0381 10.2838 24.1337 10.8569 24.0701 11.3664C24.0383 11.5892 23.9109 11.6846 23.8154 11.7802L23.7518 11.8438L23.7198 12.2577C23.1467 12.3213 22.5736 12.385 22.0005 12.5124C19.549 13.0537 17.384 14.2955 15.6967 16.0783L15.3782 15.8554H15.3146C15.251 15.8554 15.1872 15.8872 15.1236 15.8872C15.028 15.8872 14.9325 15.8554 14.8369 15.7918C14.423 15.5053 14.0092 15.0913 13.5635 14.6138C13.4999 14.5502 13.4363 14.4545 13.3406 14.3909C13.2132 14.2317 13.0858 14.1043 12.9266 13.9452C12.8948 13.9132 12.8311 13.8816 12.7675 13.8178C12.7357 13.786 12.7039 13.786 12.7039 13.7542C12.5067 13.5912 12.2592 13.5012 12.0034 13.4994C11.7167 13.4994 11.4303 13.6268 11.271 13.8496C10.9526 14.2635 11.0482 14.9002 11.4939 15.2823C11.5257 15.2823 11.5257 15.3143 11.5575 15.3143C11.6211 15.3461 11.6531 15.4097 11.7167 15.4415C11.9078 15.5688 12.067 15.6644 12.258 15.76C12.3536 15.7918 12.4491 15.8554 12.5447 15.9192C13.1176 16.2693 13.5953 16.5559 13.9774 16.9062C14.1366 17.0652 14.1366 17.2245 14.1366 17.3837V17.4473L14.4549 17.734C14.3912 17.8294 14.3276 17.8932 14.2956 17.9886C12.7037 20.5039 12.0988 23.4649 12.5127 26.394L12.0988 26.5212C12.0988 26.5532 12.067 26.5532 12.067 26.5849C12.0034 26.7123 11.9078 26.8397 11.7167 26.9351C11.2392 27.0944 10.6661 27.1582 9.9976 27.2218H9.9656C9.87018 27.2218 9.74276 27.2218 9.64734 27.2536C9.4563 27.2536 9.26526 27.2854 9.04242 27.3172C8.97881 27.3172 8.91519 27.3492 8.85138 27.3492C8.81958 27.3492 8.78777 27.3492 8.75577 27.381C8.18266 27.5082 7.8324 28.0495 7.92801 28.5588C8.02362 29.0047 8.4375 29.2914 8.94681 29.2914C9.04242 29.2914 9.10603 29.2914 9.20165 29.2594C9.23346 29.2594 9.26526 29.2594 9.26526 29.2276C9.32888 29.2276 9.39249 29.1958 9.45611 29.1958C9.67914 29.1321 9.83837 29.0685 10.0294 28.9729C10.1248 28.9411 10.2203 28.8773 10.3159 28.8457H10.3477C10.9526 28.6226 11.4939 28.4316 12.0034 28.368H12.067C12.258 28.368 12.3855 28.4634 12.4809 28.5272C12.5127 28.5272 12.5127 28.559 12.5445 28.559L12.9904 28.4954C13.7545 30.8513 15.219 32.9527 17.1612 34.481C17.6069 34.831 18.0525 35.1177 18.5302 35.4043L18.3392 35.818C18.3392 35.85 18.371 35.85 18.371 35.8816C18.4346 36.009 18.4982 36.1683 18.4346 36.3911C18.2438 36.8688 17.9571 37.3463 17.6069 37.8876V37.9194C17.5432 38.015 17.4796 38.0786 17.416 38.1741C17.2886 38.3333 17.193 38.4925 17.0656 38.6836C17.0337 38.7154 17.0019 38.779 16.9701 38.8428C16.9701 38.8746 16.9383 38.9064 16.9383 38.9064C16.6837 39.4477 16.8747 40.0526 17.3522 40.2755C17.4794 40.3391 17.6069 40.3711 17.7343 40.3711C18.1163 40.3711 18.4984 40.1162 18.6895 39.766C18.6895 39.7342 18.7213 39.7024 18.7213 39.7024C18.7531 39.6387 18.7849 39.5751 18.8167 39.5431C18.9123 39.3203 18.9441 39.161 19.0077 38.97L19.1033 38.6836C19.3262 38.0468 19.4854 37.5373 19.7719 37.0917C19.8991 36.9006 20.0585 36.8688 20.1857 36.805C20.2176 36.805 20.2176 36.805 20.2494 36.7732L20.4724 36.3593C21.8733 36.9006 23.4016 37.1871 24.9296 37.1871C25.853 37.1871 26.8082 37.0917 27.6998 36.8688C28.2608 36.7434 28.8137 36.5838 29.3553 36.3911L29.5461 36.7414C29.5781 36.7414 29.5781 36.7414 29.6099 36.7732C29.7692 36.805 29.8964 36.8688 30.0238 37.0598C30.2785 37.5055 30.4695 38.0468 30.6923 38.6517V38.6836L30.788 38.97C30.8516 39.161 30.8834 39.3521 30.9788 39.5431C31.0108 39.6067 31.0426 39.6387 31.0744 39.7024C31.0744 39.7342 31.1064 39.766 31.1064 39.766C31.2973 40.148 31.6793 40.3711 32.0614 40.3711C32.1888 40.3711 32.3162 40.3391 32.4435 40.2755C32.6663 40.1482 32.8574 39.957 32.9212 39.7024C32.9848 39.4477 32.9848 39.1611 32.8576 38.9064C32.8576 38.8746 32.8256 38.8746 32.8256 38.8428C32.7937 38.7792 32.7619 38.7156 32.7301 38.6836C32.6345 38.4925 32.5073 38.3333 32.3799 38.1741C32.3162 38.0786 32.2526 38.015 32.189 37.9196V37.8876C31.8386 37.3463 31.5201 36.8688 31.3611 36.3911C31.2975 36.1683 31.3611 36.0411 31.3929 35.8818C31.3929 35.85 31.4247 35.85 31.4247 35.8182L31.2655 35.4361C32.953 34.4491 34.3856 33.0481 35.4683 31.329C36.0414 30.4374 36.487 29.4504 36.8053 28.4634L37.1874 28.527C37.2194 28.527 37.2194 28.4952 37.251 28.4952C37.3784 28.4316 37.474 28.3362 37.6651 28.3362H37.7287C38.2382 28.3998 38.7793 28.5906 39.3844 28.8137H39.4162C39.5116 28.8455 39.607 28.9091 39.7027 28.9409C39.8937 29.0365 40.0529 29.1001 40.2758 29.1639C40.3394 29.1639 40.403 29.1958 40.4668 29.1958C40.4986 29.1958 40.5304 29.1957 40.5622 29.2276C40.6578 29.2594 40.7215 29.2594 40.8171 29.2594C41.2946 29.2594 41.7084 28.9411 41.8359 28.5272C41.8359 28.1451 41.4856 27.6357 40.9125 27.4766V27.4764ZM26.1713 25.9163L24.7704 26.5851L23.3696 25.9163L23.0195 24.42L23.9745 23.2102H25.5346L26.4897 24.42L26.1715 25.9163H26.1713ZM34.4813 22.6053C34.7282 23.6581 34.8035 24.7439 34.7041 25.8207L29.8328 24.42C29.3871 24.2928 29.1324 23.8469 29.2279 23.4012C29.2597 23.2738 29.3235 23.1464 29.4189 23.051L33.2714 19.5805C33.8125 20.4721 34.2264 21.4911 34.4813 22.6053ZM31.7431 17.6704L27.5723 20.6313C27.2221 20.8542 26.7444 20.7904 26.4579 20.4403C26.3625 20.3447 26.3307 20.2172 26.2987 20.09L26.0123 14.9002C28.1806 15.1499 30.2005 16.1263 31.7431 17.6704ZM22.51 15.0593C22.8603 14.9957 23.1785 14.932 23.5288 14.8684L23.2423 19.9624C23.2105 20.4081 22.8603 20.7902 22.3826 20.7902C22.2553 20.7902 22.0961 20.7584 22.0005 20.6947L17.7661 17.6704C19.0715 16.3649 20.6952 15.4732 22.51 15.0593ZM16.2378 19.5803L20.0265 22.9552C20.3768 23.2418 20.4086 23.7829 20.1221 24.1332C20.0265 24.2604 19.8993 24.356 19.7401 24.388L14.8051 25.8207C14.6141 23.6557 15.0916 21.4589 16.2378 19.5803ZM15.378 28.2086L20.4406 27.3488C20.8545 27.317 21.2365 27.6037 21.332 28.0175C21.3638 28.2084 21.3638 28.3678 21.3002 28.527L19.358 33.2071C17.575 32.0609 16.1422 30.3098 15.378 28.2086ZM26.9992 34.5444C26.2669 34.7036 25.5346 34.799 24.7704 34.799C23.6562 34.799 22.5736 34.6082 21.555 34.2897L24.0701 29.7369C24.3247 29.4502 24.7386 29.323 25.0889 29.514C25.2375 29.6051 25.3673 29.7239 25.4709 29.8641L27.9224 34.2897C27.636 34.3851 27.3175 34.449 26.999 34.5444H26.9992ZM33.2076 30.1189C32.4117 31.3924 31.3609 32.4112 30.1512 33.2071L28.1455 28.3994C28.0498 28.0175 28.2091 27.6037 28.5911 27.4124C28.7184 27.3488 28.8776 27.317 29.0368 27.317L34.131 28.1768C33.94 28.8771 33.6215 29.514 33.2076 30.1189Z" fill="white"/>
</g>
<defs>
<clipPath id="clip0_23_307">
<rect width="49.35" height="48" fill="white"/>
</clipPath>
</defs>
</svg>
