<svg width="48" height="48" viewBox="0 0 48 48" fill="none" xmlns="http://www.w3.org/2000/svg">
<path d="M10.926 6.95203C13.38 10.45 14.994 14.798 15.36 19.596C15.6437 23.154 15.186 26.732 14.016 30.104C14.7521 29.2254 15.6568 28.5032 16.6767 27.98C17.6966 27.4569 18.811 27.1434 19.954 27.058C20.054 27.05 20.152 27.046 20.25 27.042C20.41 26.06 21.19 20.142 18.296 13.682C16.16 8.91003 12.296 7.36203 10.926 6.95203ZM14.48 7.02603C14.48 7.02603 19.292 9.15803 21.132 18.12C22.346 24.03 21.23 27.792 20.328 29.666C22.7834 27.3389 25.9665 25.9303 29.34 25.678C31.06 25.548 32.73 25.718 34.304 26.144C34.104 24.662 33.118 19.316 28.84 14.304C22.314 6.65803 14.48 7.02603 14.48 7.02603ZM44.114 26.428L8.274 32.526C9.20247 32.8474 10.0026 33.4595 10.5556 34.2716C11.1087 35.0836 11.3851 36.0524 11.344 37.034C11.3284 37.4484 11.2571 37.8587 11.132 38.254C11.242 38.2 16.51 35.704 23.816 34.186C30.292 32.84 35.262 33.466 36.386 33.64C37.0929 31.961 38.1468 30.4505 39.4787 29.2075C40.8106 27.9646 42.3902 27.0174 44.114 26.428ZM31.688 34.584C27.052 34.584 22.406 35.574 18.46 36.916C12.724 38.868 12.558 39.612 7.36 39.002C3.688 38.572 0 36.772 0 36.772C0 36.772 4.812 40.712 9.828 41.026C13.8 41.276 16.838 39.382 20.458 38.198C25.78 36.456 29.48 36.258 32.964 36.248C38.722 36.232 48 38.706 48 38.706C48 38.706 43.78 36.618 37.934 35.266C35.8844 34.8038 33.789 34.5737 31.688 34.584Z" fill="#57687C"/>
</svg>
