<svg width="48" height="48" viewBox="0 0 48 48" fill="none" xmlns="http://www.w3.org/2000/svg">
<g clip-path="url(#clip0_22_16)">
<path d="M23.7968 0.0135498C11.6463 0.0135498 12.405 5.30579 12.405 5.30579L12.4185 10.7887H24.0135V12.4348H7.81312C7.81312 12.4348 0.0380096 11.5492 0.0380096 23.8626C0.0380096 36.1764 6.82432 35.7397 6.82432 35.7397H10.8744V30.0256C10.8744 30.0256 10.656 23.2096 17.5524 23.2096H29.0525C29.0525 23.2096 35.5137 23.3144 35.5137 16.9378V6.39435C35.5137 6.39435 36.495 0.0135498 23.7968 0.0135498ZM17.4034 3.7007C17.6774 3.70046 17.9487 3.75448 18.2019 3.85968C18.4551 3.96487 18.6851 4.11919 18.8789 4.31378C19.0726 4.50837 19.2263 4.73943 19.331 4.99372C19.4357 5.24802 19.4895 5.52057 19.4893 5.79576C19.4895 6.07096 19.4357 6.3435 19.331 6.5978C19.2263 6.8521 19.0726 7.08315 18.8789 7.27774C18.6851 7.47234 18.4551 7.62665 18.2019 7.73185C17.9487 7.83705 17.6774 7.89107 17.4034 7.89082C17.1294 7.89107 16.858 7.83705 16.6048 7.73185C16.3516 7.62665 16.1216 7.47234 15.9278 7.27774C15.7341 7.08315 15.5804 6.8521 15.4757 6.5978C15.371 6.3435 15.3172 6.07096 15.3174 5.79576C15.3172 5.52057 15.371 5.24802 15.4757 4.99372C15.5804 4.73943 15.7341 4.50837 15.9278 4.31378C16.1216 4.11919 16.3516 3.96487 16.6048 3.85968C16.858 3.75448 17.1294 3.70046 17.4034 3.7007Z" fill="url(#paint0_linear_22_16)"/>
<path d="M24.1419 47.8355C36.2924 47.8355 35.5337 42.5432 35.5337 42.5432L35.5202 37.0605H23.925V35.4144H40.1254C40.1254 35.4144 47.9005 36.3 47.9005 23.9862C47.9005 11.6726 41.1142 12.1093 41.1142 12.1093H37.0642V17.8232C37.0642 17.8232 37.2825 24.6392 30.3862 24.6392H18.886C18.886 24.6392 12.4248 24.5344 12.4248 30.9112V41.4548C12.4248 41.4548 11.4437 47.8355 24.1417 47.8355H24.1419ZM30.5354 44.1487C30.2614 44.1489 29.99 44.0949 29.7368 43.9897C29.4836 43.8845 29.2536 43.7302 29.0598 43.5356C28.8661 43.341 28.7124 43.11 28.6077 42.8557C28.503 42.6014 28.4492 42.3288 28.4494 42.0536C28.4492 41.7784 28.5029 41.5058 28.6077 41.2515C28.7124 40.9972 28.866 40.7661 29.0598 40.5715C29.2535 40.3769 29.4836 40.2226 29.7368 40.1174C29.99 40.0122 30.2613 39.9581 30.5354 39.9584C30.8094 39.9581 31.0807 40.0121 31.3339 40.1173C31.5871 40.2225 31.8171 40.3769 32.0109 40.5714C32.2046 40.766 32.3583 40.9971 32.463 41.2514C32.5678 41.5057 32.6215 41.7782 32.6213 42.0534C32.6215 42.3286 32.5678 42.6012 32.463 42.8555C32.3583 43.1098 32.2046 43.3408 32.0109 43.5354C31.8171 43.73 31.5871 43.8843 31.3339 43.9895C31.0807 44.0947 30.8094 44.1489 30.5354 44.1487Z" fill="url(#paint1_linear_22_16)"/>
</g>
<defs>
<linearGradient id="paint0_linear_22_16" x1="459.995" y1="430.143" x2="2842.17" y2="2778.28" gradientUnits="userSpaceOnUse">
<stop stop-color="#387EB8"/>
<stop offset="1" stop-color="#366994"/>
</linearGradient>
<linearGradient id="paint1_linear_22_16" x1="691.322" y1="747.355" x2="3248.98" y2="3154.66" gradientUnits="userSpaceOnUse">
<stop stop-color="#FFE052"/>
<stop offset="1" stop-color="#FFC331"/>
</linearGradient>
<clipPath id="clip0_22_16">
<rect width="48" height="48" fill="white"/>
</clipPath>
</defs>
</svg>
