<svg width="49" height="48" viewBox="0 0 49 48" fill="none" xmlns="http://www.w3.org/2000/svg">
<g clip-path="url(#clip0_23_42)">
<path d="M36.78 0H11.28C5.06683 0 0.0300293 5.0368 0.0300293 11.25V36.75C0.0300293 42.9632 5.06683 48 11.28 48H36.78C42.9932 48 48.03 42.9632 48.03 36.75V11.25C48.03 5.0368 42.9932 0 36.78 0Z" fill="#242938"/>
<path d="M24.0302 27.5533C25.9622 27.5533 27.5282 25.9871 27.5282 24.0553C27.5282 22.1235 25.9622 20.5573 24.0302 20.5573C22.0984 20.5573 20.5322 22.1235 20.5322 24.0553C20.5322 25.9871 22.0984 27.5533 24.0302 27.5533Z" fill="#00D8FF"/>
<path d="M24.0304 16.9431C28.7269 16.9431 33.0898 17.6169 36.3795 18.7496C40.3431 20.1141 42.78 22.1824 42.78 24.0553C42.78 26.007 40.1974 28.2043 35.941 29.6145C32.7231 30.6806 28.4886 31.2371 24.0304 31.2371C19.4595 31.2371 15.1311 30.7147 11.8768 29.6027C7.75972 28.1955 5.28003 25.9699 5.28003 24.0553C5.28003 22.1976 7.6069 20.1452 11.5148 18.7828C14.8167 17.6316 19.2872 16.9431 24.0297 16.9431H24.0304Z" stroke="#00D8FF" stroke-width="1.67081"/>
<path d="M17.839 20.5196C20.1853 16.4512 22.9485 13.0084 25.5731 10.7246C28.7351 7.97269 31.7445 6.89494 33.3668 7.83037C35.0575 8.80537 35.6708 12.1406 34.7661 16.5322C34.0827 19.8523 32.4488 23.7984 30.2215 27.6606C27.9379 31.6202 25.3232 35.1088 22.7344 37.3716C19.4586 40.2351 16.2915 41.2714 14.6331 40.3149C13.0238 39.3876 12.4084 36.3461 13.1805 32.2802C13.8328 28.8446 15.4699 24.6279 17.8382 20.5196H17.839Z" stroke="#00D8FF" stroke-width="1.67081"/>
<path d="M17.8448 27.6709C15.4918 23.607 13.8898 19.4929 13.2212 16.0785C12.4163 11.9645 12.9853 8.81924 14.6063 7.88099C16.2955 6.90299 19.491 8.03736 22.8439 11.0145C25.3789 13.2652 27.982 16.6509 30.2157 20.5093C32.5058 24.4652 34.2222 28.473 34.8898 31.8457C35.7347 36.114 35.0509 39.3752 33.394 40.3342C31.7863 41.265 28.8443 40.2797 25.7072 37.58C23.0567 35.2993 20.221 31.7752 17.8448 27.6709Z" stroke="#00D8FF" stroke-width="1.67081"/>
</g>
<defs>
<clipPath id="clip0_23_42">
<rect width="48" height="48" fill="white" transform="translate(0.0300293)"/>
</clipPath>
</defs>
</svg>
