<svg width="57" height="48" viewBox="0 0 57 48" fill="none" xmlns="http://www.w3.org/2000/svg">
<g clip-path="url(#clip0_23_311)">
<path d="M54.0189 36.8603C51.0381 38.414 35.5969 44.7628 32.3096 46.4767C29.0222 48.1907 27.1961 48.1741 24.599 46.9327C22.0022 45.6912 5.57009 39.0537 2.61002 37.6388C1.13074 36.9319 0.352707 36.3349 0.352707 35.7711V30.1255C0.352707 30.1255 21.7454 25.4684 25.199 24.2293C28.6524 22.9903 29.8507 22.9455 32.7896 24.022C35.7289 25.099 53.3026 28.2696 56.2073 29.3335L56.2059 34.8993C56.2064 35.4574 55.5361 36.0696 54.0189 36.8603Z" fill="#912626"/>
<path d="M54.0178 31.248C51.0372 32.801 35.5965 39.1501 32.3091 40.8637C29.022 42.578 27.1958 42.5612 24.599 41.3197C22.002 40.0791 5.57052 33.4405 2.61067 32.0265C-0.349187 30.6116 -0.411151 29.6378 2.49634 28.4993C5.40383 27.3604 21.7452 20.9492 25.1992 19.7101C28.6526 18.4715 29.8507 18.4263 32.7896 19.5033C35.7287 20.5798 51.0774 26.6891 53.9816 27.7527C56.8869 28.8177 56.9984 29.6945 54.0178 31.248Z" fill="#C6302B"/>
<path d="M54.0189 27.7252C51.0381 29.2791 35.5969 35.6278 32.3096 37.3422C29.0222 39.0556 27.1961 39.039 24.599 37.7976C22.002 36.5568 5.57009 29.9186 2.61002 28.5037C1.13074 27.7968 0.352707 27.2007 0.352707 26.6367V20.9904C0.352707 20.9904 21.7454 16.3335 25.199 15.0944C28.6524 13.8554 29.8507 13.8104 32.7896 14.8872C35.7291 15.9639 53.3028 19.1339 56.2073 20.1979L56.2059 25.7644C56.2064 26.3223 55.5361 26.9345 54.0189 27.7252Z" fill="#912626"/>
<path d="M54.0178 22.1129C51.0372 23.6664 35.5965 30.015 32.3091 31.7293C29.022 33.4429 27.1958 33.4261 24.599 32.1846C22.002 30.9441 5.57052 24.3057 2.61067 22.8914C-0.349187 21.4769 -0.411151 20.503 2.49634 19.3641C5.40383 18.2258 21.7454 11.8141 25.1992 10.5753C28.6526 9.33643 29.8507 9.29148 32.7896 10.3682C35.7287 11.4447 51.0774 17.5536 53.9816 18.6177C56.8869 19.6824 56.9984 20.5595 54.0178 22.1129Z" fill="#C6302B"/>
<path d="M54.0189 18.2516C51.0381 19.805 35.5969 26.1541 32.3096 27.8686C29.0222 29.5822 27.1961 29.5654 24.599 28.3239C22.002 27.0831 5.57009 20.4447 2.61002 19.0305C1.13074 18.3229 0.352707 17.7266 0.352707 17.1633V11.5167C0.352707 11.5167 21.7454 6.86007 25.199 5.62123C28.6524 4.38196 29.8507 4.33745 32.7896 5.41396C35.7291 6.49068 53.3028 9.66065 56.2073 10.7247L56.2059 16.291C56.2064 16.8484 55.5361 17.4606 54.0189 18.2516Z" fill="#912626"/>
<path d="M54.0178 12.6393C51.0372 14.1927 35.5965 20.5418 32.3091 22.2554C29.022 23.969 27.1958 23.9522 24.599 22.7114C22.0022 21.47 5.57052 14.832 2.61088 13.4175C-0.349189 12.0033 -0.410935 11.0291 2.49634 9.89042C5.40383 8.75195 21.7454 2.34111 25.1992 1.10184C28.6526 -0.137218 29.8507 -0.181727 32.7896 0.895C35.7287 1.97173 51.0774 8.0806 53.9816 9.14467C56.8869 10.2085 56.9984 11.0858 54.0178 12.6393Z" fill="#C6302B"/>
<path d="M35.1054 7.147L30.3032 7.64555L29.2282 10.2323L27.4919 7.34576L21.9468 6.84744L26.0844 5.35529L24.843 3.06482L28.7168 4.57987L32.3687 3.38424L31.3817 5.7526L35.1054 7.147ZM28.9415 19.6964L19.9793 15.9792L32.8214 14.0079L28.9415 19.6964ZM16.5161 8.58482C20.307 8.58482 23.3801 9.77609 23.3801 11.2453C23.3801 12.715 20.307 13.9061 16.5161 13.9061C12.7251 13.9061 9.65205 12.7148 9.65205 11.2453C9.65205 9.77609 12.7251 8.58482 16.5161 8.58482Z" fill="white"/>
<path d="M40.7807 7.8541L48.3813 10.8576L40.7872 13.8582L40.7807 7.8541Z" fill="#621B1C"/>
<path d="M32.372 11.1803L40.7807 7.85413L40.7872 13.8583L39.9627 14.1807L32.372 11.1803Z" fill="#9A2928"/>
</g>
<defs>
<clipPath id="clip0_23_311">
<rect width="55.86" height="48" fill="white" transform="translate(0.349976)"/>
</clipPath>
</defs>
</svg>
