<svg width="49" height="48" viewBox="0 0 49 48" fill="none" xmlns="http://www.w3.org/2000/svg">
<g clip-path="url(#clip0_23_332)">
<path d="M36.96 0H11.46C5.24676 0 0.209961 5.0368 0.209961 11.25V36.75C0.209961 42.9632 5.24676 48 11.46 48H36.96C43.1732 48 48.21 42.9632 48.21 36.75V11.25C48.21 5.0368 43.1732 0 36.96 0Z" fill="#764ABC"/>
<path d="M31.4435 31.0498C32.8274 30.9066 33.8773 29.7135 33.8294 28.282C33.7818 26.8504 32.5888 25.7051 31.1572 25.7051H31.0618C29.5824 25.7528 28.4371 26.9935 28.4848 28.4728C28.5326 29.1887 28.8189 29.809 29.2483 30.2385C27.6258 33.4358 25.1444 35.7741 21.4222 37.7306C18.893 39.0668 16.2684 39.544 13.6438 39.21C11.4963 38.9237 9.82626 37.9691 8.77626 36.3945C7.24926 34.0562 7.1062 31.527 8.39451 28.9978C9.30126 27.1843 10.7328 25.8482 11.6396 25.1801C11.4487 24.5599 11.1624 23.5099 11.0191 22.7464C4.09982 27.7571 4.81551 34.5334 6.91513 37.7306C8.49013 40.1166 11.6872 41.596 15.2186 41.596C16.1729 41.596 17.1273 41.5005 18.0817 41.2618C24.1901 40.069 28.8189 36.4421 31.4435 31.0498Z" fill="white"/>
<path d="M39.8422 25.1325C36.2156 20.8852 30.8709 18.5471 24.7627 18.5471H23.9992C23.5697 17.688 22.6629 17.1154 21.6609 17.1154H21.5655C20.0861 17.1632 18.9408 18.4039 18.9885 19.8832C19.0363 21.3148 20.2292 22.46 21.6609 22.46H21.7563C22.8062 22.4124 23.7129 21.7444 24.0947 20.8376H24.9536C28.5802 20.8376 32.0161 21.8874 35.118 23.9394C37.5039 25.5142 39.222 27.5662 40.1763 30.0476C40.9877 32.0518 40.9398 34.0084 40.0809 35.6786C38.7448 38.2078 36.5019 39.5917 33.5431 39.5917C31.6344 39.5917 29.8211 39.0191 28.8665 38.5895C28.3417 39.0667 27.3873 39.8302 26.7193 40.3074C28.7711 41.2618 30.8709 41.7868 32.8751 41.7868C37.4563 41.7868 40.8444 39.2576 42.1329 36.7284C43.5168 33.9607 43.4214 29.1887 39.8422 25.1325Z" fill="white"/>
<path d="M15.6003 31.8611C15.6482 33.2927 16.841 34.4379 18.2728 34.4379H18.3682C19.8474 34.3901 20.9928 33.1494 20.945 31.6701C20.8974 30.2385 19.7043 29.0933 18.2728 29.0933H18.1772C18.0819 29.0933 17.9387 29.0933 17.8434 29.1411C15.8867 25.896 15.0755 22.3646 15.3618 18.5471C15.5527 15.684 16.5071 13.2024 18.1773 11.1502C19.5611 9.38475 22.2335 8.52581 24.0468 8.478C29.1052 8.38256 31.2527 14.6816 31.3957 17.2108C32.0162 17.3541 33.066 17.6882 33.7818 17.9267C33.2092 10.1963 28.4372 6.1875 23.856 6.1875C19.5611 6.1875 15.6003 9.28931 14.0255 13.8705C11.8305 19.9787 13.262 25.8482 15.9343 30.4772C15.6958 30.8111 15.5525 31.3361 15.6003 31.8611Z" fill="white"/>
</g>
<defs>
<clipPath id="clip0_23_332">
<rect width="48" height="48" fill="white" transform="translate(0.209961)"/>
</clipPath>
</defs>
</svg>
