<svg width="48" height="48" viewBox="0 0 48 48" fill="none" xmlns="http://www.w3.org/2000/svg">
<path d="M20.7187 1.55622C20.595 1.59747 19.9312 1.81122 19.2337 2.03997C15.4837 3.26622 12.8288 4.68747 12.1688 5.81247C11.9175 6.24372 11.8687 6.59247 12.0187 6.94122C12.1837 7.33497 12.4875 7.63122 13.32 8.21997C13.71 8.49372 14.3737 9.06747 14.805 9.49872C16.8675 11.5575 17.8687 14.0812 17.7562 16.935C17.6287 20.145 16.125 23.355 13.245 26.5687C12.24 27.69 11.2087 28.6237 9.22875 30.21C7.57875 31.53 6.6825 32.385 6.07125 33.2137C4.2 35.7637 4.69875 38.0362 7.55625 39.9337C10.0762 41.61 14.5162 43.005 19.7475 43.7625C21.5025 44.0175 23.4862 44.1787 23.9625 44.1075L24.2962 44.0587L24.8212 43.1137C27.4762 38.3325 28.8187 33.825 28.98 29.16C29.0512 27.0787 28.7887 24.615 28.3425 23.175C28.26 22.9162 28.2 22.695 28.2112 22.6875C28.2187 22.68 28.9612 22.4587 29.8612 22.1887C34.59 20.7787 39.165 19.6687 42.945 19.0125C43.68 18.885 44.31 18.7537 44.3437 18.72C44.5462 18.5212 43.9575 17.6025 43.0012 16.6162C39.465 12.9675 33.2175 10.1887 25.8862 9.00747C24.4725 8.77872 24.3 8.69622 23.775 8.00247C22.9425 6.89997 22.1587 5.01372 21.09 1.56372C21.0562 1.45872 21.0225 1.45872 20.7187 1.55622ZM21.2062 2.85372C21.6187 3.97497 21.87 4.85622 21.87 5.16747V5.41122L21.5212 5.36997C19.6312 5.15247 16.6162 4.68372 15.975 4.51122C15.81 4.46622 15.7163 4.40247 15.7463 4.35372C15.795 4.27497 16.4362 3.96747 18.3412 3.10122C20.1187 2.29497 20.7937 1.99497 20.8462 1.99122C20.8687 1.99122 21.03 2.37747 21.2062 2.85372ZM17.2087 5.21997C19.515 5.70372 21.195 6.00747 21.5662 6.00747C21.9262 6.00747 21.885 6.03747 20.19 7.07247C18.8812 7.86747 18.7312 7.94247 18.4012 7.94247H18.0412L17.0737 6.95997C15.9 5.77122 15.105 4.90122 15.105 4.80372C15.105 4.76247 15.1275 4.75122 15.1612 4.76997C15.1912 4.78497 16.1175 4.99122 17.2087 5.21997ZM15.5062 6.31122C16.0725 6.97122 16.5113 7.52622 16.4888 7.55247C16.44 7.60122 14.8237 7.19997 13.8337 6.89622C12.9712 6.62997 12.8662 6.53997 13.095 6.24747C13.245 6.05247 14.3587 5.12247 14.4412 5.11872C14.4637 5.11497 14.94 5.64747 15.5062 6.31122ZM22.8637 7.67997C23.0887 8.21622 23.2612 8.65122 23.2537 8.65872C23.2425 8.66622 20.2125 8.19747 19.9462 8.14497C19.89 8.13372 20.4037 7.78497 21.0937 7.36497C21.7837 6.94497 22.3725 6.62622 22.4025 6.65997C22.4325 6.68622 22.6387 7.14372 22.8637 7.67997ZM16.2562 8.69622C16.3162 8.75622 17.04 11.0812 17.0062 11.1112C16.995 11.1225 16.65 10.725 16.2413 10.2187C15.8288 9.71247 15.21 9.00372 14.8537 8.63247L14.2125 7.96122L15.2137 8.30622C15.7612 8.49747 16.2337 8.67372 16.2562 8.69622ZM19.1512 9.00747C20.4075 9.18747 21.45 9.34872 21.4687 9.36747C21.4837 9.38622 20.7262 9.97497 19.7812 10.68C18.8362 11.3812 18.0562 11.9475 18.045 11.9362C18.0337 11.925 17.94 11.6325 17.835 11.2837C17.73 10.935 17.46 10.2112 17.2387 9.66747C17.0175 9.12372 16.845 8.68122 16.8525 8.68122C16.86 8.68122 17.895 8.83122 19.1512 9.00747ZM22.3087 10.0125C22.5862 10.6612 22.695 11.2837 22.74 12.525C22.7625 13.1925 22.7662 13.7362 22.7437 13.7362C22.7212 13.7362 22.3237 13.5975 21.8625 13.4325C20.94 13.0987 19.1325 12.5025 18.9187 12.4612C18.825 12.4425 19.26 12.0262 20.4037 11.04C21.2962 10.2712 22.0537 9.64497 22.0875 9.64497C22.125 9.64872 22.2225 9.81372 22.3087 10.0125ZM25.5487 10.17C26.94 10.455 28.155 10.71 28.2525 10.7325C28.3912 10.7662 28.0575 10.9762 26.5875 11.7825C25.575 12.3375 24.4275 12.9675 24.0375 13.1887C23.6437 13.41 23.3212 13.5787 23.3137 13.5712C23.3062 13.5637 23.3475 13.3575 23.4037 13.11C23.6137 12.21 23.4825 11.085 23.0625 10.1887C22.9387 9.92997 22.8375 9.70122 22.8375 9.68247C22.8375 9.61872 23.0887 9.66372 25.5487 10.17ZM29.34 11.8687C29.2687 12.1837 29.115 12.72 28.9912 13.0687C28.725 13.8337 27.7538 15.8175 27.6225 15.87C27.57 15.8925 27.1125 15.6787 26.6137 15.4012C26.115 15.1237 25.3912 14.7562 25.0125 14.5875L24.3225 14.28L26.8687 12.6487C28.98 11.295 29.4187 11.04 29.4412 11.16C29.4562 11.235 29.4112 11.5537 29.34 11.8687ZM31.2 11.2875C33.84 12.045 36.6262 13.0687 36.465 13.2225C36.4312 13.2525 36.0862 13.3687 35.7 13.4775C33.7087 14.0437 30.9375 15 29.64 15.57C29.2387 15.7462 28.89 15.8775 28.8712 15.8587C28.8525 15.84 29.01 15.255 29.2237 14.565C29.64 13.2037 30.1237 11.3662 30.1237 11.13C30.1237 11.025 30.1612 10.9912 30.255 11.0175C30.3225 11.0362 30.7462 11.1562 31.2 11.2875ZM19.8487 14.025C20.4525 14.2237 21.1537 14.49 21.4125 14.6212C21.8812 14.8575 21.885 14.8612 21.75 15.0075C21.51 15.2737 18.8887 17.715 18.8137 17.7412C18.7762 17.7562 18.7463 17.385 18.7463 16.8487C18.7425 15.9187 18.6375 14.2425 18.5588 13.8675C18.4988 13.5937 18.5475 13.5975 19.8487 14.025ZM36.6112 14.5087C36.0337 15.4612 35.085 16.8187 34.3987 17.6737C33.6975 18.5512 32.2162 20.2012 32.13 20.2012C32.0962 20.2012 31.8825 19.935 31.6537 19.605C30.81 18.4012 29.8312 17.3587 28.9725 16.7512C28.89 16.695 28.8412 16.6312 28.86 16.6125C28.8787 16.5937 30.2887 16.0762 31.9837 15.4612C35.4187 14.2162 36.93 13.71 37.0237 13.7775C37.0312 13.7887 36.8475 14.115 36.6112 14.5087ZM38.76 14.3475C41.13 16.0012 42.7425 17.34 43.3275 18.1387C43.4737 18.3412 43.5825 18.5137 43.5675 18.525C43.5525 18.5362 42.7912 18.6225 41.8687 18.7125C38.19 19.0762 35.5687 19.4437 34.1812 19.7962C33.81 19.89 33.4987 19.9612 33.495 19.9575C33.4875 19.95 33.7312 19.65 34.0425 19.2787C35.6475 17.355 37.095 15.3525 37.635 14.3137C37.7775 14.04 37.9162 13.815 37.9462 13.815C37.9725 13.8112 38.3362 14.0512 38.76 14.3475ZM25.4737 16.3987C25.9275 16.6425 26.2762 16.8675 26.2575 16.905C26.2237 16.9725 22.2225 19.1625 22.1887 19.1325C22.1812 19.125 22.3875 18.4687 22.65 17.6662C22.9125 16.8637 23.1675 15.9937 23.2162 15.7275L23.3062 15.24L23.9812 15.6C24.3562 15.7987 25.02 16.155 25.4737 16.3987ZM22.125 16.5262C21.7387 17.865 20.955 19.59 20.5987 19.89C20.5162 19.9575 20.355 19.8637 19.8262 19.4362C19.455 19.1362 19.0762 18.84 18.975 18.7725C18.8775 18.705 18.8062 18.6337 18.8212 18.615C19.095 18.3412 22.2825 15.7725 22.2975 15.8137C22.3087 15.84 22.23 16.1625 22.125 16.5262ZM29.37 18.855C29.9737 19.2562 31.3087 20.4525 31.2375 20.5275C31.2187 20.5462 29.8612 20.9887 28.2262 21.5025C26.5912 22.02 24.7687 22.605 24.1762 22.8037C23.58 23.0025 23.0925 23.16 23.0887 23.1525C23.0812 23.145 23.4975 22.6725 24.0112 22.0987C25.35 20.6062 26.7262 19.005 27.2137 18.375L27.6337 17.8312L28.185 18.1275C28.4812 18.2925 29.0212 18.6225 29.37 18.855ZM26.2725 17.9962C26.235 18.045 25.875 18.5025 25.47 19.0162C25.065 19.5262 24.0975 20.7712 23.31 21.78L21.8812 23.6175L21.8325 23.3062C21.7425 22.7025 21.42 21.5287 21.2362 21.1275L21.0525 20.7262L21.96 20.2725C22.8975 19.8037 24.8512 18.7425 25.7662 18.21C26.3437 17.8725 26.3812 17.8575 26.2725 17.9962ZM18.6937 20.2162C19.065 20.4075 19.4137 20.655 19.4137 20.7337C19.4137 20.8537 16.995 22.7212 16.9313 22.65C16.9163 22.635 17.1337 22.2037 17.415 21.69C17.7 21.1762 17.985 20.6025 18.0525 20.4075C18.12 20.2125 18.225 20.055 18.2775 20.055C18.3375 20.055 18.525 20.13 18.6937 20.2162ZM20.7562 22.515C20.925 22.8412 21.0975 23.76 21.0075 23.8425C20.97 23.8762 19.9725 24.3487 18.7837 24.8925C17.595 25.4362 16.0537 26.1675 15.345 26.52C14.64 26.8725 14.1037 27.12 14.1562 27.075C14.2087 27.0262 14.985 26.3775 15.885 25.6275C17.625 24.18 19.6087 22.4512 19.9725 22.0687L20.19 21.84L20.4037 22.0462C20.5237 22.1587 20.6812 22.3687 20.7562 22.515ZM18.8025 22.4962C18.63 22.65 17.7 23.4637 16.74 24.2962C15.78 25.125 14.625 26.13 14.175 26.5237C13.2675 27.315 13.2675 27.315 14.4263 25.8037C15.3225 24.6337 15.7912 24.1987 17.0775 23.3362C17.7037 22.9162 18.9487 22.215 19.0687 22.215C19.095 22.2112 18.975 22.3425 18.8025 22.4962ZM27.8137 23.2912C27.8625 23.535 27.9187 24.3 27.945 24.9825L27.99 26.2275L27.7012 26.0925C26.7037 25.6312 23.9025 24.0525 24.0075 24.0112C24.6187 23.7675 27.645 22.7625 27.6787 22.7962C27.705 22.8225 27.765 23.0437 27.8137 23.2912ZM25.4362 25.5187C26.6025 26.205 27.5662 26.775 27.5812 26.7862C27.5962 26.7975 27.4425 26.925 27.2512 27.0675C26.88 27.3412 22.9237 29.385 22.8712 29.3325C22.8562 29.3175 22.9087 28.9762 22.9875 28.5825C23.1487 27.7875 23.295 25.4175 23.2237 24.6637C23.2012 24.3975 23.2087 24.21 23.2462 24.2325C23.2875 24.255 24.27 24.8325 25.4362 25.5187ZM22.2112 25.0162C22.3012 25.755 22.1925 27.24 21.9937 28.0125C21.7575 28.92 21.6225 29.2987 21.5212 29.3325C21.3825 29.3812 20.52 28.5937 19.9912 27.9375C19.4587 27.2775 18.7612 26.0325 18.8662 25.9312C18.93 25.8712 22.0125 24.6 22.1062 24.5962C22.1362 24.5925 22.185 24.7837 22.2112 25.0162ZM18.4312 26.8725C18.7575 27.5475 19.5037 28.5225 20.3212 29.3475C20.8462 29.8762 20.9775 30.0487 20.895 30.1012C20.5275 30.3487 18.8887 31.1175 17.8537 31.5225C16.5975 32.0175 14.9663 32.58 14.9288 32.535C14.9138 32.52 15.2887 31.8375 15.7612 31.02C16.785 29.2425 18.0787 26.73 18.0787 26.5237C18.0787 26.2612 18.1875 26.3662 18.4312 26.8725ZM16.4963 26.9137C16.4775 26.9662 16.32 27.3562 16.1512 27.7875C15.4237 29.6325 14.01 32.1375 13.695 32.1375C13.4512 32.1375 13.0912 30.6787 12.99 29.2762L12.9375 28.5712L14.6662 27.6975C15.6187 27.2175 16.425 26.8237 16.4662 26.8237C16.5 26.82 16.515 26.8612 16.4963 26.9137ZM28.0387 28.62C28.0462 29.6812 27.6 32.25 27.3637 32.5087C27.2662 32.6175 26.1675 32.2125 25.1812 31.7025C24.2962 31.245 22.8412 30.3412 22.8412 30.2512C22.8412 30.225 23.0625 30.1125 23.34 29.9962C23.865 29.775 26.3063 28.47 27.3413 27.8587L27.9375 27.5062L27.99 27.7762C28.0087 27.9225 28.035 28.3087 28.0387 28.62ZM11.7525 29.8462C11.8537 30.6862 12.1125 31.7137 12.435 32.5312C12.5662 32.865 12.66 33.1537 12.645 33.1687C12.5175 33.285 7.32375 34.7137 6.6375 34.8225L6.31125 34.875L6.36 34.6237C6.43125 34.2675 6.93375 33.24 7.30875 32.685C7.77375 31.995 8.925 30.84 9.68625 30.3037C10.2525 29.9025 11.6175 29.1075 11.6588 29.1525C11.6625 29.1562 11.7075 29.4675 11.7525 29.8462ZM23.535 31.6162C25.14 32.385 25.7475 32.6512 26.5162 32.9175L27.105 33.12L26.7337 33.3075C24.63 34.3725 20.91 35.8912 19.9462 36.0787C19.7325 36.12 19.7025 36.1087 19.7437 36.0037C19.9087 35.5725 22.1287 30.9862 22.17 30.9862C22.1962 30.9825 22.815 31.2712 23.535 31.6162ZM20.7112 31.4437C20.5987 31.9837 19.9875 33.735 19.6312 34.53C19.3237 35.22 18.6112 36.5662 18.4837 36.6937C18.4275 36.75 17.16 36.0337 16.56 35.6062C15.885 35.1262 14.4075 33.7012 14.4487 33.57C14.4637 33.5212 15.3637 33.1762 16.4475 32.8012C18.7312 32.0137 20.01 31.5375 20.3812 31.3462C20.7412 31.1587 20.7712 31.17 20.7112 31.4437ZM27.0975 33.8625C27.075 34.02 26.9475 34.71 26.8087 35.4075C26.3737 37.5937 25.845 39.0862 25.5075 39.0862C25.0425 39.0862 21.8587 38.3137 20.8312 37.95C20.1337 37.7025 19.53 37.4212 19.3312 37.245C19.2075 37.1362 19.2713 37.0987 20.1862 36.7237C23.13 35.5237 26.5237 33.9937 26.8912 33.7012C27.105 33.5325 27.1387 33.555 27.0975 33.8625ZM12.2025 34.53C11.8688 35.1262 11.1825 36.1125 9.8775 37.875L8.76375 39.375L8.43 39.135C7.96125 38.8012 7.21875 37.9912 6.9075 37.4775C6.57375 36.9262 6.345 36.2475 6.31875 35.73L6.29625 35.3287L6.8475 35.2725C7.59375 35.1975 9.67875 34.7662 11.1675 34.3762C11.8425 34.2 12.405 34.065 12.42 34.0762C12.4312 34.0912 12.3338 34.2937 12.2025 34.53ZM15.4387 36.0712C15.81 36.3375 16.32 36.675 16.5825 36.8287L17.0588 37.1062L16.845 37.1962C16.725 37.245 14.9962 37.875 12.9975 38.5987C9.585 39.8325 9.36 39.9037 9.26625 39.7762C9.21 39.7012 9.1725 39.6225 9.18 39.5962C9.1875 39.57 10.11 38.3812 11.2313 36.945L13.2675 34.3387L14.0175 34.965C14.4375 35.3137 15.0675 35.805 15.4387 36.0712ZM16.2787 39.99C15.5325 41.1037 14.9025 42.045 14.88 42.075C14.8237 42.15 13.6313 41.8687 12.7388 41.5725C11.8013 41.2575 10.6462 40.6725 10.1962 40.2862L9.87 40.005L10.605 39.8062C13.6162 38.985 17.5987 37.9312 17.6175 37.9462C17.6325 37.95 17.025 38.8762 16.2787 39.99ZM19.8637 38.3025C21.4575 38.85 22.9125 39.1612 24.7987 39.3637L25.32 39.42L23.9137 39.9262C20.4037 41.1937 17.5612 42.0825 16.1287 42.36C15.7275 42.4387 15.36 42.5025 15.3187 42.5025C15.2775 42.5025 15.5663 42.1087 15.96 41.6325C17.0325 40.3237 18.195 38.835 18.5025 38.3775C18.6525 38.1562 18.8025 37.9687 18.8362 37.9687C18.87 37.9725 19.3275 38.1187 19.8637 38.3025ZM25.095 41.2575C24.4912 42.8175 24.0487 43.7662 23.8912 43.8262C23.5912 43.9425 19.4475 43.3312 18.1838 42.99C17.3438 42.7612 16.8075 42.54 16.965 42.4837C17.025 42.4612 17.625 42.3225 18.3037 42.1687C20.4975 41.6737 23.8425 40.6575 25.2262 40.065C25.4062 39.99 25.5637 39.9337 25.575 39.945C25.5825 39.9562 25.3687 40.545 25.095 41.2575Z" fill="#57687C"/>
</svg>
