<svg width="49" height="48" viewBox="0 0 49 48" fill="none" xmlns="http://www.w3.org/2000/svg">
<g clip-path="url(#clip0_23_351)">
<path d="M24.2198 46.8553C11.617 46.8553 1.36353 36.6028 1.36353 23.9998C1.36371 11.3966 11.6172 1.1441 24.22 1.1441C36.8226 1.1441 47.076 11.3975 47.076 24.0004C47.076 36.603 36.8226 46.8553 24.2198 46.8553Z" fill="#85EA2D"/>
<path d="M24.2198 2.28787C36.2112 2.28787 45.9317 12.0082 45.9317 23.9998C45.9317 35.9908 36.2112 45.7118 24.2198 45.7118C12.2288 45.7118 2.50785 35.9908 2.50785 23.9998C2.50785 12.0088 12.2288 2.28787 24.2198 2.28787ZM24.2198 0C10.986 0 0.219971 10.7662 0.219971 23.9998C0.219971 37.2334 10.9862 47.9994 24.2198 47.9994C37.4533 47.9994 48.22 37.2332 48.22 24C48.22 10.7661 37.4533 0 24.2198 0Z" fill="#173647"/>
<path d="M15.3321 16.241C15.2582 17.0623 15.3595 17.9115 15.3047 18.7419C15.24 19.5727 15.1384 20.394 14.9723 21.2154C14.7417 22.3873 14.0123 23.2734 13.0069 24.0118C14.9637 25.2855 15.1849 27.26 15.3139 29.2629C15.3786 30.3429 15.3508 31.4317 15.4617 32.5022C15.5447 33.3326 15.8676 33.545 16.7263 33.5724C17.077 33.5814 17.4362 33.5724 17.8431 33.5724V36.138C15.3053 36.5717 13.2103 35.852 12.693 33.702C12.5267 32.9175 12.4159 32.1144 12.3793 31.3024C12.3237 30.444 12.4159 29.5858 12.3516 28.7276C12.1669 26.3739 11.8622 25.5804 9.61072 25.4696V22.5442C9.77205 22.5075 9.9353 22.4797 10.0997 22.4612C11.3365 22.3965 11.8622 22.0179 12.13 20.7999C12.2593 20.1172 12.3332 19.425 12.3606 18.7235C12.4532 17.3855 12.4163 16.0198 12.6465 14.691C12.9694 12.7805 14.1512 11.8575 16.1172 11.7469C16.6707 11.7189 17.2337 11.7469 17.8703 11.7469V14.3681C17.6027 14.3869 17.3719 14.4232 17.1321 14.4232C15.5355 14.3675 15.4521 14.912 15.3321 16.241ZM18.4052 22.3134H18.3685C17.4454 22.2675 16.6519 22.9871 16.6054 23.91C16.5593 24.8422 17.2789 25.6361 18.202 25.6819H18.3126C19.2267 25.7374 20.0106 25.0355 20.0661 24.122V24.03C20.0848 23.0979 19.3373 22.3322 18.4052 22.3134ZM24.1918 22.3134C23.2967 22.2857 22.5488 22.9871 22.5214 23.873C22.5214 23.9287 22.5214 23.9749 22.531 24.03C22.531 25.0359 23.2137 25.6822 24.2475 25.6822C25.2627 25.6822 25.8998 25.0177 25.8998 23.9749C25.8902 22.9687 25.2162 22.304 24.1918 22.3134ZM30.1172 22.3134C29.176 22.2947 28.3911 23.0428 28.3637 23.984C28.3631 24.2072 28.4066 24.4282 28.4917 24.6344C28.5769 24.8407 28.7019 25.0281 28.8597 25.1858C29.0175 25.3436 29.2049 25.4686 29.4111 25.5537C29.6174 25.6388 29.8384 25.6823 30.0615 25.6817H30.0803C30.9293 25.8294 31.7877 25.0082 31.8432 24.0208C31.8887 23.1069 31.0583 22.3134 30.1172 22.3134ZM38.2478 22.4516C37.177 22.4057 36.6415 22.0459 36.3743 21.0302C36.2084 20.3803 36.1064 19.7158 36.0698 19.046C35.9957 17.8093 36.0049 16.5634 35.9218 15.3266C35.7282 12.392 33.6058 11.3677 30.523 11.8747V14.4225C31.0118 14.4225 31.3903 14.4225 31.7689 14.4317C32.4242 14.4407 32.9226 14.6902 32.9869 15.4194C33.0516 16.0837 33.0516 16.7574 33.1163 17.4313C33.246 18.7699 33.3193 20.126 33.5502 21.4457C33.7536 22.5349 34.5008 23.3469 35.4327 24.0114C33.7995 25.1096 33.3195 26.6782 33.2363 28.4413C33.1903 29.6503 33.1624 30.8683 33.0983 32.0869C33.0426 33.194 32.6554 33.5539 31.5387 33.5816C31.2248 33.591 30.9203 33.6187 30.5695 33.6373V36.2492C31.2248 36.2492 31.8246 36.2859 32.4242 36.2492C34.2883 36.1382 35.4143 35.2339 35.7838 33.4249C35.9404 32.429 36.0328 31.4241 36.0606 30.4164C36.1249 29.4934 36.1163 28.5613 36.2083 27.6478C36.3465 26.2172 37.0018 25.6265 38.4325 25.5347C38.571 25.5159 38.7 25.4885 38.8296 25.4424V22.5167C38.5892 22.4887 38.4227 22.4612 38.2478 22.4516Z" fill="#173647"/>
</g>
<defs>
<clipPath id="clip0_23_351">
<rect width="48" height="48" fill="white" transform="translate(0.219971)"/>
</clipPath>
</defs>
</svg>
