<svg width="16" height="16" viewBox="0 0 16 16" fill="none" xmlns="http://www.w3.org/2000/svg">
<g clip-path="url(#clip0_18_15)">
<path d="M8.00001 0L1.07001 4V12L8.00001 16L14.93 12V4L8.00001 0ZM8.00001 0.94L14.1147 4.47V11.53L8.00001 15.06L1.88534 11.53V4.47L8.00001 0.94ZM3.93467 5.556C3.06401 5.556 2.61267 6.19333 2.21867 7.16267V11.3373L8.00001 14.676L13.7813 11.3373V7.35667C13.4833 7.18067 13.1853 7.082 12.8907 7.082C10.0407 7.082 10.244 10.3387 8.41267 10.9487C6.58067 11.56 6.07201 5.556 3.93467 5.556ZM12.1773 5.86067C10.244 5.86067 10.7527 9.01533 8.61601 9.01533C7.52934 9.01533 6.93601 8.13733 6.29801 7.69467C6.39667 7.912 6.49801 8.13133 6.59267 8.348C6.90401 9.06 7.20734 9.74133 7.51201 10.1707C7.66401 10.3853 7.81534 10.5313 7.94134 10.6C7.99513 10.6347 8.05651 10.6558 8.12025 10.6616C8.18398 10.6674 8.24817 10.6577 8.30734 10.6333C8.67934 10.5087 8.95267 10.2527 9.21401 9.892C9.47401 9.53133 9.70734 9.07333 9.98334 8.61467C10.2587 8.156 10.5793 7.69133 11.0433 7.336C11.5067 6.98 12.1147 6.74867 12.89 6.74867C13.2 6.74867 13.4953 6.83933 13.7813 6.98333V6.90267C13.3593 6.33667 12.8827 5.86067 12.1773 5.86067ZM7.72401 5.962C7.14534 5.962 6.73001 6.50867 6.34001 7.33533C6.40267 7.372 6.46801 7.406 6.52467 7.44667C7.23134 7.954 7.72334 8.682 8.61601 8.682C9.06801 8.682 9.32734 8.53667 9.56134 8.292C9.08001 7.26133 8.60667 5.964 7.72401 5.962Z" fill="#57687C"/>
</g>
<defs>
<clipPath id="clip0_18_15">
<rect width="16" height="16" fill="white"/>
</clipPath>
</defs>
</svg>
