<svg width="48" height="48" viewBox="0 0 48 48" fill="none" xmlns="http://www.w3.org/2000/svg">
<g clip-path="url(#clip0_20_5)">
<mask id="mask0_20_5" style="mask-type:luminance" maskUnits="userSpaceOnUse" x="0" y="0" width="48" height="48">
<path d="M24 48C37.2548 48 48 37.2548 48 24C48 10.7452 37.2548 0 24 0C10.7452 0 0 10.7452 0 24C0 37.2548 10.7452 48 24 48Z" fill="white"/>
</mask>
<g mask="url(#mask0_20_5)">
<path d="M0 0L0.75 2.0625L0 4.21875V6.375L3 11.4375L0 16.5V19.5L3 24L0 28.5V31.5L3 36.5625L0 41.625V48L2.0625 47.25L4.21875 48H6.375L11.4375 45L16.5 48H19.5L24 45L28.5 48H31.5L36.5625 45L41.625 48H48L47.25 45.9375L48 43.7812V41.625L45 36.5625L48 31.5V28.5L45 24L48 19.5V16.5L45 11.4375L48 6.375V0L45.9375 0.75L43.7812 0H41.625L36.5625 3L31.5 0H28.5L24 3L19.5 0H16.5L11.4375 3L6.375 0H0Z" fill="#EEEEEE"/>
<path d="M31.5 0V10.125L41.625 0H31.5ZM48 6.375L37.875 16.5H48V6.375ZM0 16.5H10.125L0 6.375V16.5ZM6.375 0L16.5 10.125V0H6.375ZM16.5 48V37.875L6.375 48H16.5ZM0 41.625L10.125 31.5H0V41.625ZM48 31.5H37.875L48 41.625V31.5ZM41.625 48L31.5 37.875V48H41.625Z" fill="#0052B4"/>
<path d="M0 0V4.21875L12.2812 16.5H16.5L0 0ZM19.5 0V19.5H0V28.5H19.5V48H28.5V28.5H48V19.5H28.5V0H19.5ZM43.7812 0L31.5 12.2812V16.5L48 0H43.7812ZM16.5 31.5L0 48H4.21875L16.5 35.7188V31.5ZM31.5 31.5L48 48V43.7812L35.7188 31.5H31.5Z" fill="#D80027"/>
</g>
</g>
<defs>
<clipPath id="clip0_20_5">
<rect width="48" height="48" fill="white"/>
</clipPath>
</defs>
</svg>
