<svg width="16" height="16" viewBox="0 0 16 16" fill="none" xmlns="http://www.w3.org/2000/svg">
<path d="M8.12667 1.5867C6.73459 1.55443 5.37184 1.98951 4.25599 2.82247C3.14014 3.65543 2.33555 4.83823 1.97067 6.18203C1.934 6.1907 2.006 6.1687 1.97067 6.18203C-0.612662 7.8827 -0.643996 11.5887 1.806 13.476L1.81 13.4714L1.80534 13.4914C2.58793 14.0821 3.5428 14.3997 4.52334 14.3954H7.972L7.992 14.4154H11.4533C15.9113 14.4507 17.704 8.6787 14.01 6.18203C13.6919 5.00898 13.0383 3.95429 12.1293 3.14736L12.1007 3.17603L12.1047 3.1427C11.0035 2.17141 9.59461 1.62032 8.12667 1.5867ZM7.888 4.3507C8.71734 4.32403 9.56667 4.59603 10.212 5.11736C10.6091 5.4488 10.9268 5.86512 11.1416 6.33564C11.3564 6.80615 11.463 7.31888 11.4533 7.83603V8.18136C13.8067 8.1347 13.8067 11.6894 11.4533 11.6434H7.99134L7.986 11.6494V11.6227H4.52334C4.27803 11.6227 4.03553 11.5704 3.812 11.4694C3.55697 11.3539 3.33441 11.1783 3.16213 10.9576C2.98984 10.7369 2.87365 10.4778 2.82349 10.2023C2.77334 9.92689 2.79073 9.6434 2.87418 9.37616C2.95762 9.10892 3.10462 8.86591 3.30258 8.66794C3.50055 8.46998 3.74357 8.32298 4.01081 8.23953C4.27804 8.15609 4.56153 8.1387 4.83697 8.18885C5.1124 8.239 5.37157 8.3552 5.59224 8.52748C5.81292 8.69977 5.98852 8.92299 6.104 9.17803L8.11267 7.17003C7.44521 6.29997 6.4829 5.70371 5.40667 5.49336C5.41867 5.4867 5.43334 5.47603 5.44267 5.47803C5.75435 5.13607 6.1315 4.86015 6.55177 4.66662C6.97204 4.47309 7.42688 4.36589 7.88934 4.35136L7.888 4.3507Z" fill="#57687C"/>
</svg>
