<svg width="16" height="16" viewBox="0 0 16 16" fill="none" xmlns="http://www.w3.org/2000/svg">
<path d="M14.442 6.658L14.4233 6.61L12.6107 1.88067C12.574 1.78736 12.5087 1.7081 12.4241 1.6543C12.3395 1.60051 12.24 1.57496 12.14 1.58133C12.0399 1.58579 11.9437 1.62187 11.8654 1.6844C11.787 1.74693 11.7305 1.83268 11.704 1.92933L10.48 5.68H5.52132L4.29532 1.93C4.26909 1.83331 4.21289 1.74741 4.1348 1.68465C4.0567 1.62189 3.96073 1.58548 3.86066 1.58067C3.76061 1.57522 3.66137 1.60122 3.57684 1.65502C3.49232 1.70882 3.42675 1.78772 3.38932 1.88067L1.57466 6.61667L1.55599 6.66333C1.29546 7.34542 1.26342 8.09365 1.46467 8.79552C1.66593 9.49738 2.0896 10.1149 2.67199 10.5553L2.67866 10.56L2.69466 10.5727L5.45932 12.642L6.82599 13.6773L7.65732 14.3067C7.75487 14.3803 7.87376 14.4202 7.99599 14.4202C8.11822 14.4202 8.23711 14.3803 8.33466 14.3067L9.16599 13.6773L10.5327 12.642L13.314 10.56L13.3207 10.5547C13.9051 10.1148 14.3307 9.4968 14.5329 8.79385C14.7352 8.09089 14.7033 7.34121 14.442 6.658Z" fill="#57687C"/>
</svg>
