<svg width="16" height="16" viewBox="0 0 16 16" fill="none" xmlns="http://www.w3.org/2000/svg">
<g clip-path="url(#clip0_18_4)">
<mask id="mask0_18_4" style="mask-type:luminance" maskUnits="userSpaceOnUse" x="0" y="0" width="16" height="16">
<path d="M0 0H16V16H0V0Z" fill="white"/>
</mask>
<g mask="url(#mask0_18_4)">
<path d="M3.38666 0H4.10799V0.712667H4.76799V0H5.48932V2.15733H4.76799V1.43533H4.10799V2.15733H3.38732L3.38666 0ZM6.43732 0.715333H5.80266V0H7.79399V0.715333H7.15866V2.15733H6.43732V0.715333ZM8.10999 0H8.86199L9.32466 0.758L9.78666 0H10.5387V2.15733H9.82066V1.088L9.32466 1.85533H9.31199L8.81532 1.08867V2.15733H8.10999V0ZM10.8973 0H11.6193V1.44467H12.6327V2.158H10.8973V0Z" fill="#57687C"/>
<path fill-rule="evenodd" clip-rule="evenodd" d="M3.364 14.7147L2 3.14465H14L12.6353 14.7133L7.99333 16L3.364 14.7147ZM6.122 8.38132L5.99267 6.92799H11.4227L11.5493 5.50932H4.44267L4.82533 9.80065H9.74333L9.57867 11.6407L7.996 12.0687H7.99467L6.41467 11.642L6.31333 10.5107H4.888L5.08667 12.7387L7.99333 13.5453L10.9047 12.7387L11.2593 8.76265L11.294 8.38199H6.122V8.38132Z" fill="#57687C"/>
</g>
</g>
<defs>
<clipPath id="clip0_18_4">
<rect width="16" height="16" fill="white"/>
</clipPath>
</defs>
</svg>
