<svg width="16" height="16" viewBox="0 0 16 16" fill="none" xmlns="http://www.w3.org/2000/svg">
<g clip-path="url(#clip0_18_34)">
<path d="M8 0C3.58175 0 0 3.58175 0 8C0 12.4183 3.58175 16 8 16C12.4183 16 16 12.4183 16 8C16 3.58175 12.4183 0 8 0ZM8 0.8135C11.969 0.8135 15.1865 4.031 15.1865 8C15.1865 11.969 11.969 15.1865 8 15.1865C4.031 15.1865 0.8135 11.969 0.8135 8C0.8135 4.031 4.031 0.8135 8 0.8135ZM8.09037 2.30512C7.34571 2.30413 6.60812 2.44965 5.91962 2.73338C6.46862 3.1365 6.825 3.7865 6.825 4.51975C6.825 5.74288 5.83325 6.73462 4.61 6.73462C3.87688 6.73462 3.22675 6.37825 2.82375 5.82937C2.54003 6.51783 2.39452 7.25537 2.3955 8C2.3955 11.1453 4.94512 13.695 8.09037 13.695C11.2356 13.695 13.7854 11.1453 13.7854 8C13.7854 4.85475 11.2356 2.30512 8.09037 2.30512Z" fill="#57687C"/>
</g>
<defs>
<clipPath id="clip0_18_34">
<rect width="16" height="16" fill="white"/>
</clipPath>
</defs>
</svg>
