<svg width="16" height="16" viewBox="0 0 16 16" fill="none" xmlns="http://www.w3.org/2000/svg">
<path d="M2 4.5C2 3.83696 2.26339 3.20107 2.73223 2.73223C3.20107 2.26339 3.83696 2 4.5 2H11.5C12.163 2 12.7989 2.26339 13.2678 2.73223C13.7366 3.20107 14 3.83696 14 4.5V11.5C14 12.163 13.7366 12.7989 13.2678 13.2678C12.7989 13.7366 12.163 14 11.5 14H4.5C3.83696 14 3.20107 13.7366 2.73223 13.2678C2.26339 12.7989 2 12.163 2 11.5V4.5ZM7.5 6C7.36739 6 7.24021 6.05268 7.14645 6.14645C7.05268 6.24021 7 6.36739 7 6.5V10.5C7 10.6326 6.94732 10.7598 6.85355 10.8536C6.75979 10.9473 6.63261 11 6.5 11H5.5C5.36739 11 5.24021 11.0527 5.14645 11.1464C5.05268 11.2402 5 11.3674 5 11.5C5 11.6326 5.05268 11.7598 5.14645 11.8536C5.24021 11.9473 5.36739 12 5.5 12H6.5C6.89782 12 7.27936 11.842 7.56066 11.5607C7.84196 11.2794 8 10.8978 8 10.5V6.5C8 6.36739 7.94732 6.24021 7.85355 6.14645C7.75979 6.05268 7.63261 6 7.5 6ZM8.5 7.5V8C8.5 8.39782 8.65804 8.77936 8.93934 9.06066C9.22064 9.34196 9.60218 9.5 10 9.5H10.5C10.6326 9.5 10.7598 9.55268 10.8536 9.64645C10.9473 9.74021 11 9.86739 11 10V10.5C11 10.6326 10.9473 10.7598 10.8536 10.8536C10.7598 10.9473 10.6326 11 10.5 11H9C8.86739 11 8.74021 11.0527 8.64645 11.1464C8.55268 11.2402 8.5 11.3674 8.5 11.5C8.5 11.6326 8.55268 11.7598 8.64645 11.8536C8.74021 11.9473 8.86739 12 9 12H10.5C10.8978 12 11.2794 11.842 11.5607 11.5607C11.842 11.2794 12 10.8978 12 10.5V10C12 9.60218 11.842 9.22064 11.5607 8.93934C11.2794 8.65804 10.8978 8.5 10.5 8.5H10C9.86739 8.5 9.74021 8.44732 9.64645 8.35355C9.55268 8.25979 9.5 8.13261 9.5 8V7.5C9.5 7.36739 9.55268 7.24021 9.64645 7.14645C9.74021 7.05268 9.86739 7 10 7H11.5C11.6326 7 11.7598 6.94732 11.8536 6.85355C11.9473 6.75979 12 6.63261 12 6.5C12 6.36739 11.9473 6.24021 11.8536 6.14645C11.7598 6.05268 11.6326 6 11.5 6H10C9.60218 6 9.22064 6.15804 8.93934 6.43934C8.65804 6.72064 8.5 7.10218 8.5 7.5Z" fill="#57687C"/>
</svg>
