<svg width="16" height="16" viewBox="0 0 16 16" fill="none" xmlns="http://www.w3.org/2000/svg">
<path d="M7.68668 1.33331C7.68668 2.93331 9.00001 4.23331 10.5867 4.23331H11.7733V5.36665C11.7733 6.96665 13.0667 8.25998 14.6667 8.26665V1.89331C14.6667 1.74479 14.6077 1.60235 14.5027 1.49733C14.3976 1.39231 14.2552 1.33331 14.1067 1.33331H7.68668ZM4.51334 4.53331C4.5172 5.29948 4.82327 6.03318 5.36504 6.57495C5.90681 7.11672 6.64051 7.42279 7.40668 7.42665H8.60668V8.57331C8.61053 9.33948 8.9166 10.0732 9.45837 10.6149C10.0001 11.1567 10.7338 11.4628 11.5 11.4666V5.08665C11.4981 4.94048 11.4392 4.80084 11.3358 4.69748C11.2325 4.59412 11.0928 4.53521 10.9467 4.53331H4.51334ZM1.33334 7.73331C1.33334 9.33331 2.63334 10.6266 4.23334 10.6266H5.42001V11.7733C5.42668 13.3666 6.72001 14.6666 8.31334 14.6666V8.28665C8.31334 8.13813 8.25434 7.99569 8.14932 7.89067C8.0443 7.78565 7.90187 7.72665 7.75334 7.72665L1.33334 7.73331Z" fill="#57687C"/>
</svg>
