<svg width="16" height="16" viewBox="0 0 16 16" fill="none" xmlns="http://www.w3.org/2000/svg">
<path d="M9.30002 9.00002H9.14669C9.02669 9.07336 8.97336 9.21336 9.02669 9.33336L9.60002 10.74C10.1534 10.3867 10.5734 9.86002 10.7934 9.24002L9.30669 9.00002H9.30002ZM7.00002 9.19336C6.98288 9.13894 6.94934 9.09116 6.90399 9.05655C6.85864 9.02194 6.8037 9.0022 6.74669 9.00002H6.69336L5.21336 9.24669C5.43336 9.86002 5.85336 10.38 6.40669 10.7334L6.97336 9.35336V9.33336C7.00002 9.30002 7.00002 9.24002 7.00002 9.19336ZM8.22002 9.73336C8.18793 9.67528 8.13423 9.63221 8.07057 9.61349C8.00692 9.59477 7.93845 9.60191 7.88002 9.63336C7.83336 9.66669 7.80002 9.68669 7.78002 9.73336H7.77336L7.04669 11.0467C7.56669 11.22 8.12669 11.2534 8.66669 11.1267C8.76002 11.1067 8.86002 11.08 8.95336 11.0467L8.22669 9.73336H8.22002ZM10.52 6.68669L9.40002 7.66669L9.40669 7.68669C9.38129 7.70783 9.36039 7.73387 9.34525 7.76325C9.3301 7.79263 9.32102 7.82475 9.31853 7.85771C9.31604 7.89067 9.3202 7.92379 9.33077 7.95511C9.34133 7.98643 9.35808 8.0153 9.38002 8.04002C9.41336 8.08002 9.45336 8.10669 9.50002 8.12002L9.50669 8.12669L10.9534 8.54002C11 7.89336 10.86 7.24002 10.52 6.68669ZM8.44669 6.79335C8.45336 6.93335 8.56669 7.04002 8.70669 7.03336C8.76002 7.03336 8.80669 7.02002 8.84669 7.00002H8.85336L10.0734 6.12669C9.60847 5.67053 9.00639 5.38003 8.36002 5.30002L8.44669 6.79335ZM7.15336 7.00002C7.26669 7.07336 7.42002 7.05336 7.50002 6.94002C7.53336 6.90002 7.54669 6.85335 7.55336 6.80002H7.56002L7.64002 5.30002C7.54002 5.31336 7.44002 5.33336 7.33336 5.35336C6.80002 5.47336 6.30669 5.74002 5.92002 6.12669L7.14669 7.00002H7.15336ZM6.49336 8.12669C6.62669 8.09335 6.70669 7.95335 6.66669 7.82002C6.66669 7.76669 6.63336 7.72669 6.59336 7.69336V7.68669L5.47336 6.66669C5.12669 7.24002 4.98002 7.89335 5.05336 8.54669L6.49336 8.13336V8.12669ZM7.58669 8.56669L8.00002 8.76669L8.41336 8.56669L8.51336 8.12002L8.22669 7.76669H7.76669L7.48002 8.12002L7.58669 8.56669ZM14.8467 9.44669L13.6667 4.33336C13.6067 4.05336 13.42 3.82669 13.1734 3.70669L8.39336 1.42002C8.14669 1.30669 7.85336 1.30669 7.60002 1.42002L2.82669 3.70669C2.58002 3.82669 2.39336 4.05336 2.33336 4.33336L1.15336 9.44669C1.12002 9.58002 1.12002 9.71336 1.15336 9.84002C1.16002 9.88002 1.17336 9.92002 1.18669 9.96002C1.20669 10.02 1.24002 10.0867 1.27336 10.14C1.29336 10.1667 1.30669 10.1934 1.33336 10.2134L4.63336 14.3334C4.64669 14.3334 4.66669 14.36 4.66669 14.3734C4.73336 14.4334 4.79336 14.48 4.85336 14.52C4.93336 14.5734 5.02669 14.6134 5.12002 14.6334C5.19336 14.6667 5.27336 14.6667 5.33336 14.6667H10.7467C10.7934 14.6667 10.84 14.6467 10.88 14.6334C10.9134 14.6267 10.9467 14.6134 10.9734 14.6067C11 14.5934 11.02 14.5867 11.0467 14.5734C11.08 14.56 11.1134 14.54 11.1467 14.52C11.2267 14.4667 11.3 14.4 11.3667 14.3334L11.4667 14.2L14.6667 10.2134C14.7334 10.1334 14.78 10.0467 14.8134 9.96002C14.8267 9.92002 14.84 9.88002 14.8467 9.84002C14.88 9.71336 14.88 9.57336 14.8467 9.44669ZM9.89336 11.44C9.90669 11.48 9.92002 11.52 9.94002 11.5534C9.91336 11.6067 9.90002 11.6667 9.92002 11.7267C10 11.8867 10.0734 12.0334 10.1734 12.18C10.2267 12.2534 10.28 12.3334 10.3334 12.4067C10.3334 12.4267 10.3534 12.46 10.36 12.4867C10.44 12.62 10.4 12.7934 10.26 12.88C10.12 12.9667 9.94669 12.9134 9.86669 12.78C9.86002 12.76 9.85336 12.7467 9.84669 12.7267C9.83336 12.7067 9.82002 12.6667 9.80669 12.6667C9.77336 12.5667 9.74669 12.48 9.72669 12.3934C9.66669 12.2267 9.61336 12.0667 9.52669 11.9134C9.49221 11.867 9.44274 11.834 9.38669 11.82L9.33336 11.7134C8.47336 12.0334 7.53336 12.0334 6.68669 11.7067L6.62002 11.8267C6.57336 11.8334 6.52669 11.8534 6.49336 11.8867C6.40002 12.0467 6.33336 12.2134 6.27336 12.4C6.25336 12.4867 6.22669 12.5734 6.19336 12.6667C6.18002 12.6667 6.16669 12.7134 6.15336 12.7334C6.12772 12.805 6.07469 12.8635 6.00592 12.896C5.93716 12.9285 5.8583 12.9323 5.78669 12.9067C5.71508 12.8811 5.65659 12.828 5.62408 12.7593C5.59158 12.6905 5.58772 12.6116 5.61336 12.54C5.62002 12.52 5.63336 12.5067 5.64002 12.4867C5.66669 12.4667 5.66669 12.4334 5.66669 12.4134C5.72669 12.3334 5.77336 12.26 5.82669 12.18C5.93336 12.04 6.02002 11.88 6.08669 11.72C6.09325 11.6637 6.0864 11.6066 6.06669 11.5534L6.11336 11.4334C5.33259 10.9694 4.74729 10.2372 4.46669 9.37336L4.33336 9.39336C4.29015 9.35719 4.23631 9.33612 4.18002 9.33336C4.00002 9.36669 3.84002 9.42002 3.66669 9.48002C3.59336 9.52002 3.50669 9.55336 3.42002 9.58002C3.40002 9.58669 3.37336 9.59335 3.33336 9.60002C3.26172 9.62193 3.1844 9.61546 3.11739 9.58196C3.05038 9.54845 2.99882 9.49048 2.97336 9.42002C2.92669 9.26669 3.00002 9.10669 3.16002 9.05336C3.17336 9.05336 3.19336 9.04669 3.21336 9.04669V9.04002H3.22002L3.29336 9.02669C3.38669 9.00002 3.48002 9.00002 3.56669 9.00002C3.74002 9.00002 3.91336 8.96002 4.08002 8.92002C4.13336 8.88669 4.17336 8.84669 4.20669 8.79335L4.33336 8.76002C4.19336 7.85336 4.40002 6.94002 4.90669 6.18002L4.81336 6.10002C4.81336 6.04002 4.79336 5.98002 4.76002 5.93336C4.62669 5.82002 4.48669 5.72002 4.33336 5.63336C4.25336 5.59336 4.17336 5.54669 4.09336 5.49336C4.08002 5.48002 4.05336 5.46002 4.04002 5.44669L4.03336 5.44002C3.90002 5.33336 3.86669 5.16002 3.96002 5.02002C4.02002 4.95336 4.10002 4.92002 4.19336 4.92002C4.26669 4.92669 4.33336 4.95336 4.39336 5.00002L4.45336 5.04669C4.52002 5.10669 4.58002 5.18002 4.64002 5.24669C4.76002 5.37336 4.88669 5.49336 5.02669 5.59336C5.08002 5.62002 5.14002 5.62669 5.20002 5.61336L5.30002 5.68669C5.80002 5.15336 6.45336 4.78002 7.16669 4.62002C7.33336 4.58002 7.51336 4.55336 7.68669 4.54002L7.69336 4.42002C7.73939 4.37963 7.77196 4.32613 7.78669 4.26669C7.79336 4.09336 7.78002 3.92002 7.75336 3.75336C7.73336 3.66669 7.72002 3.57336 7.71336 3.48002V3.40002C7.70002 3.24002 7.81336 3.10002 7.97336 3.08002C8.13336 3.06002 8.26669 3.18002 8.28669 3.33336V3.48002C8.28002 3.57336 8.26669 3.66669 8.24669 3.75336C8.22002 3.92002 8.20669 4.09336 8.21336 4.26669C8.22669 4.33336 8.26002 4.38002 8.30669 4.41336L8.31336 4.54002C9.22002 4.62002 10.06 5.02669 10.6867 5.68669L10.7934 5.60669C10.8534 5.62002 10.9134 5.61336 10.9667 5.58669C11.1067 5.48669 11.24 5.36669 11.3534 5.24002C11.4134 5.17336 11.4734 5.10669 11.54 5.04002C11.56 5.02669 11.5867 5.00002 11.6067 5.00002C11.72 4.88002 11.9 4.88002 12 5.00002C12.1267 5.10669 12.12 5.28669 12 5.40002C12 5.41336 11.98 5.42669 11.96 5.44002C11.869 5.51232 11.7707 5.57488 11.6667 5.62669C11.5134 5.71336 11.3667 5.81336 11.24 5.92669C11.2 5.97336 11.18 6.02669 11.1867 6.08669L11.08 6.18002C11.5918 6.93367 11.8013 7.85234 11.6667 8.75336L11.7934 8.78669C11.82 8.84002 11.8667 8.88002 11.92 8.90669C12.0867 8.95335 12.26 8.98002 12.4334 9.00002H12.7067C12.7267 9.02002 12.76 9.02669 12.7867 9.03336C12.9467 9.05336 13.0534 9.20002 13.0334 9.36002C13 9.51336 12.8734 9.62669 12.7134 9.60669C12.6934 9.60002 12.6667 9.60002 12.6667 9.59336V9.58669C12.6267 9.58669 12.6 9.58002 12.5734 9.57335C12.4867 9.54669 12.4067 9.51336 12.3334 9.47336C12.16 9.40669 12 9.36002 11.82 9.33336C11.76 9.33336 11.7067 9.33336 11.6667 9.38669C11.62 9.38002 11.58 9.37336 11.54 9.36669C11.2667 10.24 10.6667 10.9734 9.89336 11.44Z" fill="#57687C"/>
</svg>
