<svg width="16" height="16" viewBox="0 0 16 16" fill="none" xmlns="http://www.w3.org/2000/svg">
<g clip-path="url(#clip0_16_20)">
<path d="M12.25 0H3.75C1.67893 0 0 1.67893 0 3.75V12.25C0 14.3211 1.67893 16 3.75 16H12.25C14.3211 16 16 14.3211 16 12.25V3.75C16 1.67893 14.3211 0 12.25 0Z" fill="#57687C"/>
<mask id="mask0_16_20" style="mask-type:luminance" maskUnits="userSpaceOnUse" x="2" y="2" width="12" height="12">
<path d="M2.375 2.375H13.625V13.625H2.375V2.375Z" fill="white"/>
</mask>
<g mask="url(#mask0_16_20)">
<path fill-rule="evenodd" clip-rule="evenodd" d="M12.7376 11.1381C12.1257 11.1211 11.651 11.1838 11.2532 11.3512C11.1386 11.3972 10.9548 11.3972 10.9397 11.5414C11.0009 11.6019 11.0083 11.7009 11.062 11.7848C11.1537 11.9369 11.3146 12.1419 11.4598 12.2483L11.9494 12.5982C12.2478 12.7805 12.5844 12.8871 12.8751 13.0696C13.0435 13.1761 13.2117 13.3129 13.3801 13.4271C13.4659 13.4879 13.5178 13.587 13.625 13.6248V13.6018C13.5715 13.5336 13.5561 13.4348 13.5027 13.3584L13.2729 13.1381C13.0512 12.8416 12.7756 12.5828 12.4772 12.3701C12.2324 12.2028 11.697 11.9748 11.5975 11.6936L11.5824 11.6765C11.7505 11.6595 11.9494 11.6003 12.1102 11.5547C12.3706 11.4865 12.6076 11.5015 12.8751 11.4331L13.2426 11.3266V11.2584C13.1049 11.1216 13.0054 10.9391 12.8602 10.8099C12.4701 10.4754 12.0413 10.1483 11.5975 9.87463C11.3604 9.72263 11.0542 9.62357 10.8018 9.49457C10.7097 9.44888 10.5569 9.42607 10.5034 9.35007C10.3654 9.18307 10.2891 8.96232 10.1896 8.76451L9.56231 7.44151C9.42462 7.14495 9.34024 6.84838 9.17218 6.5747C8.38399 5.28201 7.52693 4.49895 6.21093 3.73082C5.92799 3.57113 5.59137 3.50245 5.23343 3.41895L4.65968 3.38832C4.53706 3.33513 4.41474 3.19057 4.30762 3.12207C3.87149 2.84832 2.74674 2.25532 2.42512 3.03688C2.21856 3.53107 2.73131 4.01763 2.90537 4.2687C3.03568 4.44357 3.20374 4.6412 3.29581 4.83895C3.34724 4.96813 3.36443 5.10513 3.41812 5.24201C3.54037 5.57651 3.65524 5.94926 3.81593 6.26113C3.90168 6.42082 3.99174 6.58832 4.09887 6.7327C4.16012 6.81788 4.26731 6.85438 4.29012 6.9912C4.18293 7.14338 4.17556 7.37126 4.11431 7.56163C3.83874 8.42088 3.94593 9.48538 4.33606 10.118C4.45868 10.308 4.74762 10.7264 5.13968 10.5666C5.48399 10.4297 5.40718 9.99632 5.50662 9.61607C5.52974 9.52495 5.51437 9.46407 5.56012 9.40307V9.42013L5.87393 10.0512C6.11112 10.4238 6.52443 10.8116 6.86856 11.0703C7.05206 11.2072 7.19749 11.4431 7.42693 11.5266V11.5036H7.41187C7.36587 11.4354 7.29693 11.4047 7.23574 11.3515C7.09806 11.2147 6.94506 11.0473 6.83787 10.8953C6.51668 10.4696 6.23374 9.99801 5.98112 9.51145C5.85856 9.27576 5.75137 9.0172 5.65224 8.78151C5.60593 8.6902 5.60593 8.55313 5.52962 8.50782C5.41468 8.67482 5.24668 8.8197 5.16212 9.02488C5.01668 9.35176 5.00162 9.75482 4.94812 10.1731C4.91724 10.1807 4.93093 10.1731 4.91724 10.1901C4.67268 10.1294 4.58831 9.8782 4.49662 9.66551C4.26712 9.12563 4.22868 8.25882 4.42762 7.63526C4.48112 7.47557 4.71093 6.9737 4.61918 6.82163C4.57293 6.67713 4.42024 6.59363 4.33587 6.47945C4.23643 6.33495 4.12962 6.15257 4.06068 5.99288C3.87718 5.56682 3.78543 5.09557 3.58631 4.66976C3.49424 4.47201 3.33374 4.26663 3.20356 4.08432C3.05812 3.87895 2.89781 3.73438 2.78293 3.4912C2.74468 3.40601 2.69118 3.2707 2.75237 3.17932C2.76749 3.11851 2.79831 3.09413 2.85924 3.08051C2.95862 2.99526 3.24199 3.10332 3.34143 3.14863C3.62437 3.26282 3.86156 3.3692 4.09874 3.5287C4.20593 3.6047 4.32081 3.74926 4.45849 3.78745H4.61937C4.86424 3.84057 5.13949 3.80445 5.36874 3.87263C5.77437 4.00213 6.14149 4.19201 6.47074 4.39751C7.47293 5.02863 8.29949 5.92588 8.85781 6.9982C8.94956 7.17307 8.98781 7.33276 9.07218 7.51526C9.23306 7.88801 9.43199 8.26807 9.59231 8.63326C9.75318 8.99063 9.90612 9.35588 10.1356 9.65238C10.2505 9.81207 10.7094 9.89557 10.9159 9.97926C11.069 10.0474 11.306 10.1088 11.4441 10.1923C11.704 10.352 11.9642 10.5345 12.2089 10.7094C12.3311 10.8004 12.7139 10.9906 12.7367 11.1423L12.7376 11.1381ZM4.93487 4.53045C4.82919 4.52952 4.72383 4.54229 4.62143 4.56845V4.58551H4.63649C4.69774 4.7072 4.80493 4.79088 4.88137 4.89738L5.05749 5.26238L5.07262 5.24538C5.17974 5.16938 5.23343 5.0477 5.23343 4.86538C5.18749 4.8122 5.17993 4.75882 5.14168 4.70563C5.09574 4.62963 4.99631 4.59145 4.93487 4.53082V4.53045Z" fill="white"/>
</g>
</g>
<defs>
<clipPath id="clip0_16_20">
<rect width="16" height="16" fill="white"/>
</clipPath>
</defs>
</svg>
