<svg width="16" height="16" viewBox="0 0 16 16" fill="none" xmlns="http://www.w3.org/2000/svg">
<g clip-path="url(#clip0_13_15)">
<path fill-rule="evenodd" clip-rule="evenodd" d="M11.6667 1.64935C12.6814 2.23469 12.8894 3.52935 12.72 4.82669C12.7 4.98735 12.6727 5.15269 12.6394 5.32135C12.802 5.37735 12.9594 5.43669 13.108 5.49869C14.316 6.00135 15.3334 6.82869 15.3334 8.00002C15.3334 9.17135 14.316 9.99869 13.108 10.5014C12.9587 10.5634 12.802 10.6227 12.6394 10.6787C12.6727 10.8474 12.6994 11.012 12.72 11.1734C12.8894 12.4707 12.6814 13.7654 11.6667 14.3507C10.6527 14.9367 9.42669 14.4694 8.38802 13.6747C8.25534 13.5728 8.12594 13.4668 8.00002 13.3567C7.87002 13.47 7.74069 13.576 7.61202 13.6747C6.57335 14.4694 5.34802 14.9367 4.33335 14.3507C3.31935 13.7654 3.11135 12.4707 3.28002 11.1734C3.30187 11.0076 3.32899 10.8427 3.36135 10.6787C3.19802 10.6227 3.04135 10.5634 2.89202 10.5014C1.68402 9.99869 0.666687 9.17135 0.666687 8.00002C0.666687 6.82869 1.68402 6.00135 2.89202 5.49869C3.04135 5.43669 3.19869 5.37735 3.36135 5.32135C3.32802 5.15269 3.30135 4.98802 3.28002 4.82669C3.11135 3.52935 3.31935 2.23469 4.33335 1.64935C5.34802 1.06335 6.57335 1.53069 7.61202 2.32535C7.74069 2.42402 7.87002 2.53002 8.00002 2.64335C8.13002 2.53002 8.26002 2.42402 8.38802 2.32602C9.42735 1.53069 10.652 1.06335 11.6667 1.64935ZM4.65335 11.0247C4.63335 11.1347 4.61669 11.242 4.60269 11.3454C4.44735 12.5407 4.74002 13.0454 5.00069 13.196C5.26202 13.3467 5.84535 13.348 6.80269 12.616C6.88865 12.55 6.9729 12.4817 7.05535 12.4114C6.72652 12.0386 6.417 11.6492 6.12802 11.2447C5.63303 11.1966 5.14083 11.1232 4.65335 11.0247ZM11.3487 11.0247C10.8887 11.118 10.3967 11.1927 9.87402 11.2447C9.56735 11.6714 9.25735 12.0607 8.94669 12.4114C9.03135 12.484 9.11602 12.5514 9.19869 12.6154C10.156 13.348 10.74 13.3467 11.0007 13.196C11.262 13.0454 11.554 12.5407 11.3987 11.3454C11.3847 11.2381 11.3681 11.1311 11.3487 11.0247ZM3.70669 6.61335C3.60485 6.64973 3.50393 6.68863 3.40402 6.73002C2.29069 7.19269 2.00002 7.69869 2.00002 8.00002C2.00002 8.30135 2.29135 8.80735 3.40402 9.27002C3.50069 9.31002 3.60202 9.34935 3.70669 9.38669C3.86531 8.91541 4.048 8.45258 4.25402 8.00002C4.04823 7.54744 3.86511 7.08461 3.70669 6.61335ZM12.2934 6.61335C12.1349 7.08461 11.9525 7.54744 11.7467 8.00002C11.9627 8.47802 12.1454 8.94202 12.2934 9.38669C12.3952 9.35036 12.4961 9.31146 12.596 9.27002C13.7094 8.80735 14 8.30135 14 8.00002C14 7.69869 13.7094 7.19335 12.596 6.73002C12.4961 6.68856 12.3952 6.64965 12.2934 6.61335ZM8.00002 7.00002C7.7348 7.00002 7.48045 7.10538 7.29291 7.29291C7.10538 7.48045 7.00002 7.7348 7.00002 8.00002C7.00002 8.26524 7.10538 8.51959 7.29291 8.70713C7.48045 8.89466 7.7348 9.00002 8.00002 9.00002C8.26524 9.00002 8.51959 8.89466 8.70713 8.70713C8.89466 8.51959 9.00002 8.26524 9.00002 8.00002C9.00002 7.7348 8.89466 7.48045 8.70713 7.29291C8.51959 7.10538 8.26524 7.00002 8.00002 7.00002ZM6.80202 3.38469C5.84469 2.65202 5.26135 2.65335 5.00002 2.80402C4.73935 2.95469 4.44669 3.45935 4.60202 4.65469C4.61535 4.75869 4.63269 4.86535 4.65269 4.97535C5.11202 4.88202 5.60469 4.80735 6.12735 4.75535C6.41626 4.35082 6.72578 3.96142 7.05469 3.58869C6.9722 3.51856 6.88795 3.45054 6.80202 3.38469ZM9.19869 3.38469C9.11252 3.45052 9.02805 3.51854 8.94535 3.58869C9.25669 3.93935 9.56735 4.32935 9.87335 4.75535C10.3954 4.80735 10.8887 4.88202 11.348 4.97535C11.3674 4.86913 11.3841 4.76242 11.398 4.65535C11.554 3.46002 11.2614 2.95469 11 2.80402C10.7394 2.65335 10.1554 2.65269 9.19802 3.38469H9.19869Z" fill="#57687C"/>
</g>
<defs>
<clipPath id="clip0_13_15">
<rect width="16" height="16" fill="white"/>
</clipPath>
</defs>
</svg>
