<svg width="49" height="48" viewBox="0 0 49 48" fill="none" xmlns="http://www.w3.org/2000/svg">
<path d="M23.9944 1.87096C17.241 1.90499 10.5891 5.01477 6.25878 10.8681C-0.287785 19.7172 0.715809 31.8044 8.11971 39.4612L4.62865 44.1799L18.8055 42.0599L16.6853 27.8831L12.6412 33.3495C8.50868 28.2512 8.16715 20.8202 12.2512 15.2998C15.1271 11.4124 19.5508 9.3463 24.041 9.32296C25.5885 9.31481 27.1276 9.55106 28.6015 10.023L27.9487 5.65892C25.7548 5.21191 23.4965 5.18021 21.2908 5.56546C15.7378 6.25189 10.6039 9.30777 7.40112 14.1169C10.7433 7.93967 17.1299 4.18705 23.9052 4.01586C25.4685 3.97666 27.0307 4.12904 28.557 4.46961L33.114 3.78824C30.1947 2.48455 27.084 1.85511 23.9946 1.87077L23.9944 1.87096ZM43.9566 3.93861L29.78 6.0583L31.9001 20.2352L35.7556 15.0238C39.7122 20.1135 39.983 27.4033 35.9607 32.8403C32.19 37.9372 25.7588 39.9016 20.0053 38.2371L20.6168 42.3245C23.2978 42.8404 26.0608 42.742 28.6983 42.0366C32.2091 41.4782 35.5739 39.9695 38.3696 37.5621C33.7574 42.6856 26.8744 44.8291 20.3936 43.594L15.1623 44.3763C24.4464 48.4731 35.6375 45.761 41.9289 37.2571C48.4098 28.4966 47.492 16.5624 40.2898 8.89489L43.9568 3.93871L43.9566 3.93861Z" fill="#57687C"/>
</svg>
