<svg width="16" height="16" viewBox="0 0 16 16" fill="none" xmlns="http://www.w3.org/2000/svg">
<path d="M3.61533 2.02533C2.75933 2.02533 2.12667 2.77466 2.15533 3.58666C2.182 4.36733 2.14667 5.378 1.892 6.20266C1.63667 7.02933 1.20533 7.55333 0.5 7.62066V8.37933C1.20533 8.44666 1.63667 8.97066 1.892 9.79733C2.14667 10.6213 2.182 11.6327 2.15467 12.4127C2.12667 13.2253 2.75933 13.9747 3.616 13.9747H12.3853C13.2413 13.9747 13.8747 13.2253 13.8467 12.4127C13.8193 11.6327 13.8547 10.6213 14.1087 9.79733C14.3647 8.97066 14.7953 8.44666 15.5 8.37933V7.62066C14.7947 7.55333 14.3647 7.02933 14.1087 6.20266C13.8547 5.37866 13.8193 4.36733 13.8467 3.58666C13.8747 2.77466 13.2413 2.02533 12.3853 2.02533H3.61533ZM10.6693 9.38066C10.6693 10.4993 9.83533 11.178 8.45067 11.178H6.09333C6.05992 11.1781 6.02682 11.1716 5.99593 11.1589C5.96503 11.1461 5.93695 11.1274 5.9133 11.1038C5.88964 11.0802 5.87087 11.0522 5.85806 11.0214C5.84526 10.9905 5.83867 10.9574 5.83867 10.924V5.076C5.83867 5.04258 5.84526 5.0095 5.85806 4.97864C5.87087 4.94778 5.88964 4.91975 5.9133 4.89616C5.93695 4.87256 5.96503 4.85386 5.99593 4.84114C6.02682 4.82841 6.05992 4.82191 6.09333 4.822H8.43667C9.59133 4.822 10.3493 5.44733 10.3493 6.408C10.3493 7.08133 9.83933 7.68533 9.19 7.79066V7.826C10.074 7.92266 10.6693 8.53533 10.6693 9.38066ZM8.19333 5.62733H6.84933V7.526H7.98133C8.85667 7.526 9.33867 7.174 9.33867 6.544C9.33867 5.954 8.924 5.628 8.19333 5.628V5.62733ZM6.84933 8.27933V10.372H8.24267C9.154 10.372 9.636 10.006 9.636 9.31866C9.636 8.632 9.14067 8.27933 8.184 8.27933H6.84933Z" fill="#57687C"/>
</svg>
