<svg width="16" height="16" viewBox="0 0 16 16" fill="none" xmlns="http://www.w3.org/2000/svg">
<g clip-path="url(#clip0_16_30)">
<path d="M7.644 0C8.23067 0.948667 7.45733 2.204 6.83933 2.90533C6.24 3.58533 5.51133 4.154 4.84933 4.772C4.13867 5.436 3.45533 6.13467 2.87133 6.914C1.70267 8.47333 0.986667 10.434 1.51267 12.38C2.038 14.324 3.722 15.5613 5.624 15.9993C4.664 15.5847 3.76667 14.5307 3.764 13.4527C3.762 12.276 4.50733 11.278 5.434 10.622C5.32267 11.0433 5.262 11.4287 5.53733 11.8047C5.6651 11.9767 5.83955 12.1085 6.03996 12.1843C6.24037 12.2602 6.45834 12.277 6.668 12.2327C7.65933 12.0153 7.70533 10.926 7.11733 10.29C6.536 9.66133 5.974 8.95067 6.19467 8.03867C6.306 7.582 6.58667 7.15333 6.942 6.84733C6.66867 7.566 7.44533 8.274 7.95733 8.62733C8.84533 9.23933 9.81933 9.702 10.6353 10.4193C11.494 11.174 12.1287 12.1933 12 13.376C11.8613 14.658 10.8427 15.5493 9.7 16C12.1147 15.4667 14.61 13.5933 14.66 10.9153C14.722 8.894 13.3913 7.104 11.2213 5.99267C11.348 6.31267 11.2707 6.45733 11.1827 6.60867C10.816 7.238 9.79467 7.37667 9.29267 6.73133C8.48933 5.69933 9.30933 4.58733 9.424 3.49467C9.56733 2.12467 8.70867 0.795333 7.644 0Z" fill="#57687C"/>
</g>
<defs>
<clipPath id="clip0_16_30">
<rect width="16" height="16" fill="white"/>
</clipPath>
</defs>
</svg>
