<svg width="16" height="16" viewBox="0 0 16 16" fill="none" xmlns="http://www.w3.org/2000/svg">
<g clip-path="url(#clip0_18_12)">
<path d="M5.00134 0H6.72001V0.718667H5.72001V1.43733H6.72001V2.156H5.00134V0ZM7.06334 0H8.78268V0.625333H7.78268V0.75H8.78268V2.18733H7.06334V1.53133H8.06334V1.406H7.06334V0ZM9.12668 0H10.8447V0.625333H9.84468V0.75H10.8447V2.18733H9.12668V1.53133H10.1267V1.406H9.12668V0Z" fill="#57687C"/>
<path fill-rule="evenodd" clip-rule="evenodd" d="M7.994 16L3.36467 14.7147L2 3.14465H14L12.636 14.7133L7.994 16ZM4.698 8.38199L4.82533 9.80065H9.74333L9.57867 11.6407L7.996 12.0687H7.99467L6.41467 11.642L6.31333 10.5107H4.88867L5.08733 12.7387L7.994 13.5453L10.9053 12.7387L11.26 8.76265L11.2947 8.38199L11.5507 5.50932H4.44267L4.572 6.92865H9.996L9.86667 8.38199H4.698Z" fill="#57687C"/>
</g>
<defs>
<clipPath id="clip0_18_12">
<rect width="16" height="16" fill="white"/>
</clipPath>
</defs>
</svg>
