<svg width="48" height="48" viewBox="0 0 48 48" fill="none" xmlns="http://www.w3.org/2000/svg">
<path fill-rule="evenodd" clip-rule="evenodd" d="M27.675 19.05H31.9125V23.3625H34.05C35.025 23.3625 36.0375 23.175 36.975 22.875C37.425 22.725 37.95 22.5 38.4 22.2375C37.8 21.45 37.5 20.475 37.425 19.5C37.3125 18.1875 37.575 16.4625 38.475 15.45L38.925 14.925L39.45 15.3375C40.8 16.425 41.8875 17.8875 42.1125 19.6125C43.725 19.125 45.6 19.2375 47.025 20.0625L47.5875 20.4L47.2875 21C46.0875 23.325 43.575 24.075 41.1375 23.925C37.4625 33.0375 29.5125 37.35 19.8375 37.35C14.85 37.35 10.275 35.475 7.65 31.05L7.6125 30.975L7.2375 30.1875C6.3375 28.2375 6.075 26.1 6.2625 23.9625L6.3375 23.325H9.9375V19.05H14.175V14.85H22.6125V10.6125H27.675V19.05Z" fill="#3A4D54"/>
<path d="M41.4 20.6625C41.7 18.45 40.05 16.725 39 15.9C37.8375 17.25 37.65 20.85 39.4875 22.35C38.4375 23.25 36.3 24.1125 34.05 24.1125H6.975C6.75 26.4375 7.1625 28.575 8.1 30.4125L8.4 30.975C8.5875 31.3125 8.8125 31.6125 9.0375 31.95C10.1625 32.025 11.175 32.0625 12.1125 32.025C13.95 31.9875 15.45 31.7625 16.6125 31.3875C16.8 31.3125 16.95 31.425 17.025 31.575C17.1 31.7625 16.9875 31.9125 16.8375 31.9875C16.6875 32.025 16.5375 32.1 16.35 32.1375C15.45 32.4 14.475 32.55 13.2375 32.625H13.0125C12.525 32.6625 12 32.6625 11.4375 32.6625C10.8375 32.6625 10.275 32.6625 9.6 32.625C11.85 35.175 15.375 36.675 19.8 36.675C29.175 36.675 37.125 32.5125 40.6125 23.2125C43.125 23.475 45.525 22.8375 46.6125 20.7C44.925 19.6875 42.675 20.025 41.4 20.6625Z" fill="#00AADA"/>
<path d="M41.4 20.6625C41.7 18.45 40.05 16.725 39 15.9C37.8375 17.25 37.65 20.85 39.4875 22.35C38.4375 23.25 36.3 24.1125 34.05 24.1125H8.55C8.4375 27.675 9.75 30.375 12.1125 31.9875C13.95 31.95 15.45 31.725 16.6125 31.35C16.8 31.275 16.95 31.3875 17.025 31.5375C17.1 31.725 16.9875 31.875 16.8375 31.95C16.6875 31.9875 16.5375 32.0625 16.35 32.1C15.45 32.3625 14.4 32.55 13.1625 32.625L13.125 32.5875C16.3125 34.2375 20.925 34.2 26.25 32.175C32.175 29.8875 37.725 25.5375 41.5875 20.5875C41.5125 20.625 41.4375 20.625 41.4 20.6625Z" fill="#28B8EB"/>
<path d="M7.0125 26.925C7.1625 28.1625 7.5375 29.325 8.1 30.4125L8.4 30.975C8.5875 31.3125 8.8125 31.6125 9.0375 31.95C10.1625 32.025 11.175 32.0625 12.1125 32.025C13.95 31.9875 15.45 31.7625 16.6125 31.3875C16.8 31.3125 16.95 31.425 17.025 31.575C17.1 31.7625 16.9875 31.9125 16.8375 31.9875C16.6875 32.025 16.5375 32.1 16.35 32.1375C15.45 32.4 14.4 32.5875 13.1625 32.6625H13.0125C12.525 32.7 12 32.7 11.475 32.7C10.875 32.7 10.275 32.7 9.6375 32.6625C11.8875 35.2125 15.45 36.7125 19.875 36.7125C27.9 36.7125 34.875 33.675 38.925 26.9625H7.0125V26.925Z" fill="#028BB8"/>
<path d="M8.8125 26.925C9.3 29.1 10.425 30.825 12.1125 31.9875C13.95 31.95 15.45 31.725 16.6125 31.35C16.8 31.275 16.95 31.3875 17.025 31.5375C17.1 31.725 16.9875 31.875 16.8375 31.95C16.6875 31.9875 16.5375 32.0625 16.35 32.1C15.45 32.3625 14.4 32.55 13.125 32.625C16.3125 34.275 20.925 34.2375 26.2125 32.2125C29.4 30.975 32.5125 29.1375 35.2875 26.925H8.8125Z" fill="#019BC6"/>
<path fill-rule="evenodd" clip-rule="evenodd" d="M10.65 19.7625H14.325V23.4375H10.65V19.7625ZM10.95 20.0625H11.25V23.1H10.95V20.0625ZM11.475 20.0625H11.775V23.1H11.475V20.0625ZM12.0375 20.0625H12.3375V23.1H12.0375V20.0625ZM12.6 20.0625H12.9V23.1H12.6V20.0625ZM13.1625 20.0625H13.4625V23.1H13.1625V20.0625ZM13.725 20.0625H14.025V23.1H13.725V20.0625ZM14.85 15.5625H18.525V19.2375H14.85V15.5625ZM15.1875 15.8625H15.4875V18.9H15.1875V15.8625ZM15.7125 15.8625H16.0125V18.9H15.7125V15.8625ZM16.275 15.8625H16.575V18.9H16.275V15.8625ZM16.8375 15.8625H17.1375V18.9H16.8375V15.8625ZM17.3625 15.8625H17.6625V18.9H17.3625V15.8625ZM17.925 15.8625H18.225V18.9H17.925V15.8625Z" fill="#00ACD3"/>
<path fill-rule="evenodd" clip-rule="evenodd" d="M14.85 19.7625H18.525V23.4375H14.85V19.7625ZM15.1875 20.0625H15.4875V23.1H15.1875V20.0625ZM15.7125 20.0625H16.0125V23.1H15.7125V20.0625ZM16.275 20.0625H16.575V23.1H16.275V20.0625ZM16.8375 20.0625H17.1375V23.1H16.8375V20.0625ZM17.3625 20.0625H17.6625V23.1H17.3625V20.0625ZM17.925 20.0625H18.225V23.1H17.925V20.0625Z" fill="#23C2EE"/>
<path fill-rule="evenodd" clip-rule="evenodd" d="M19.0875 19.7625H22.7625V23.4375H19.0875V19.7625ZM19.3875 20.0625H19.6875V23.1H19.3875V20.0625ZM19.95 20.0625H20.25V23.1H19.95V20.0625ZM20.5125 20.0625H20.8125V23.1H20.5125V20.0625ZM21.0375 20.0625H21.3375V23.1H21.0375V20.0625ZM21.6 20.0625H21.9V23.1H21.6V20.0625ZM22.1625 20.0625H22.4625V23.1H22.1625V20.0625Z" fill="#00ACD3"/>
<path fill-rule="evenodd" clip-rule="evenodd" d="M19.0875 15.5625H22.7625V19.2375H19.0875V15.5625ZM19.3875 15.8625H19.6875V18.9H19.3875V15.8625ZM19.95 15.8625H20.25V18.9H19.95V15.8625ZM20.5125 15.8625H20.8125V18.9H20.5125V15.8625ZM21.0375 15.8625H21.3375V18.9H21.0375V15.8625ZM21.6 15.8625H21.9V18.9H21.6V15.8625ZM22.1625 15.8625H22.4625V18.9H22.1625V15.8625ZM23.325 19.7625H27V23.4375H23.325V19.7625ZM23.625 20.0625H23.925V23.1H23.625V20.0625ZM24.1875 20.0625H24.4875V23.1H24.1875V20.0625ZM24.7125 20.0625H25.0125V23.1H24.7125V20.0625ZM25.275 20.0625H25.575V23.1H25.275V20.0625ZM25.8375 20.0625H26.1375V23.1H25.8375V20.0625ZM26.4 20.0625H26.7V23.1H26.4V20.0625Z" fill="#23C2EE"/>
<path fill-rule="evenodd" clip-rule="evenodd" d="M23.325 15.5625H27V19.2375H23.325V15.5625ZM23.625 15.8625H23.925V18.9H23.625V15.8625ZM24.1875 15.8625H24.4875V18.9H24.1875V15.8625ZM24.7125 15.8625H25.0125V18.9H24.7125V15.8625ZM25.275 15.8625H25.575V18.9H25.275V15.8625ZM25.8375 15.8625H26.1375V18.9H25.8375V15.8625ZM26.4 15.8625H26.7V18.9H26.4V15.8625Z" fill="#00ACD3"/>
<path fill-rule="evenodd" clip-rule="evenodd" d="M23.325 11.325H27V15H23.325V11.325ZM23.625 11.625H23.925V14.6625H23.625V11.625ZM24.1875 11.625H24.4875V14.6625H24.1875V11.625ZM24.7125 11.625H25.0125V14.6625H24.7125V11.625ZM25.275 11.625H25.575V14.6625H25.275V11.625ZM25.8375 11.625H26.1375V14.6625H25.8375V11.625ZM26.4 11.625H26.7V14.6625H26.4V11.625Z" fill="#23C2EE"/>
<path fill-rule="evenodd" clip-rule="evenodd" d="M27.5625 19.7625H31.2375V23.4375H27.5625V19.7625ZM27.8625 20.0625H28.1625V23.1H27.8625V20.0625ZM28.3875 20.0625H28.6875V23.1H28.3875V20.0625ZM28.95 20.0625H29.25V23.1H28.95V20.0625ZM29.5125 20.0625H29.8125V23.1H29.5125V20.0625ZM30.075 20.0625H30.375V23.1H30.075V20.0625ZM30.6375 20.0625H30.9375V23.1H30.6375V20.0625Z" fill="#00ACD3"/>
<path fill-rule="evenodd" clip-rule="evenodd" d="M18.3 29.3625C18.8625 29.3625 19.3125 29.8125 19.3125 30.375C19.3125 30.9375 18.8625 31.3875 18.3 31.3875C17.7375 31.3875 17.2875 30.9375 17.2875 30.375C17.2875 29.8125 17.7375 29.3625 18.3 29.3625Z" fill="#D4EEF1"/>
<path fill-rule="evenodd" clip-rule="evenodd" d="M18.3 29.6625C18.375 29.6625 18.4875 29.6625 18.5625 29.7C18.4875 29.7375 18.4125 29.85 18.4125 29.9625C18.4125 30.1125 18.5625 30.2625 18.7125 30.2625C18.825 30.2625 18.9375 30.1875 18.975 30.1125C19.0125 30.1875 19.0125 30.3 19.0125 30.375C19.0125 30.7875 18.675 31.0875 18.3 31.0875C17.8875 31.0875 17.5875 30.75 17.5875 30.375C17.5875 30 17.8875 29.6625 18.3 29.6625ZM0.412498 27.3H47.4375C46.425 27.0375 44.2125 26.7 44.55 25.35C42.675 27.4875 38.2125 26.85 37.05 25.8C35.775 27.6375 28.425 26.925 27.9375 25.5C26.3625 27.375 21.45 27.375 19.875 25.5C19.35 26.925 12 27.6375 10.7625 25.8C9.6375 26.85 5.1375 27.4875 3.2625 25.35C3.675 26.6625 1.425 27.0375 0.412498 27.3Z" fill="#3A4D54"/>
<path d="M21 36.675C18.4875 35.475 17.1375 33.8625 16.35 32.1C15.4125 32.3625 14.2875 32.55 13.0125 32.625C12.525 32.6625 12 32.6625 11.475 32.6625C10.8375 32.6625 10.2 32.6625 9.525 32.625C11.775 34.875 14.625 36.6375 19.8375 36.675H21Z" fill="#BFDBE0"/>
<path d="M17.2875 33.7125C16.95 33.225 16.6125 32.6625 16.35 32.1C15.4125 32.3625 14.2875 32.55 13.0125 32.625C13.875 33.075 15.15 33.525 17.2875 33.7125Z" fill="#D4EEF1"/>
</svg>
