<svg width="16" height="16" viewBox="0 0 16 16" fill="none" xmlns="http://www.w3.org/2000/svg">
<path d="M14.54 6.8333C14.5 6.80664 14.1667 6.54664 13.4467 6.54664C13.26 6.54664 13.0733 6.56664 12.8867 6.59997C12.7467 5.66664 11.9667 5.1933 11.9333 5.1733L11.74 5.05997L11.62 5.23997C11.46 5.47997 11.3333 5.7533 11.28 6.0333C11.1467 6.56664 11.2267 7.0733 11.5 7.50664C11.1733 7.6933 10.64 7.73997 10.5267 7.73997H1.74668C1.52001 7.73997 1.33334 7.92664 1.33334 8.15997C1.33334 8.92664 1.45334 9.6933 1.72001 10.4133C2.02001 11.2066 2.47334 11.7933 3.05334 12.1533C3.70668 12.5533 4.78001 12.78 6.00001 12.78C6.52668 12.78 7.07334 12.7333 7.61334 12.6333C8.36001 12.5 9.08001 12.24 9.74001 11.86C10.2866 11.5474 10.7759 11.1438 11.1867 10.6666C11.8867 9.88664 12.3 8.99997 12.6 8.2333H12.7267C13.4867 8.2333 13.96 7.92664 14.22 7.66664C14.3933 7.50664 14.52 7.3133 14.6133 7.08664L14.6667 6.92664L14.54 6.8333ZM2.56668 7.4933H3.74001C3.79334 7.4933 3.84668 7.44664 3.84668 7.38664V6.3333C3.84668 6.27997 3.80001 6.22664 3.74001 6.22664H2.56668C2.50668 6.22664 2.46001 6.2733 2.46001 6.3333V7.38664C2.46668 7.44664 2.50668 7.4933 2.56668 7.4933ZM4.18668 7.4933H5.36001C5.41334 7.4933 5.46668 7.44664 5.46668 7.38664V6.3333C5.46668 6.27997 5.42001 6.22664 5.36001 6.22664H4.18668C4.12668 6.22664 4.08001 6.2733 4.08001 6.3333V7.38664C4.08668 7.44664 4.12668 7.4933 4.18668 7.4933ZM5.83334 7.4933H7.00001C7.06668 7.4933 7.11334 7.44664 7.11334 7.38664V6.3333C7.11334 6.27997 7.07334 6.22664 7.00001 6.22664H5.83334C5.78001 6.22664 5.73334 6.2733 5.73334 6.3333V7.38664C5.73334 7.44664 5.77334 7.4933 5.83334 7.4933ZM7.46001 7.4933H8.64001C8.69334 7.4933 8.74001 7.44664 8.74001 7.38664V6.3333C8.74001 6.27997 8.70001 6.22664 8.64001 6.22664H7.46001C7.40668 6.22664 7.36001 6.2733 7.36001 6.3333V7.38664C7.36001 7.44664 7.40668 7.4933 7.46001 7.4933ZM4.18668 5.99997H5.36001C5.41334 5.99997 5.46668 5.93997 5.46668 5.87997V4.8333C5.46668 4.7733 5.42001 4.72664 5.36001 4.72664H4.18668C4.12668 4.72664 4.08001 4.76664 4.08001 4.8333V5.87997C4.08668 5.93997 4.12668 5.99997 4.18668 5.99997ZM5.83334 5.99997H7.00001C7.06668 5.99997 7.11334 5.93997 7.11334 5.87997V4.8333C7.11334 4.7733 7.07334 4.72664 7.00001 4.72664H5.83334C5.78001 4.72664 5.73334 4.76664 5.73334 4.8333V5.87997C5.73334 5.93997 5.77334 5.99997 5.83334 5.99997ZM7.46001 5.99997H8.64001C8.69334 5.99997 8.74001 5.93997 8.74001 5.87997V4.8333C8.74001 4.7733 8.69334 4.72664 8.64001 4.72664H7.46001C7.40668 4.72664 7.36001 4.76664 7.36001 4.8333V5.87997C7.36001 5.93997 7.40668 5.99997 7.46001 5.99997ZM7.46001 4.47997H8.64001C8.69334 4.47997 8.74001 4.4333 8.74001 4.3733V3.3333C8.74001 3.26664 8.69334 3.21997 8.64001 3.21997H7.46001C7.40668 3.21997 7.36001 3.25997 7.36001 3.3333V4.3733C7.36001 4.42664 7.40668 4.47997 7.46001 4.47997ZM9.10001 7.4933H10.2733C10.3333 7.4933 10.38 7.44664 10.38 7.38664V6.3333C10.38 6.27997 10.3333 6.22664 10.2733 6.22664H9.10001C9.04668 6.22664 9.00001 6.2733 9.00001 6.3333V7.38664C9.00001 7.44664 9.04668 7.4933 9.10001 7.4933Z" fill="#57687C"/>
</svg>
