<svg width="49" height="48" viewBox="0 0 49 48" fill="none" xmlns="http://www.w3.org/2000/svg">
<g clip-path="url(#clip0_23_73)">
<path d="M37.05 0H11.55C5.33685 0 0.300049 5.0368 0.300049 11.25V36.75C0.300049 42.9632 5.33685 48 11.55 48H37.05C43.2633 48 48.3 42.9632 48.3 36.75V11.25C48.3 5.0368 43.2633 0 37.05 0Z" fill="#242938"/>
<path d="M43.05 34.3007C42.5042 34.5074 41.9016 34.507 41.356 34.2996C40.8104 34.0921 40.3598 33.692 40.0892 33.1748C38.3899 30.631 36.5134 28.2019 34.7099 25.7207L33.9278 24.6782C31.7802 27.5556 29.6325 30.3182 27.6726 33.1853C27.4173 33.6796 26.9911 34.0642 26.4732 34.2675C25.9554 34.4708 25.3813 34.479 24.8579 34.2904L32.9166 23.4793L25.4207 13.7106C25.9603 13.5157 26.5506 13.513 27.0919 13.703C27.6333 13.8929 28.0925 14.2638 28.392 14.7531C30.133 17.2971 32.0618 19.7261 33.9799 22.3013C35.9087 19.747 37.8165 17.3074 39.5993 14.7844C39.856 14.2981 40.2825 13.9232 40.7977 13.731C41.3129 13.5387 41.8807 13.5426 42.3932 13.7419L39.4845 17.5993C38.1814 19.3195 36.8991 21.0501 35.5439 22.7286C35.4346 22.8263 35.3472 22.946 35.2873 23.0799C35.2275 23.2137 35.1965 23.3587 35.1965 23.5053C35.1965 23.6519 35.2275 23.7969 35.2873 23.9307C35.3472 24.0646 35.4346 24.1843 35.5439 24.282C38.0355 27.5869 40.5062 30.9021 43.05 34.3007ZM5.55005 23.3438C5.76905 22.3013 5.90442 21.1648 6.20686 20.1015C8.01042 13.69 15.3602 11.0209 20.4165 14.9931C23.3774 17.3181 24.1176 20.6125 23.9717 24.3238H7.29117C7.02005 30.9544 11.8052 34.9577 17.9249 32.9143C18.9176 32.5592 19.8062 31.9625 20.5106 31.178C21.215 30.3935 21.7129 29.446 21.9595 28.4209C22.2827 27.3784 22.804 27.2012 23.7944 27.5035C23.6313 28.7727 23.1826 29.9884 22.482 31.0592C21.7814 32.13 20.8471 33.028 19.7494 33.6857C17.9359 34.6775 15.8551 35.0705 13.8047 34.8083C11.7543 34.5462 9.83937 33.6424 8.33367 32.2262C6.84404 30.5513 5.94335 28.435 5.76905 26.2003C5.76905 25.846 5.63349 25.4914 5.56055 25.1578C5.55365 24.5532 5.55015 23.9485 5.55005 23.3438ZM7.31199 22.8955H22.3975C22.3035 18.0895 19.2698 14.6803 15.2249 14.6492C10.7211 14.5866 7.49967 17.9226 7.30149 22.8746L7.31199 22.8955Z" fill="white"/>
</g>
<defs>
<clipPath id="clip0_23_73">
<rect width="48" height="48" fill="white" transform="translate(0.300049)"/>
</clipPath>
</defs>
</svg>
