<svg width="16" height="16" viewBox="0 0 16 16" fill="none" xmlns="http://www.w3.org/2000/svg">
<path d="M4.26668 10.1333C3.93524 9.88516 3.66626 9.56311 3.48109 9.19278C3.29592 8.82245 3.19968 8.41403 3.20001 7.99998C3.20001 7.12745 3.61921 6.35305 4.26668 5.86665C3.81893 5.53084 3.48819 5.06266 3.32131 4.52843C3.15443 3.9942 3.15987 3.42101 3.33686 2.89004C3.51385 2.35908 3.85341 1.89726 4.30745 1.57C4.76149 1.24275 5.30699 1.06665 5.86668 1.06665H10.1333C10.693 1.06665 11.2385 1.24275 11.6926 1.57C12.1466 1.89726 12.4862 2.35908 12.6632 2.89004C12.8402 3.42101 12.8456 3.9942 12.6787 4.52843C12.5118 5.06266 12.1811 5.53084 11.7333 5.86665C12.2991 6.291 12.6732 6.92272 12.7732 7.62286C12.8732 8.323 12.691 9.03419 12.2667 9.59998C11.8423 10.1658 11.2106 10.5398 10.5105 10.6398C9.81034 10.7399 9.09914 10.5577 8.53335 10.1333V12.2667C8.53335 12.7212 8.41715 13.1682 8.1958 13.5652C7.97445 13.9622 7.65529 14.2961 7.26863 14.5351C6.88197 14.774 6.44063 14.9102 5.98654 14.9306C5.53245 14.9511 5.08067 14.8551 4.67411 14.6518C4.26755 14.4485 3.9197 14.1447 3.66359 13.7691C3.40748 13.3936 3.25161 12.9588 3.21079 12.5061C3.16997 12.0534 3.24555 11.5978 3.43035 11.1825C3.61515 10.7672 3.90304 10.406 4.26668 10.1333Z" fill="#57687C"/>
</svg>
