<svg width="36" height="48" viewBox="0 0 36 48" fill="none" xmlns="http://www.w3.org/2000/svg">
<g clip-path="url(#clip0_23_340)">
<path d="M0.210693 38.7006L0.501018 38.2941L14.2315 12.2409L14.2605 11.9651L8.20796 0.595946C7.70061 -0.356396 6.27292 -0.115576 6.10663 0.950544L0.210693 38.7006Z" fill="#FFC24A"/>
<path d="M0.38205 38.3907L0.601537 37.9625L14.1883 12.1823L8.15067 0.766906C7.64892 -0.175453 6.37467 0.0648209 6.21002 1.11973L0.38205 38.3907Z" fill="#FFA712"/>
<g filter="url(#filter0_i_23_340)">
<path d="M0.38205 38.3907L0.601537 37.9625L14.1883 12.1823L8.15067 0.766906C7.64892 -0.175453 6.37467 0.0648209 6.21002 1.11973L0.38205 38.3907Z" fill="black"/>
</g>
<path d="M18.6729 20.5648L23.1796 15.9494L18.6715 7.34359C18.2436 6.52895 17.0488 6.52649 16.6254 7.34359L14.2168 11.9367V12.3278L18.6728 20.5648H18.6729Z" fill="#F4BD62"/>
<path d="M18.5925 20.3725L22.9739 15.8854L18.5925 7.54257C18.1765 6.75063 17.1658 6.66763 16.7541 7.46188L14.3329 12.1264L14.2605 12.3649L18.5925 20.3725V20.3725Z" fill="#FFA50E"/>
<g filter="url(#filter1_i_23_340)">
<path d="M18.5925 20.3725L22.9739 15.8854L18.5925 7.54257C18.1765 6.75063 17.1658 6.66763 16.7541 7.46188L14.3329 12.1264L14.2605 12.3649L18.5925 20.3725V20.3725Z" fill="black"/>
</g>
<path d="M0.210693 38.7006L0.342249 38.5682L0.820334 38.374L18.3898 20.8698L18.6125 20.2638L14.2296 11.9118L0.210693 38.7006Z" fill="#F6820C"/>
<path d="M19.2358 47.5283L35.1366 38.6604L30.5959 10.6952C30.4538 9.8203 29.3805 9.47446 28.7541 10.1017L0.210693 38.7006L16.0203 47.5277C16.5117 47.802 17.0652 47.9461 17.628 47.9462C18.1908 47.9463 18.7443 47.8025 19.2358 47.5283Z" fill="#FDE068"/>
<path d="M34.9941 38.586L30.4879 10.8332C30.347 9.96483 29.4543 9.60558 28.8328 10.2282L0.387085 38.6461L16.0232 47.3857C16.5108 47.658 17.06 47.801 17.6186 47.8011C18.1771 47.8013 18.7264 47.6585 19.2142 47.3865L34.9943 38.5858L34.9941 38.586Z" fill="#FCCA3F"/>
<path d="M19.2356 47.267C18.7441 47.5411 18.1907 47.685 17.6279 47.6848C17.0651 47.6847 16.5117 47.5407 16.0203 47.2663L0.337995 38.5661L0.210815 38.7006L16.0203 47.5276C16.5117 47.802 17.0652 47.9461 17.628 47.9462C18.1908 47.9463 18.7442 47.8025 19.2358 47.5283L35.1366 38.6604L35.0977 38.4208L19.2358 47.2671L19.2356 47.267Z" fill="#EEAB37"/>
</g>
<defs>
<filter id="filter0_i_23_340" x="0.38205" y="0.177979" width="13.8062" height="38.2127" filterUnits="userSpaceOnUse" color-interpolation-filters="sRGB">
<feFlood flood-opacity="0" result="BackgroundImageFix"/>
<feBlend mode="normal" in="SourceGraphic" in2="BackgroundImageFix" result="shape"/>
<feColorMatrix in="SourceAlpha" type="matrix" values="0 0 0 0 0 0 0 0 0 0 0 0 0 0 0 0 0 0 127 0" result="hardAlpha"/>
<feOffset/>
<feGaussianBlur stdDeviation="2.39316"/>
<feComposite in2="hardAlpha" operator="arithmetic" k2="-1" k3="1"/>
<feColorMatrix type="matrix" values="0 0 0 0 0 0 0 0 0 0 0 0 0 0 0 0 0 0 0.06 0"/>
<feBlend mode="normal" in2="shape" result="effect1_innerShadow_23_340"/>
</filter>
<filter id="filter1_i_23_340" x="14.2605" y="5.94856" width="8.85019" height="14.4239" filterUnits="userSpaceOnUse" color-interpolation-filters="sRGB">
<feFlood flood-opacity="0" result="BackgroundImageFix"/>
<feBlend mode="normal" in="SourceGraphic" in2="BackgroundImageFix" result="shape"/>
<feColorMatrix in="SourceAlpha" type="matrix" values="0 0 0 0 0 0 0 0 0 0 0 0 0 0 0 0 0 0 127 0" result="hardAlpha"/>
<feOffset dx="0.136752" dy="-1.23077"/>
<feGaussianBlur stdDeviation="0.478633"/>
<feComposite in2="hardAlpha" operator="arithmetic" k2="-1" k3="1"/>
<feColorMatrix type="matrix" values="0 0 0 0 0 0 0 0 0 0 0 0 0 0 0 0 0 0 0.09 0"/>
<feBlend mode="normal" in2="shape" result="effect1_innerShadow_23_340"/>
</filter>
<clipPath id="clip0_23_340">
<rect width="35.01" height="48" fill="white" transform="translate(0.209961)"/>
</clipPath>
</defs>
</svg>
