<svg width="16" height="16" viewBox="0 0 16 16" fill="none" xmlns="http://www.w3.org/2000/svg">
<path d="M13.3333 12.46L8.46666 15.16C8.13332 15.3333 7.79999 15.3333 7.46666 15.16L2.66666 12.46L11.3667 3.69331L11.6 3.62665C11.8 3.62665 11.9133 3.71331 11.9333 3.89331L13.3333 12.46ZM6.23332 3.82665L3.19999 8.85998L4.46666 0.893315C4.48666 0.713315 4.59999 0.626648 4.79999 0.626648C4.93332 0.626648 5.01999 0.666648 5.06666 0.793315L6.49999 3.42665L6.23332 3.82665ZM9.23332 4.66665L2.86666 11.06L7.69999 2.85998C7.76666 2.72665 7.86666 2.66665 7.99999 2.66665C8.13332 2.66665 8.21999 2.72665 8.26666 2.85998L9.23332 4.66665Z" fill="#57687C"/>
</svg>
