<svg width="16" height="16" viewBox="0 0 16 16" fill="none" xmlns="http://www.w3.org/2000/svg">
<path d="M1.73332 7.05999L5.58665 3.19998L6.71332 4.33332C6.55332 4.89998 6.81332 5.51998 7.33332 5.81998V9.51332C6.93332 9.73999 6.66665 10.1733 6.66665 10.6667C6.66665 11.0203 6.80713 11.3594 7.05718 11.6095C7.30722 11.8595 7.64636 12 7.99998 12C8.35361 12 8.69275 11.8595 8.94279 11.6095C9.19284 11.3594 9.33332 11.0203 9.33332 10.6667C9.33332 10.1733 9.06665 9.73999 8.66665 9.51332V6.27332L10.0467 7.66665C9.99998 7.76665 9.99998 7.87998 9.99998 7.99998C9.99998 8.35361 10.1405 8.69275 10.3905 8.94279C10.6406 9.19284 10.9797 9.33332 11.3333 9.33332C11.6869 9.33332 12.0261 9.19284 12.2761 8.94279C12.5262 8.69275 12.6667 8.35361 12.6667 7.99998C12.6667 7.64636 12.5262 7.30722 12.2761 7.05718C12.0261 6.80713 11.6869 6.66665 11.3333 6.66665C11.2133 6.66665 11.1 6.66665 11 6.71332L9.28665 4.99998C9.36943 4.69121 9.33734 4.36288 9.19634 4.07598C9.05534 3.78908 8.81501 3.56309 8.51998 3.43998C8.23332 3.33332 7.93332 3.30665 7.66665 3.37998L6.53332 2.25332L7.05999 1.73332C7.57999 1.20665 8.41998 1.20665 8.93998 1.73332L14.2667 7.05999C14.7933 7.57999 14.7933 8.41998 14.2667 8.93998L8.93998 14.2667C8.41998 14.7933 7.57999 14.7933 7.05999 14.2667L1.73332 8.93998C1.20665 8.41998 1.20665 7.57999 1.73332 7.05999Z" fill="#57687C"/>
</svg>
