<svg width="129" height="48" viewBox="0 0 129 48" fill="none" xmlns="http://www.w3.org/2000/svg">
<g clip-path="url(#clip0_23_40)">
<path d="M73.1633 3.32372L73.4443 3.51122C76.7473 5.69247 79.1155 8.68397 80.6735 12.2987C81.0475 12.8595 80.7983 13.1712 80.0503 13.358L78.7845 13.682C75.9228 14.4192 73.652 15.0392 70.8278 15.7765L69.217 16.196C68.637 16.3395 68.477 16.2792 67.86 15.5767L67.773 15.477C66.8933 14.48 66.2343 13.814 65.0688 13.2195L64.844 13.1087C60.9178 11.177 57.1163 11.7377 53.564 14.0437C49.326 16.7857 47.1448 20.8367 47.207 25.8847C47.2695 30.8702 50.697 34.9835 55.6205 35.669C59.8583 36.23 63.4105 34.7342 66.215 31.556C66.776 30.8702 67.2745 30.1225 67.8975 29.25H55.87C54.5613 29.25 54.2498 28.44 54.686 27.3805L54.902 26.8717C55.703 25.0082 56.9453 22.3297 57.752 20.7982L57.928 20.4685C58.1435 20.095 58.581 19.5902 59.4223 19.5902H79.4783C80.379 16.7365 81.8405 14.04 83.7898 11.4885C88.3393 5.50572 93.8235 2.38947 101.24 1.08097C107.597 -0.0410306 113.58 0.58222 119.001 4.25922C123.925 7.62447 126.979 12.1742 127.789 18.1567C128.848 26.5702 126.418 33.4255 120.622 39.2837C116.509 43.4592 111.461 46.0767 105.665 47.2607C103.982 47.5725 102.299 47.6347 100.679 47.8217C95.0078 47.697 89.835 46.0767 85.4725 42.3375C82.4043 39.685 80.2908 36.4255 79.2405 32.6305C78.5036 34.1176 77.6271 35.5314 76.623 36.853C72.1358 42.7737 66.2778 46.4505 58.8615 47.448C52.754 48.258 47.0828 47.0737 42.097 43.3345C37.4853 39.8445 34.8678 35.2327 34.182 29.4995C33.372 22.7062 35.3663 16.5987 39.4795 11.2392C43.9045 5.44322 49.7625 1.76647 56.9295 0.457719C62.6793 -0.582281 68.1888 0.0589693 73.1635 3.32372H73.1633ZM102.81 12.2542L102.611 12.2987C96.8148 13.6075 93.0755 17.2842 91.7045 23.1425C90.5825 28.0035 92.9508 32.927 97.438 34.9212C100.866 36.417 104.293 36.23 107.596 34.5472C112.52 31.9922 115.2 28.0035 115.511 22.644C115.449 21.834 115.449 21.2105 115.324 20.5872C114.215 14.487 108.658 11.0062 102.81 12.2542ZM29.134 23.641C29.3833 23.641 29.508 23.828 29.508 24.0772L29.3833 25.573C29.3833 25.8222 29.134 26.0092 28.947 26.0092L15.361 25.947C15.1118 25.947 15.0495 25.76 15.174 25.573L16.0465 24.015C16.1713 23.828 16.4205 23.641 16.6698 23.641H29.134ZM30.505 17.9075C30.7543 17.9075 30.879 18.0945 30.8168 18.2815L30.318 19.7772C30.2558 20.0265 30.0065 20.151 29.7573 20.151L0.27927 20.2135C0.03002 20.2135 -0.03223 20.0887 0.09227 19.9017L1.40102 18.2192C1.52577 18.0322 1.83727 17.9075 2.08652 17.9075H30.505ZM33.7458 12.174C33.995 12.174 34.0573 12.361 33.9328 12.548L32.8733 14.1682C32.7485 14.3552 32.437 14.5422 32.25 14.5422L9.69002 14.4797C9.44052 14.4797 9.37827 14.3552 9.50277 14.1682L10.8115 12.4857C10.9363 12.2987 11.2478 12.174 11.497 12.174H33.7458Z" fill="#00ACD7"/>
</g>
<defs>
<clipPath id="clip0_23_40">
<rect width="128" height="48" fill="white" transform="translate(0.0300293)"/>
</clipPath>
</defs>
</svg>
