<svg width="49" height="48" viewBox="0 0 49 48" fill="none" xmlns="http://www.w3.org/2000/svg">
<mask id="mask0_23_96" style="mask-type:luminance" maskUnits="userSpaceOnUse" x="7" y="0" width="35" height="48">
<path d="M7.48004 0.375H41.4175V47.625H7.48004V0.375Z" fill="white"/>
</mask>
<g mask="url(#mask0_23_96)">
<path fill-rule="evenodd" clip-rule="evenodd" d="M8.34253 25.7625C8.41753 27.075 9.73003 26.475 10.33 26.0625C10.8925 25.65 11.08 25.9875 11.1175 25.2C11.155 24.675 11.1925 24.1875 11.1925 23.6625C10.33 23.5875 9.39253 23.775 8.68003 24.3C8.34253 24.5625 7.63003 25.425 8.34253 25.7625Z" fill="#F6D2A2"/>
</g>
<mask id="mask1_23_96" style="mask-type:luminance" maskUnits="userSpaceOnUse" x="7" y="0" width="35" height="48">
<path d="M7.48004 0.375H41.4175V47.625H7.48004V0.375Z" fill="white"/>
</mask>
<g mask="url(#mask1_23_96)">
<path d="M9.05502 26.7C8.79252 26.7 8.30502 26.5875 8.23002 25.8375C8.00502 25.6875 7.93002 25.5 7.93002 25.3875C7.89252 24.9375 8.38002 24.4125 8.64252 24.225C9.24252 23.775 10.03 23.55 10.855 23.55H11.3425V23.6625C11.38 24.075 11.3425 24.4875 11.305 24.8625C11.305 24.975 11.305 25.0875 11.2675 25.2C11.23 25.7625 11.1175 25.8375 10.855 25.95C10.7425 25.9875 10.63 26.025 10.4425 26.175C10.255 26.2875 9.61752 26.7 9.05502 26.7ZM10.855 23.775C10.0675 23.775 9.35502 24 8.79252 24.4125C8.53002 24.6 8.15502 25.05 8.19252 25.35C8.19252 25.4625 8.26752 25.575 8.41752 25.65L8.49252 25.6875V25.7625C8.53002 26.3625 8.83002 26.4375 9.05502 26.4375C9.43002 26.4375 9.95502 26.175 10.2925 25.95C10.5175 25.8 10.6675 25.7625 10.78 25.725C10.9675 25.65 11.005 25.65 11.0425 25.2C11.0425 25.0875 11.0425 24.975 11.08 24.8625C11.1175 24.525 11.1175 24.15 11.1175 23.8125C11.005 23.775 10.93 23.775 10.855 23.775Z" fill="black"/>
</g>
<mask id="mask2_23_96" style="mask-type:luminance" maskUnits="userSpaceOnUse" x="7" y="0" width="35" height="48">
<path d="M7.48004 0.375H41.4175V47.625H7.48004V0.375Z" fill="white"/>
</mask>
<g mask="url(#mask2_23_96)">
<path fill-rule="evenodd" clip-rule="evenodd" d="M8.34253 25.7625C8.53003 25.6875 8.75503 25.65 8.86753 25.4625Z" fill="#C6B198"/>
</g>
<mask id="mask3_23_96" style="mask-type:luminance" maskUnits="userSpaceOnUse" x="7" y="0" width="35" height="48">
<path d="M7.48004 0.375H41.4175V47.625H7.48004V0.375Z" fill="white"/>
</mask>
<g mask="url(#mask3_23_96)">
<path d="M8.34254 25.875C8.30504 25.875 8.23004 25.8375 8.23004 25.8C8.19254 25.725 8.23004 25.65 8.30504 25.65C8.34254 25.65 8.38004 25.6125 8.38004 25.6125C8.53004 25.5375 8.68004 25.5 8.75504 25.3875C8.79254 25.35 8.86754 25.3125 8.94254 25.35C8.98004 25.3875 9.01754 25.4625 8.98004 25.5375C8.83004 25.725 8.64254 25.8 8.49254 25.8375L8.41754 25.875H8.34254Z" fill="black"/>
</g>
<mask id="mask4_23_96" style="mask-type:luminance" maskUnits="userSpaceOnUse" x="7" y="0" width="35" height="48">
<path d="M7.48004 0.375H41.4175V47.625H7.48004V0.375Z" fill="white"/>
</mask>
<g mask="url(#mask4_23_96)">
<path fill-rule="evenodd" clip-rule="evenodd" d="M11.4175 9.9C6.31754 8.475 10.105 1.9875 14.1925 4.65L11.4175 9.9Z" fill="#6AD7E5"/>
</g>
<mask id="mask5_23_96" style="mask-type:luminance" maskUnits="userSpaceOnUse" x="7" y="0" width="35" height="48">
<path d="M7.48004 0.375H41.4175V47.625H7.48004V0.375Z" fill="white"/>
</mask>
<g mask="url(#mask5_23_96)">
<path d="M11.4926 10.05L11.3801 10.0125C8.75505 9.26252 8.79255 7.38752 8.86755 6.82502C9.05505 5.40002 10.4051 3.90002 12.2051 3.90002C12.9176 3.90002 13.5926 4.12502 14.2676 4.57502L14.3801 4.65002L11.4926 10.05ZM12.2051 4.16252C10.5176 4.16252 9.28005 5.55002 9.09255 6.86252C8.90505 8.21252 9.73005 9.26252 11.3426 9.75002L14.0051 4.68752C13.4426 4.35002 12.8426 4.16252 12.2051 4.16252Z" fill="black"/>
</g>
<mask id="mask6_23_96" style="mask-type:luminance" maskUnits="userSpaceOnUse" x="7" y="0" width="35" height="48">
<path d="M7.48004 0.375H41.4175V47.625H7.48004V0.375Z" fill="white"/>
</mask>
<g mask="url(#mask6_23_96)">
<path fill-rule="evenodd" clip-rule="evenodd" d="M34.03 4.16249C38.0425 1.34999 41.7175 7.72499 37.03 9.33749L34.03 4.16249Z" fill="#6AD7E5"/>
</g>
<mask id="mask7_23_96" style="mask-type:luminance" maskUnits="userSpaceOnUse" x="7" y="0" width="35" height="48">
<path d="M7.48004 0.375H41.4175V47.625H7.48004V0.375Z" fill="white"/>
</mask>
<g mask="url(#mask7_23_96)">
<path d="M36.9926 9.48749L33.8801 4.12499L33.9926 4.04999C34.7051 3.56249 35.4176 3.29999 36.1301 3.29999C37.8551 3.29999 39.0926 4.72499 39.3551 6.11249C39.4676 6.67499 39.5801 8.58749 37.1051 9.41249L36.9926 9.48749ZM34.2176 4.23749L37.1051 9.22499C38.5676 8.69999 39.3176 7.57499 39.0926 6.22499C38.8676 4.94999 37.7051 3.63749 36.1301 3.63749C35.4926 3.59999 34.8551 3.78749 34.2176 4.23749Z" fill="black"/>
</g>
<mask id="mask8_23_96" style="mask-type:luminance" maskUnits="userSpaceOnUse" x="7" y="0" width="35" height="48">
<path d="M7.48004 0.375H41.4175V47.625H7.48004V0.375Z" fill="white"/>
</mask>
<g mask="url(#mask8_23_96)">
<path fill-rule="evenodd" clip-rule="evenodd" d="M34.9301 42.1125C35.9426 42.75 37.8176 44.6625 36.2801 45.6C34.8176 46.95 33.9926 44.1 32.6801 43.725C33.2426 42.975 33.9551 42.2625 34.9301 42.1125Z" fill="#F6D2A2"/>
</g>
<mask id="mask9_23_96" style="mask-type:luminance" maskUnits="userSpaceOnUse" x="7" y="0" width="35" height="48">
<path d="M7.48004 0.375H41.4175V47.625H7.48004V0.375Z" fill="white"/>
</mask>
<g mask="url(#mask9_23_96)">
<path d="M35.4925 46.0875C34.8925 46.0875 34.3675 45.4875 33.9175 44.925C33.505 44.475 33.0925 43.9875 32.6425 43.8375L32.455 43.8L32.5675 43.65C33.0175 43.0125 33.7675 42.1875 34.8925 42H34.93L34.9675 42.0375C35.605 42.45 36.9925 43.6125 36.955 44.7C36.955 45.1125 36.73 45.45 36.3175 45.7125C36.055 45.975 35.7925 46.0875 35.4925 46.0875ZM32.8675 43.65C33.3175 43.8375 33.6925 44.325 34.0675 44.7375C34.5175 45.3 34.9675 45.7875 35.455 45.7875C35.68 45.7875 35.905 45.675 36.13 45.45H36.1675C36.505 45.225 36.6925 44.9625 36.6925 44.625C36.6925 43.7625 35.605 42.675 34.855 42.1875C34.18 42.375 33.505 42.825 32.8675 43.65ZM36.28 45.7125C36.2425 45.7125 36.205 45.675 36.1675 45.6375C36.0925 45.4875 36.0175 45.3 35.98 45.15C35.8675 44.85 35.755 44.55 35.53 44.325C35.4925 44.2875 35.4925 44.2125 35.53 44.1375C35.5675 44.1 35.6425 44.1 35.7175 44.1375C35.98 44.4 36.13 44.7375 36.2425 45.075L36.43 45.525C36.4675 45.6 36.43 45.675 36.3925 45.7125H36.28Z" fill="black"/>
</g>
<mask id="mask10_23_96" style="mask-type:luminance" maskUnits="userSpaceOnUse" x="7" y="0" width="35" height="48">
<path d="M7.48004 0.375H41.4175V47.625H7.48004V0.375Z" fill="white"/>
</mask>
<g mask="url(#mask10_23_96)">
<path fill-rule="evenodd" clip-rule="evenodd" d="M16.6301 44.2875C15.4301 44.475 14.7551 45.5625 13.7426 46.125C12.8051 46.6875 12.4301 45.9375 12.3551 45.7875C12.2051 45.7125 12.2051 45.8625 11.9801 45.6375C11.1176 44.25 12.8801 43.2375 13.8176 42.5625C15.1301 42.2625 15.9551 43.3875 16.6301 44.2875Z" fill="#F6D2A2"/>
</g>
<mask id="mask11_23_96" style="mask-type:luminance" maskUnits="userSpaceOnUse" x="7" y="0" width="35" height="48">
<path d="M7.48004 0.375H41.4175V47.625H7.48004V0.375Z" fill="white"/>
</mask>
<g mask="url(#mask11_23_96)">
<path d="M13.105 46.425C12.6175 46.425 12.355 46.0125 12.28 45.8625H12.2425C12.13 45.8625 12.055 45.825 11.905 45.675V45.6375C11.08 44.325 12.505 43.3125 13.4425 42.6375L13.78 42.4125H13.855C14.005 42.375 14.1175 42.375 14.2675 42.375C15.3925 42.375 16.105 43.35 16.705 44.1375L16.8925 44.4L16.6675 44.4375C15.955 44.55 15.43 45 14.905 45.45C14.5675 45.75 14.23 46.0125 13.855 46.2375C13.555 46.35 13.33 46.425 13.105 46.425ZM12.28 45.6375C12.3175 45.6375 12.355 45.6375 12.43 45.675H12.4675L12.505 45.7125C12.58 45.825 12.7675 46.1625 13.1425 46.1625C13.33 46.1625 13.5175 46.0875 13.705 45.975C14.08 45.7875 14.4175 45.4875 14.7175 45.225C15.205 44.8125 15.73 44.3625 16.405 44.175C15.8425 43.425 15.1675 42.6 14.23 42.6C14.1175 42.6 14.005 42.6 13.8925 42.6375L13.5925 42.8625C12.6175 43.5375 11.4175 44.4 12.13 45.525C12.1675 45.6 12.205 45.6375 12.28 45.6375ZM12.355 45.9C12.28 45.9 12.205 45.825 12.2425 45.75C12.28 45.375 12.4675 45.1125 12.655 44.8125C12.7675 44.6625 12.8425 44.5125 12.9175 44.3625C12.955 44.2875 13.03 44.2875 13.0675 44.2875C13.1425 44.325 13.1425 44.4 13.1425 44.4375C13.0675 44.625 12.955 44.775 12.8425 44.925C12.655 45.1875 12.505 45.4125 12.4675 45.7125C12.4675 45.8625 12.43 45.9 12.355 45.9Z" fill="black"/>
</g>
<mask id="mask12_23_96" style="mask-type:luminance" maskUnits="userSpaceOnUse" x="7" y="0" width="35" height="48">
<path d="M7.48004 0.375H41.4175V47.625H7.48004V0.375Z" fill="white"/>
</mask>
<g mask="url(#mask12_23_96)">
<path fill-rule="evenodd" clip-rule="evenodd" d="M11.6425 8.13749C10.9675 7.79999 10.48 7.31249 10.8925 6.52499C11.2675 5.81249 11.98 5.88749 12.655 6.22499L11.6425 8.13749ZM35.98 7.46249C36.655 7.12499 37.1425 6.63749 36.73 5.84999C36.355 5.13749 35.6425 5.21249 34.9675 5.54999L35.98 7.46249Z" fill="black"/>
</g>
<mask id="mask13_23_96" style="mask-type:luminance" maskUnits="userSpaceOnUse" x="7" y="0" width="35" height="48">
<path d="M7.48004 0.375H41.4175V47.625H7.48004V0.375Z" fill="white"/>
</mask>
<g mask="url(#mask13_23_96)">
<path fill-rule="evenodd" clip-rule="evenodd" d="M40.5926 25.575C40.5176 26.8875 39.2051 26.2875 38.6051 25.875C38.0426 25.4625 37.8551 25.8 37.8176 25.0125C37.7801 24.4875 37.7426 24 37.7426 23.475C38.6051 23.4 39.5426 23.5875 40.2551 24.1125C40.6301 24.4125 41.3051 25.2375 40.5926 25.575Z" fill="#F6D2A2"/>
</g>
<mask id="mask14_23_96" style="mask-type:luminance" maskUnits="userSpaceOnUse" x="7" y="0" width="35" height="48">
<path d="M7.48004 0.375H41.4175V47.625H7.48004V0.375Z" fill="white"/>
</mask>
<g mask="url(#mask14_23_96)">
<path d="M39.9175 26.5125C39.355 26.5125 38.7175 26.1 38.53 25.9875C38.3425 25.875 38.23 25.8 38.1175 25.7625C37.8175 25.65 37.7425 25.575 37.705 25.0125C37.705 24.9 37.705 24.7875 37.6675 24.675C37.63 24.3 37.5925 23.8875 37.63 23.475V23.3625H38.1175C38.9425 23.3625 39.73 23.5875 40.33 24.0375C40.5925 24.225 41.08 24.75 41.0425 25.2C41.0425 25.35 40.9675 25.5375 40.7425 25.65C40.6675 26.4 40.18 26.5125 39.9175 26.5125ZM37.855 23.625C37.855 23.9625 37.855 24.3375 37.8925 24.675C37.8925 24.7875 37.8925 24.9 37.93 25.0125C37.9675 25.4625 38.005 25.4625 38.1925 25.5375C38.305 25.575 38.455 25.65 38.68 25.7625C39.0175 25.9875 39.5425 26.25 39.9175 26.25C40.1425 26.25 40.4425 26.175 40.48 25.575V25.5L40.555 25.4625C40.705 25.3875 40.78 25.3125 40.78 25.1625C40.8175 24.8625 40.4425 24.4125 40.18 24.225C39.6175 23.8125 38.8675 23.5875 38.1175 23.5875C38.0425 23.625 37.9675 23.625 37.855 23.625Z" fill="black"/>
</g>
<mask id="mask15_23_96" style="mask-type:luminance" maskUnits="userSpaceOnUse" x="7" y="0" width="35" height="48">
<path d="M7.48004 0.375H41.4175V47.625H7.48004V0.375Z" fill="white"/>
</mask>
<g mask="url(#mask15_23_96)">
<path fill-rule="evenodd" clip-rule="evenodd" d="M40.5926 25.575C40.4051 25.5 40.1801 25.4625 40.0676 25.275Z" fill="#C6B198"/>
</g>
<mask id="mask16_23_96" style="mask-type:luminance" maskUnits="userSpaceOnUse" x="7" y="0" width="35" height="48">
<path d="M7.48004 0.375H41.4175V47.625H7.48004V0.375Z" fill="white"/>
</mask>
<g mask="url(#mask16_23_96)">
<path d="M40.5925 25.725H40.555L40.48 25.6875C40.2925 25.6125 40.105 25.575 39.9925 25.3875C39.955 25.35 39.955 25.2375 40.03 25.2C40.0675 25.1625 40.18 25.1625 40.2175 25.2375C40.2925 25.35 40.4425 25.3875 40.5925 25.4625C40.63 25.4625 40.6675 25.5 40.6675 25.5C40.7425 25.5375 40.78 25.6125 40.7425 25.65C40.705 25.6875 40.63 25.725 40.5925 25.725Z" fill="black"/>
</g>
<mask id="mask17_23_96" style="mask-type:luminance" maskUnits="userSpaceOnUse" x="7" y="0" width="35" height="48">
<path d="M7.48004 0.375H41.4175V47.625H7.48004V0.375Z" fill="white"/>
</mask>
<g mask="url(#mask17_23_96)">
<path fill-rule="evenodd" clip-rule="evenodd" d="M23.98 1.5C29.08 1.5 33.8425 2.2125 36.355 7.125C38.605 12.6 37.78 18.525 38.155 24.3375C38.455 29.325 39.0925 35.0625 36.805 39.675C34.3675 44.5125 28.2925 45.75 23.305 45.5625C19.3675 45.4125 14.6425 44.1375 12.3925 40.5375C9.80501 36.3375 11.005 30.075 11.1925 25.3875C11.4175 19.8375 9.69251 14.25 11.53 8.85C13.3675 3.1875 18.4675 1.9125 23.98 1.5Z" fill="#6AD7E5"/>
</g>
<mask id="mask18_23_96" style="mask-type:luminance" maskUnits="userSpaceOnUse" x="7" y="0" width="35" height="48">
<path d="M7.48004 0.375H41.4175V47.625H7.48004V0.375Z" fill="white"/>
</mask>
<g mask="url(#mask18_23_96)">
<path d="M24.1676 45.7125H23.2301C21.6926 45.675 19.3676 45.4125 17.0801 44.475C14.8676 43.575 13.2551 42.3 12.2051 40.6125C10.1051 37.2 10.4801 32.5125 10.8176 28.35C10.8926 27.3 10.9676 26.325 11.0051 25.3875C11.0801 23.4375 10.9301 21.4125 10.7426 19.5C10.4426 15.975 10.1426 12.3375 11.3051 8.81253C12.2051 6.18753 13.8176 4.31253 16.2551 3.11252C18.1676 2.17502 20.5301 1.65002 23.9051 1.38752C28.9301 1.35002 33.9176 2.06252 36.4301 7.05002C38.0801 11.0625 38.0801 15.375 38.1176 19.5375C38.1176 21.1125 38.1176 22.725 38.2301 24.3C38.2676 24.7875 38.3051 25.275 38.3051 25.7625C38.6051 30.3375 38.9426 35.5125 36.8426 39.7125C35.7926 41.85 33.9551 43.425 31.4426 44.4375C29.4176 45.2625 26.8676 45.7125 24.1676 45.7125ZM23.9801 1.61253C18.6926 2.02503 13.5176 3.18753 11.6051 8.88753C10.4426 12.375 10.7426 15.975 11.0426 19.4625C11.1926 21.4125 11.3801 23.4 11.3051 25.3875C11.2676 26.325 11.1926 27.3 11.1176 28.35C10.7801 32.475 10.4051 37.125 12.4676 40.4625C13.3301 41.85 16.1051 45.15 23.2676 45.4125H24.2051C32.4926 45.4125 35.5676 41.7375 36.6926 39.5625C38.7551 35.4375 38.4176 30.2625 38.1551 25.725C38.1176 25.2375 38.0801 24.75 38.0801 24.2625C38.0051 22.6875 37.9676 21.075 37.9676 19.5C37.9301 15.375 37.9301 11.0625 36.3176 7.08752C35.1926 4.87502 33.5051 3.37502 31.1801 2.51252C28.7801 1.72502 26.0801 1.61253 23.9801 1.61253Z" fill="black"/>
</g>
<mask id="mask19_23_96" style="mask-type:luminance" maskUnits="userSpaceOnUse" x="7" y="0" width="35" height="48">
<path d="M7.48004 0.375H41.4175V47.625H7.48004V0.375Z" fill="white"/>
</mask>
<g mask="url(#mask19_23_96)">
<path fill-rule="evenodd" clip-rule="evenodd" d="M24.8801 8.325C25.7801 13.65 34.4801 12.225 33.2426 6.8625C32.1176 2.0625 24.5801 3.4125 24.8801 8.325Z" fill="white"/>
</g>
<mask id="mask20_23_96" style="mask-type:luminance" maskUnits="userSpaceOnUse" x="7" y="0" width="35" height="48">
<path d="M7.48004 0.375H41.4175V47.625H7.48004V0.375Z" fill="white"/>
</mask>
<g mask="url(#mask20_23_96)">
<path d="M29.005 11.8125C27.3175 11.8125 25.18 10.9125 24.73 8.36248C24.655 7.16248 25.03 6.07498 25.8175 5.24998C26.68 4.31248 27.9925 3.78748 29.3425 3.78748C30.9175 3.78748 32.7925 4.61248 33.3175 6.89998C33.6175 8.17498 33.3925 9.29998 32.68 10.2C31.8925 11.175 30.505 11.8125 29.005 11.8125ZM24.9925 8.32498C25.18 9.37498 25.6675 10.2 26.455 10.8C27.13 11.325 28.0675 11.5875 29.005 11.5875C30.3925 11.5875 31.7425 10.9875 32.4925 10.05C33.1675 9.22498 33.355 8.13748 33.0925 6.93748C32.605 4.79998 30.8425 4.04998 29.3425 4.04998C28.0675 4.04998 26.83 4.57498 26.005 5.43748C25.2925 6.18748 24.9175 7.19998 24.9925 8.32498Z" fill="black"/>
</g>
<mask id="mask21_23_96" style="mask-type:luminance" maskUnits="userSpaceOnUse" x="7" y="0" width="35" height="48">
<path d="M7.48004 0.375H41.4175V47.625H7.48004V0.375Z" fill="white"/>
</mask>
<g mask="url(#mask21_23_96)">
<path fill-rule="evenodd" clip-rule="evenodd" d="M14.4925 9.18748C15.6925 13.8 23.08 12.6375 22.8175 7.98748C22.48 2.43748 13.33 3.48748 14.4925 9.18748Z" fill="white"/>
</g>
<mask id="mask22_23_96" style="mask-type:luminance" maskUnits="userSpaceOnUse" x="7" y="0" width="35" height="48">
<path d="M7.48004 0.375H41.4175V47.625H7.48004V0.375Z" fill="white"/>
</mask>
<g mask="url(#mask22_23_96)">
<path d="M18.4301 12.2625C16.8176 12.2625 14.9426 11.475 14.3426 9.22501C14.0801 7.91251 14.3426 6.71251 15.0926 5.81251C15.9176 4.80001 17.2676 4.20001 18.7301 4.20001C20.6801 4.20001 22.7426 5.36251 22.8926 7.98751C22.9676 9.07501 22.6301 10.05 21.8801 10.8375C21.0926 11.7 19.7801 12.2625 18.4301 12.2625ZM18.7301 4.46251C17.3426 4.46251 16.0676 5.02501 15.2801 5.96251C14.5676 6.82501 14.3426 7.91251 14.6051 9.15001C15.1301 11.25 16.9301 12 18.4301 12C19.7051 12 20.9426 11.5125 21.7301 10.65C22.4051 9.93751 22.7426 9.00001 22.6676 7.98751C22.5926 6.37501 21.5051 4.46251 18.7301 4.46251Z" fill="black"/>
</g>
<mask id="mask23_23_96" style="mask-type:luminance" maskUnits="userSpaceOnUse" x="7" y="0" width="35" height="48">
<path d="M7.48004 0.375H41.4175V47.625H7.48004V0.375Z" fill="white"/>
</mask>
<g mask="url(#mask23_23_96)">
<path fill-rule="evenodd" clip-rule="evenodd" d="M25.9301 14.7C25.9301 15.375 26.0801 16.1625 25.9676 16.9125C25.7801 17.25 25.4426 17.2875 25.1426 17.4C24.7301 17.325 24.3926 17.0625 24.2051 16.6875C24.0926 15.8625 24.2426 15.0375 24.2801 14.2125L25.9301 14.7Z" fill="white"/>
</g>
<mask id="mask24_23_96" style="mask-type:luminance" maskUnits="userSpaceOnUse" x="7" y="0" width="35" height="48">
<path d="M7.48004 0.375H41.4175V47.625H7.48004V0.375Z" fill="white"/>
</mask>
<g mask="url(#mask24_23_96)">
<path d="M25.1426 17.55C24.6551 17.475 24.2801 17.175 24.0926 16.7625C24.0176 16.1625 24.0551 15.6 24.0926 15.0375C24.1301 14.775 24.1301 14.5125 24.1301 14.25V14.1L26.0426 14.7V14.775C26.0426 15 26.0801 15.225 26.0801 15.4875C26.1176 15.975 26.1551 16.5 26.0801 16.9875V17.025C25.9301 17.325 25.6676 17.4 25.4051 17.5125C25.3301 17.475 25.2551 17.5125 25.1426 17.55ZM24.3176 16.65C24.4676 16.9875 24.7676 17.2125 25.1051 17.2875C25.1801 17.25 25.2551 17.25 25.2926 17.2125C25.5176 17.1375 25.7051 17.0625 25.8176 16.875C25.8926 16.425 25.8551 15.9375 25.8176 15.45C25.8176 15.225 25.7801 15 25.7801 14.8125L24.3551 14.3625C24.3551 14.5875 24.3176 14.8125 24.3176 15C24.2801 15.6 24.2426 16.125 24.3176 16.65Z" fill="black"/>
</g>
<mask id="mask25_23_96" style="mask-type:luminance" maskUnits="userSpaceOnUse" x="7" y="0" width="35" height="48">
<path d="M7.48004 0.375H41.4175V47.625H7.48004V0.375Z" fill="white"/>
</mask>
<g mask="url(#mask25_23_96)">
<path fill-rule="evenodd" clip-rule="evenodd" d="M17.7926 8.43752C17.7926 9.18752 17.2301 9.78752 16.5551 9.78752C15.8801 9.78752 15.3176 9.18752 15.3176 8.43752C15.3176 7.68752 15.8801 7.08752 16.5551 7.08752C17.2301 7.08752 17.7926 7.68752 17.7926 8.43752Z" fill="black"/>
</g>
<mask id="mask26_23_96" style="mask-type:luminance" maskUnits="userSpaceOnUse" x="7" y="0" width="35" height="48">
<path d="M7.48004 0.375H41.4175V47.625H7.48004V0.375Z" fill="white"/>
</mask>
<g mask="url(#mask26_23_96)">
<path fill-rule="evenodd" clip-rule="evenodd" d="M17.38 8.73752C17.38 8.92502 17.23 9.07502 17.08 9.07502C16.93 9.07502 16.78 8.92502 16.78 8.73752C16.78 8.55002 16.93 8.40002 17.08 8.40002C17.2675 8.40002 17.38 8.55002 17.38 8.73752Z" fill="white"/>
</g>
<mask id="mask27_23_96" style="mask-type:luminance" maskUnits="userSpaceOnUse" x="7" y="0" width="35" height="48">
<path d="M7.48004 0.375H41.4175V47.625H7.48004V0.375Z" fill="white"/>
</mask>
<g mask="url(#mask27_23_96)">
<path fill-rule="evenodd" clip-rule="evenodd" d="M28.255 8.1C28.255 8.85 27.6925 9.45 27.0175 9.45C26.3425 9.45 25.78 8.85 25.78 8.1C25.78 7.35 26.3425 6.75 27.0175 6.75C27.6925 6.75 28.255 7.35 28.255 8.1Z" fill="black"/>
</g>
<mask id="mask28_23_96" style="mask-type:luminance" maskUnits="userSpaceOnUse" x="7" y="0" width="35" height="48">
<path d="M7.48004 0.375H41.4175V47.625H7.48004V0.375Z" fill="white"/>
</mask>
<g mask="url(#mask28_23_96)">
<path fill-rule="evenodd" clip-rule="evenodd" d="M27.8801 8.4C27.8801 8.5875 27.7676 8.7375 27.5801 8.7375C27.4301 8.7375 27.2801 8.5875 27.2801 8.4C27.2801 8.2125 27.3926 8.0625 27.5801 8.0625C27.7301 8.0625 27.8801 8.2125 27.8801 8.4ZM22.3301 14.625C21.7676 15.9375 22.6301 18.6 24.1301 16.65C24.0176 15.825 24.1676 15 24.2051 14.175L22.3301 14.625Z" fill="white"/>
</g>
<mask id="mask29_23_96" style="mask-type:luminance" maskUnits="userSpaceOnUse" x="7" y="0" width="35" height="48">
<path d="M7.48004 0.375H41.4175V47.625H7.48004V0.375Z" fill="white"/>
</mask>
<g mask="url(#mask29_23_96)">
<path d="M23.1176 17.475C22.8551 17.475 22.5926 17.325 22.4051 17.025C21.9926 16.425 21.9176 15.3 22.2176 14.5875L22.2551 14.5125L24.3176 13.9875V14.1375L24.2801 14.9625C24.2426 15.525 24.2051 16.05 24.2801 16.6125V16.65L24.2426 16.6875C23.8676 17.2125 23.4926 17.475 23.1176 17.475ZM22.4426 14.7375C22.2176 15.375 22.2926 16.3875 22.6301 16.875C22.7801 17.1 22.9301 17.2125 23.1176 17.2125C23.3801 17.2125 23.6801 16.9875 23.9801 16.6125C23.9051 16.05 23.9426 15.4875 24.0176 14.9625L24.0551 14.325L22.4426 14.7375Z" fill="black"/>
</g>
<mask id="mask30_23_96" style="mask-type:luminance" maskUnits="userSpaceOnUse" x="7" y="0" width="35" height="48">
<path d="M7.48004 0.375H41.4175V47.625H7.48004V0.375Z" fill="white"/>
</mask>
<g mask="url(#mask30_23_96)">
<path fill-rule="evenodd" clip-rule="evenodd" d="M22.5175 12.075C21.505 12.15 20.68 13.3875 21.205 14.325C21.9175 15.6 23.455 14.2125 24.43 14.325C25.555 14.3625 26.455 15.525 27.355 14.55C28.3675 13.4625 26.905 12.4125 25.8175 11.925L22.5175 12.075Z" fill="#F6D2A2"/>
</g>
<mask id="mask31_23_96" style="mask-type:luminance" maskUnits="userSpaceOnUse" x="7" y="0" width="35" height="48">
<path d="M7.48004 0.375H41.4175V47.625H7.48004V0.375Z" fill="white"/>
</mask>
<g mask="url(#mask31_23_96)">
<path d="M26.5675 15.075C26.23 15.075 25.8925 14.925 25.555 14.775C25.2175 14.625 24.8425 14.475 24.43 14.475H24.3175C24.0175 14.475 23.68 14.5875 23.305 14.7375C22.8925 14.8875 22.48 15 22.105 15C21.655 15 21.3175 14.8125 21.0925 14.4C20.83 13.95 20.8675 13.425 21.13 12.9375C21.43 12.375 21.955 12.0375 22.5175 11.9625L25.855 11.8125H25.8925C26.7175 12.15 27.655 12.7875 27.8425 13.5375C27.9175 13.9125 27.805 14.2875 27.505 14.625C27.205 14.9625 26.905 15.075 26.5675 15.075ZM24.4675 14.25C24.88 14.25 25.2925 14.4375 25.6675 14.5875C26.005 14.7375 26.305 14.85 26.605 14.85C26.8675 14.85 27.0925 14.7375 27.3175 14.5125C27.58 14.25 27.655 13.95 27.6175 13.65C27.4675 13.0125 26.5675 12.4125 25.855 12.1125L22.5925 12.2625C22.105 12.3 21.655 12.6375 21.3925 13.0875C21.1675 13.5 21.1675 13.95 21.355 14.325C21.5425 14.6625 21.7675 14.8125 22.1425 14.8125C22.48 14.8125 22.855 14.6625 23.23 14.55C23.6425 14.4 23.98 14.2875 24.355 14.2875C24.355 14.2125 24.3925 14.2125 24.4675 14.25Z" fill="#231F20"/>
</g>
<mask id="mask32_23_96" style="mask-type:luminance" maskUnits="userSpaceOnUse" x="7" y="0" width="35" height="48">
<path d="M7.48004 0.375H41.4175V47.625H7.48004V0.375Z" fill="white"/>
</mask>
<g mask="url(#mask32_23_96)">
<path fill-rule="evenodd" clip-rule="evenodd" d="M22.405 12.0375C22.33 10.275 25.705 10.05 26.08 11.5125C26.4925 13.0125 22.555 13.35 22.405 12.0375Z" fill="black"/>
</g>
</svg>
