<svg width="20" height="16" viewBox="0 0 20 16" fill="none" xmlns="http://www.w3.org/2000/svg">
<g clip-path="url(#clip0_16_34)">
<path d="M12.5031 6.08751C12.1625 6.17501 11.8813 6.22188 11.5938 6.325C11.3656 6.38438 11.1344 6.44688 10.8688 6.51563L10.85 6.51876C10.7188 6.55626 10.7063 6.55938 10.5844 6.41875C10.4375 6.25313 10.3313 6.14688 10.1281 6.04688C9.5125 5.74688 8.91875 5.83438 8.36563 6.19375C7.70313 6.62188 7.3625 7.25625 7.37188 8.04375C7.38125 8.825 7.91563 9.46563 8.65938 9.57188C9.34688 9.65938 9.90313 9.42813 10.3406 8.93125C10.4063 8.85 10.4656 8.76563 10.5313 8.67188C10.5563 8.64063 10.5781 8.60626 10.6031 8.56876H8.725C8.52188 8.56876 8.47188 8.44375 8.54063 8.27813C8.66563 7.975 8.9 7.46875 9.0375 7.21563C9.06563 7.15938 9.13438 7.03438 9.25313 7.03438H12.4125C12.5531 6.61563 12.7813 6.19375 13.0875 5.79375C13.7969 4.85938 14.6281 4.37188 15.8125 4.16875C16.8063 3.99375 17.7406 4.09063 18.5906 4.66563C19.3594 5.19063 19.8344 5.90313 19.9625 6.83751C20.1281 8.15313 19.7469 9.22188 18.8156 10.1375C18.2 10.7906 17.4125 11.2 16.5063 11.3844C16.3313 11.4156 16.1594 11.4313 15.9906 11.4469C15.9 11.4531 15.8125 11.4625 15.725 11.4719C14.8406 11.4531 14.0313 11.2 13.35 10.6156C12.8719 10.2 12.5406 9.69063 12.3781 9.10001C12.2625 9.32813 12.1281 9.55 11.9406 9.75938C11.2656 10.6844 10.35 11.2594 9.19375 11.4125C8.2375 11.5406 7.35313 11.3563 6.57188 10.7719C5.85313 10.225 5.44375 9.50625 5.3375 8.60938C5.20938 7.54688 5.52188 6.56563 6.1625 5.75625C6.85625 4.85 7.77188 4.27501 8.89063 4.07188C9.80625 3.87813 10.6813 4.01251 11.4719 4.55001C11.9875 4.89063 12.3563 5.35625 12.6 5.92188C12.6594 6.00938 12.6188 6.05938 12.5031 6.08751ZM1.50938 6.2625C1.47031 6.2625 1.46063 6.24376 1.48 6.21251L1.68469 5.95C1.70406 5.92188 1.75281 5.90313 1.79188 5.90313H5.26875C5.30625 5.90313 5.31563 5.93125 5.29688 5.95938L5.13125 6.21251C5.1125 6.24376 5.0625 6.27188 5.03438 6.27188L1.50938 6.2625ZM0.0389398 7.15938C2.31713e-06 7.15938 -0.00974768 7.13751 0.00975232 7.10938L0.214221 6.84688C0.233721 6.81876 0.282409 6.79688 0.321252 6.79688H4.7625C4.8 6.79688 4.81875 6.82813 4.80938 6.85625L4.73125 7.09063C4.72188 7.12813 4.68438 7.15001 4.64375 7.15001L0.0389398 7.15938ZM2.36625 7.99688C2.34688 8.025 2.35656 8.05313 2.39531 8.05313L4.51875 8.0625C4.54688 8.0625 4.5875 8.03438 4.5875 7.99688L4.60625 7.7625C4.60625 7.72188 4.5875 7.69375 4.54688 7.69375H2.6C2.56094 7.69375 2.52219 7.72188 2.5025 7.75313L2.36625 7.99688ZM18.0375 7.43438C18.0313 7.35313 18.0281 7.28438 18.0156 7.21563C17.8406 6.25313 16.9531 5.70626 16.0281 5.92188C15.1219 6.12501 14.5375 6.7 14.325 7.61563C14.15 8.375 14.5188 9.14375 15.2188 9.45625C15.7563 9.69063 16.2906 9.66251 16.8063 9.39688C17.575 8.97188 17.9938 8.375 18.0438 7.5375C18.0406 7.5 18.0406 7.46563 18.0375 7.43438Z" fill="#57687C"/>
</g>
<defs>
<clipPath id="clip0_16_34">
<rect width="20" height="16" fill="white"/>
</clipPath>
</defs>
</svg>
