<svg width="49" height="48" viewBox="0 0 49 48" fill="none" xmlns="http://www.w3.org/2000/svg">
<g clip-path="url(#clip0_23_266)">
<path d="M46.2134 0H23.1601C23.1601 2.76001 24.2565 5.40697 26.2081 7.3586C28.1597 9.31022 30.8067 10.4066 33.5667 10.4066H37.8134V14.5069C37.8171 20.2491 42.4711 24.9032 48.2133 24.9069V1.99988C48.2133 0.895688 47.3181 0 46.2134 0Z" fill="#2684FF"/>
<path d="M34.8066 11.4866H11.7535C11.7571 17.2288 16.411 21.8829 22.1534 21.8867H26.4001V26.0001C26.4074 31.7423 31.0645 36.3932 36.8067 36.3932V13.4869C36.8067 12.3823 35.9112 11.4866 34.8066 11.4866Z" fill="url(#paint0_linear_23_266)"/>
<path d="M23.3933 22.9667H0.339996C0.339996 28.7141 4.99937 33.3733 10.7466 33.3733H15.0066V37.4734C15.0104 43.2103 19.6562 47.8624 25.3934 47.8732V24.9667C25.3934 23.8622 24.4979 22.9667 23.3933 22.9667Z" fill="url(#paint1_linear_23_266)"/>
</g>
<defs>
<linearGradient id="paint0_linear_23_266" x1="2467.74" y1="15.4966" x2="1493.05" y2="1032.54" gradientUnits="userSpaceOnUse">
<stop offset="0.18" stop-color="#0052CC"/>
<stop offset="1" stop-color="#2684FF"/>
</linearGradient>
<linearGradient id="paint1_linear_23_266" x1="2522.34" y1="34.2992" x2="1394.87" y2="1143.59" gradientUnits="userSpaceOnUse">
<stop offset="0.18" stop-color="#0052CC"/>
<stop offset="1" stop-color="#2684FF"/>
</linearGradient>
<clipPath id="clip0_23_266">
<rect width="48" height="48" fill="white" transform="translate(0.339996)"/>
</clipPath>
</defs>
</svg>
