<svg width="49" height="48" viewBox="0 0 49 48" fill="none" xmlns="http://www.w3.org/2000/svg">
<g clip-path="url(#clip0_23_86)">
<path d="M37.1801 0H11.6801C5.46685 0 0.430054 5.0368 0.430054 11.25V36.75C0.430054 42.9632 5.46685 48 11.6801 48H37.1801C43.3933 48 48.4301 42.9632 48.4301 36.75V11.25C48.4301 5.0368 43.3933 0 37.1801 0Z" fill="#242938"/>
<path fill-rule="evenodd" clip-rule="evenodd" d="M36.4359 29.5633C36.5844 29.478 36.7079 29.3552 36.7939 29.2071C36.88 29.059 36.9256 28.8909 36.9262 28.7196L36.9438 23.0681C36.9443 22.8969 36.9899 22.7287 37.076 22.5806C37.1619 22.4325 37.2854 22.3096 37.4339 22.2244L40.4975 20.4647C40.7218 20.336 40.988 20.3015 41.2378 20.3688C41.4875 20.436 41.7004 20.5996 41.8297 20.8236C41.9153 20.9719 41.9603 21.1402 41.9604 21.3115V31.5857C41.9604 31.7575 41.9151 31.9263 41.829 32.075C41.7429 32.2236 41.6191 32.347 41.4701 32.4325L29.9086 39.0731C29.7609 39.1578 29.5937 39.2025 29.4234 39.2027C29.2531 39.2028 29.0858 39.1585 28.9379 39.0741L19.8646 33.8846C19.7152 33.7992 19.591 33.6758 19.5046 33.5269C19.4182 33.3781 19.3726 33.2091 19.3724 33.037V27.8563C19.3724 27.8505 19.3794 27.8466 19.3852 27.8494C19.3863 27.8502 19.3877 27.8506 19.3891 27.8506C19.3905 27.8507 19.3919 27.8503 19.3931 27.8496C19.3943 27.8489 19.3953 27.8479 19.3959 27.8467C19.3966 27.8454 19.3969 27.844 19.3968 27.8426V27.8368C19.3968 27.8329 19.3989 27.829 19.4028 27.8271L26.8754 23.5341C26.8822 23.5301 26.8792 23.5195 26.8715 23.5195C26.8694 23.5194 26.8674 23.5186 26.866 23.5171C26.8645 23.5156 26.8637 23.5137 26.8636 23.5116L26.8782 18.4324C26.8791 18.2606 26.8345 18.0917 26.7491 17.9427C26.6636 17.7936 26.5403 17.6698 26.3917 17.5838C26.2431 17.4976 26.0745 17.4521 25.9027 17.452C25.731 17.4518 25.5622 17.4969 25.4135 17.5828L19.8597 20.7831C19.7115 20.8683 19.5435 20.9132 19.3724 20.9132C19.2014 20.9132 19.0334 20.8683 18.8851 20.7831L13.3137 17.575C13.1653 17.4894 12.997 17.4444 12.8257 17.4445C12.6544 17.4446 12.4862 17.4898 12.3379 17.5755C12.1896 17.6611 12.0664 17.7843 11.9807 17.9327C11.8951 18.081 11.85 18.2493 11.8499 18.4206V27.6004C11.8501 27.7715 11.8053 27.9396 11.72 28.088C11.6348 28.2363 11.512 28.3597 11.364 28.4456C11.2161 28.5316 11.0481 28.5771 10.877 28.5777C10.7059 28.5783 10.5377 28.5339 10.3891 28.449L7.29724 26.6815C7.14748 26.5959 7.02304 26.4723 6.93658 26.323C6.85013 26.1738 6.80475 26.0044 6.80506 25.8319L6.83243 9.78695C6.83279 9.6159 6.87808 9.44794 6.96376 9.2999C7.04944 9.15185 7.1725 9.0289 7.32064 8.94337C7.46877 8.85784 7.63677 8.81271 7.80782 8.81252C7.97888 8.81233 8.14698 8.85707 8.29531 8.94227L18.8861 15.0253C19.0341 15.1103 19.2018 15.1551 19.3724 15.1551C19.5431 15.1551 19.7108 15.1103 19.8588 15.0253L30.4467 8.94227C30.6712 8.81329 30.9376 8.77872 31.1875 8.84616C31.4374 8.9136 31.6503 9.07752 31.7793 9.30189C31.8648 9.4502 31.9096 9.61858 31.9096 9.78996V25.8386C31.9097 26.0103 31.8644 26.179 31.7785 26.3277C31.6926 26.4763 31.569 26.5997 31.4202 26.6854L25.8753 29.8787C25.7264 29.9647 25.6029 30.0884 25.517 30.2373C25.4312 30.3863 25.3862 30.5552 25.3865 30.7271C25.3868 30.8991 25.4326 31.0678 25.5191 31.2164C25.6056 31.365 25.7299 31.488 25.8792 31.5731L28.9379 33.3143C29.0857 33.3985 29.2529 33.4427 29.4231 33.4424C29.5932 33.442 29.7602 33.3972 29.9077 33.3124L36.4359 29.5633ZM37.0775 15.1669C37.0777 15.3396 37.1237 15.5091 37.2108 15.6582C37.2978 15.8074 37.4228 15.9308 37.5731 16.0159C37.7233 16.101 37.8935 16.1447 38.0662 16.1426C38.2389 16.1404 38.408 16.0925 38.5561 16.0037L41.4858 14.2459C41.6304 14.1592 41.75 14.0366 41.8332 13.8899C41.9163 13.7433 41.9602 13.5776 41.9604 13.4091V9.82689C41.96 9.69779 41.9341 9.57004 41.8841 9.45102C41.8341 9.332 41.761 9.22405 41.6691 9.13342C41.5771 9.04279 41.4681 8.97127 41.3484 8.92298C41.2287 8.87469 41.1006 8.85059 40.9715 8.85208C40.7988 8.8543 40.6298 8.90224 40.4817 8.99102L37.5521 10.7488C37.4074 10.8355 37.2876 10.9581 37.2045 11.1048C37.1213 11.2515 37.0775 11.4172 37.0775 11.5858V15.1678V15.1669Z" fill="#007FFF"/>
</g>
<defs>
<clipPath id="clip0_23_86">
<rect width="48" height="48" fill="white" transform="translate(0.430054)"/>
</clipPath>
</defs>
</svg>
