<svg width="16" height="16" viewBox="0 0 16 16" fill="none" xmlns="http://www.w3.org/2000/svg">
<g clip-path="url(#clip0_16_14)">
<path d="M7.99999 0C7.85186 0 7.70374 0.03875 7.57049 0.116L1.38699 3.68875C1.12074 3.84338 0.957489 4.11812 0.957489 4.42725V11.5728C0.957489 11.8734 1.12074 12.1567 1.38699 12.3112L7.57049 15.884C7.70088 15.96 7.84909 16 7.99999 16C8.15089 16 8.2991 15.96 8.42949 15.884L14.613 12.3112C14.8706 12.1567 15.0339 11.8734 15.0425 11.5728V4.42725C15.0425 4.12662 14.8792 3.84338 14.613 3.68875L8.42949 0.116C8.29908 0.040083 8.15089 5.93666e-05 7.99999 0ZM7.99149 1.0865C8.12024 1.0865 8.24924 1.12075 8.36086 1.1895L13.7026 4.27275C13.9345 4.4015 14.072 4.642 14.072 4.90825V11.0745C14.072 11.3321 13.9345 11.5814 13.7026 11.7102L8.36086 14.7935C8.24961 14.8613 8.12176 14.8969 7.99149 14.8965C7.86122 14.8969 7.73337 14.8613 7.62211 14.7935L2.27999 11.7102C2.04811 11.5815 1.91086 11.3408 1.91086 11.0745V4.90825C1.91086 4.65062 2.04811 4.4015 2.27999 4.27275L7.62211 1.1895C7.73337 1.12173 7.86122 1.08608 7.99149 1.0865ZM7.99149 1.344C7.91411 1.344 7.82824 1.36988 7.75099 1.41275L2.40874 4.49625C2.3359 4.5398 2.27552 4.60138 2.23342 4.67505C2.19131 4.74873 2.16891 4.83202 2.16836 4.91687V11.0834C2.16836 11.2551 2.26274 11.4184 2.40874 11.5042L7.75086 14.5872C7.81961 14.6302 7.90549 14.6561 7.99136 14.6561C8.07724 14.6561 8.15449 14.6302 8.23174 14.5874L13.5736 11.5042C13.6465 11.4607 13.7069 11.399 13.749 11.3253C13.7911 11.2516 13.8136 11.1683 13.8141 11.0834V4.91675C13.8136 4.83188 13.7911 4.74859 13.749 4.67491C13.7069 4.60123 13.6465 4.53965 13.5736 4.49613L8.23186 1.41288C8.15461 1.36988 8.07736 1.34413 7.99149 1.34413V1.344ZM8.02149 3.76588C7.97849 3.826 8.02999 3.97213 8.14149 4.14375C8.33049 4.47013 8.02149 4.65037 8.02149 4.65037C8.03011 4.59887 7.99574 4.43575 7.92699 4.35838C7.72086 4.04925 7.90986 3.90338 8.02149 3.76588ZM7.67799 4.08375C7.64361 4.11812 7.67799 4.22112 7.75536 4.33275C7.88411 4.55612 7.67786 4.67625 7.67786 4.67625C7.67786 4.64187 7.66086 4.53025 7.61786 4.48737C7.48049 4.27262 7.60074 4.17825 7.67799 4.08375ZM7.05099 4.8225H8.66549C8.71699 4.8225 8.75149 4.86525 8.75149 4.90825C8.75149 5.20875 8.70849 6.21362 8.27899 6.6945C8.27147 6.70292 8.2622 6.7096 8.25184 6.71409C8.24149 6.71858 8.23028 6.72077 8.21899 6.7205H7.49749C7.48621 6.72078 7.47501 6.71862 7.46465 6.71415C7.45429 6.70968 7.44502 6.70302 7.43749 6.69462C7.00811 6.205 6.96499 5.20025 6.96499 4.90825C6.96499 4.85662 7.00811 4.8225 7.05099 4.8225ZM7.29999 5.08875C7.27724 5.08885 7.25546 5.09793 7.23938 5.11401C7.22329 5.13009 7.21421 5.15188 7.21411 5.17462C7.22274 5.415 7.25711 6.10212 7.54911 6.44562C7.55665 6.45402 7.56592 6.46068 7.57627 6.46515C7.58663 6.46962 7.59784 6.47178 7.60911 6.4715H8.11599C8.14174 6.4715 8.15874 6.46275 8.18461 6.44562C8.47661 6.0935 8.51961 5.415 8.51961 5.17462C8.51955 5.15184 8.51047 5.13 8.49435 5.11389C8.47824 5.09777 8.4564 5.08869 8.43361 5.08862L7.29999 5.08875ZM8.38211 5.67263C8.34774 5.9045 8.27899 6.17075 8.13299 6.34263C8.11586 6.35975 8.09874 6.36812 8.08149 6.36812H7.65211C7.63486 6.36812 7.60911 6.35975 7.60061 6.3425C7.49749 6.21375 7.42886 6.042 7.38599 5.86163C7.38599 5.86163 7.88411 5.93025 8.16749 5.82713C8.37361 5.74988 8.38211 5.67263 8.38211 5.67263ZM2.52486 6.09325H6.90499C6.90499 6.12762 6.91361 6.15363 6.91361 6.188H2.52486V6.09325ZM8.82036 6.09325H13.475V6.188H8.81149C8.81149 6.15363 8.82024 6.12762 8.82024 6.09325H8.82036ZM5.98611 7.0295C6.1095 7.02992 6.23173 7.05323 6.34661 7.09825C6.45836 7.14112 6.55286 7.20988 6.63011 7.28713C6.70736 7.36438 6.76761 7.45887 6.81049 7.57062C6.85553 7.67956 6.87888 7.79624 6.87924 7.91412V7.92263C6.87924 8.04288 6.85349 8.15475 6.81049 8.26637C6.767 8.37249 6.70279 8.46887 6.62161 8.54988C6.54424 8.62713 6.44974 8.69588 6.33811 8.73875C6.22649 8.79038 6.10636 8.80713 5.97749 8.80713C5.85405 8.80682 5.73173 8.78364 5.61674 8.73875C5.50499 8.69588 5.41049 8.62713 5.33324 8.54988C5.25599 8.4725 5.19574 8.378 5.15286 8.26637C5.10786 8.15734 5.08451 8.04058 5.08411 7.92263V7.91412C5.08411 7.79387 5.10986 7.68225 5.15286 7.57062C5.19636 7.46451 5.26057 7.36814 5.34174 7.28713C5.41911 7.20988 5.51361 7.14112 5.62524 7.09812C5.73686 7.04662 5.85724 7.0295 5.98611 7.0295ZM8.35649 7.0295C8.43374 7.0295 8.50236 7.038 8.57099 7.04663C8.63974 7.06388 8.69136 7.081 8.75149 7.09812C8.80299 7.12387 8.85449 7.14975 8.89749 7.18412C8.94036 7.2185 8.98336 7.25288 9.02624 7.29588L8.82874 7.519C8.76289 7.45996 8.6909 7.40816 8.61399 7.3645C8.53674 7.32163 8.45099 7.3045 8.34786 7.3045C8.26199 7.3045 8.19324 7.32162 8.12449 7.356C8.0578 7.38893 7.99688 7.43245 7.94411 7.48488C7.89249 7.53638 7.85836 7.60487 7.82399 7.67362C7.79824 7.75087 7.78099 7.82825 7.78099 7.9055V7.91412C7.78099 8 7.79824 8.07725 7.82399 8.1545C7.84974 8.23188 7.89249 8.292 7.94399 8.352C7.99561 8.40363 8.05574 8.45525 8.12449 8.481C8.19324 8.50675 8.27061 8.5325 8.34786 8.5325C8.45099 8.5325 8.54536 8.51537 8.61411 8.4725C8.69302 8.42454 8.7677 8.36997 8.83736 8.30937L9.03486 8.50663C8.99199 8.55813 8.94899 8.59262 8.89736 8.6355C8.84586 8.6785 8.79449 8.70425 8.74286 8.73C8.69136 8.75575 8.62261 8.78175 8.56249 8.79025C8.48524 8.80737 8.40786 8.80713 8.33061 8.80713C8.21263 8.80773 8.09575 8.78448 7.98699 8.73875C7.88399 8.69588 7.78949 8.62713 7.71211 8.54988C7.63486 8.4725 7.57486 8.378 7.53199 8.26637C7.48899 8.15475 7.46336 8.04288 7.46336 7.92263V7.91412C7.46336 7.79387 7.48899 7.67362 7.53199 7.57062C7.57547 7.46657 7.63638 7.37069 7.71211 7.28713C7.78949 7.20988 7.88424 7.14112 7.99586 7.09812C8.11056 7.05234 8.23299 7.02905 8.35649 7.0295ZM12.3931 7.05538H12.6677L13.4236 8.78162H13.1057L12.9339 8.36938H12.1267L11.9462 8.7815H11.6372L12.3931 7.05538ZM2.73974 7.064H3.05736L3.58124 7.87113L4.10524 7.064H4.42311V8.7815H4.12236V7.5535L3.58124 8.36088H3.57274L3.04024 7.56213V8.79025H2.73974V7.064ZM9.63599 7.064H9.93674V7.77688H10.7612V7.064H11.0617V8.7815H10.7612V8.06013H9.93674V8.7815H9.63599V7.064ZM5.97749 7.3045C5.89161 7.3045 5.81424 7.32162 5.74561 7.356C5.67888 7.38892 5.61792 7.43244 5.56511 7.48488C5.51361 7.53638 5.47936 7.60487 5.44511 7.67362C5.41924 7.75087 5.40211 7.82825 5.40211 7.9055V7.91412C5.40211 8 5.41924 8.07725 5.44511 8.1545C5.47086 8.23188 5.51361 8.292 5.56511 8.352C5.61674 8.40363 5.67686 8.44662 5.74561 8.481C5.81436 8.51537 5.90024 8.5325 5.97749 8.5325C6.06336 8.5325 6.14074 8.51537 6.20949 8.481C6.27611 8.44807 6.33694 8.40454 6.38961 8.35213C6.44111 8.3005 6.47561 8.23175 6.50999 8.16313C6.53574 8.08575 6.55299 8.0085 6.55299 7.93113V7.92263C6.55299 7.83675 6.53574 7.75938 6.50999 7.68213C6.48424 7.60488 6.44124 7.545 6.38961 7.48488C6.33694 7.43246 6.2761 7.38894 6.20949 7.356C6.14074 7.32162 6.06336 7.3045 5.97749 7.3045ZM12.5302 7.416L12.2382 8.103H12.8222L12.5302 7.416ZM2.52499 9.32275H13.4752V9.417H2.52486L2.52499 9.32275Z" fill="#57687C"/>
</g>
<defs>
<clipPath id="clip0_16_14">
<rect width="16" height="16" fill="white"/>
</clipPath>
</defs>
</svg>
