<svg width="49" height="48" viewBox="0 0 49 48" fill="none" xmlns="http://www.w3.org/2000/svg">
<path d="M44.049 36.9338L25.4981 47.652C25.107 47.8798 24.6625 47.9998 24.21 47.9998C23.7574 47.9998 23.3129 47.8798 22.9218 47.652L4.37095 36.9342C3.5722 36.4703 3.08282 35.6202 3.08282 34.7179V13.2822C3.08282 12.3548 3.5722 11.5302 4.37095 11.0663L22.9218 0.348028C23.3129 0.12025 23.7574 0.000244141 24.21 0.000244141C24.6625 0.000244141 25.107 0.12025 25.4981 0.348028L44.049 11.0659C44.8477 11.5298 45.3371 12.3799 45.3371 13.2822V34.7183C45.3116 35.6202 44.8218 36.4699 44.049 36.9338Z" fill="#8D6748"/>
<path d="M24.1841 3.25873C23.7978 3.25873 23.4112 3.3626 23.076 3.56848L7.05034 12.8182C6.35471 13.2045 5.94296 13.9515 5.94296 14.7247V33.2235C5.94296 34.0222 6.35471 34.7441 7.05034 35.1307L23.076 44.3801C23.4112 44.5864 23.7975 44.6891 24.1841 44.6891C24.5703 44.6891 24.9573 44.5864 25.2922 44.3801L41.3178 35.1307C42.0135 34.7445 42.426 33.9967 42.426 33.2239V14.7247C42.426 13.926 42.0135 13.2045 41.3178 12.8182L25.2922 3.56848C24.9585 3.36503 24.5749 3.25795 24.1841 3.2591V3.25873ZM24.1841 4.03198C24.4417 4.03198 24.6738 4.1096 24.9056 4.23823L40.9312 13.488C41.1498 13.6187 41.3311 13.8036 41.4574 14.0247C41.5838 14.2459 41.6511 14.4959 41.6527 14.7506V33.2494C41.6527 33.765 41.3692 34.2544 40.9312 34.512L24.9056 43.7617C24.6738 43.8904 24.4417 43.968 24.1841 43.968C23.9292 43.9669 23.6795 43.8955 23.4626 43.7617L7.43696 34.512C7.21841 34.3813 7.03721 34.1965 6.91084 33.9754C6.78446 33.7543 6.71718 33.5044 6.71546 33.2497V14.7506C6.71546 14.235 6.99896 13.7456 7.43696 13.488L23.4626 4.23823C23.6947 4.1096 23.9523 4.03198 24.1841 4.03198ZM24.2741 11.2976C23.9392 11.7101 23.3726 12.1481 23.991 13.0755C24.1972 13.3072 24.3 13.797 24.2745 13.9515C24.2745 13.9515 25.2018 13.4107 24.6348 12.4316C24.3 11.9164 24.1451 11.478 24.2741 11.2976ZM23.244 12.2512C23.0118 12.5347 22.6515 12.8179 23.0636 13.4621C23.1922 13.5907 23.2436 13.926 23.2436 14.0291C23.2436 14.0291 23.8623 13.6684 23.4761 12.9986C23.244 12.6637 23.1412 12.3544 23.244 12.2512ZM21.3626 14.4675C21.2944 14.4676 21.229 14.4947 21.1808 14.5429C21.1326 14.5912 21.1054 14.6565 21.1053 14.7247C21.1053 15.6007 21.234 18.615 22.5225 20.0835C22.5451 20.1087 22.5729 20.1286 22.6039 20.142C22.635 20.1554 22.6686 20.162 22.7025 20.1611H24.867C24.9008 20.162 24.9345 20.1556 24.9656 20.1423C24.9968 20.1289 25.0246 20.109 25.0473 20.0839C26.3358 18.6409 26.4645 15.6262 26.4645 14.7247C26.4644 14.6564 26.4371 14.5908 26.3888 14.5425C26.3404 14.4942 26.2748 14.4671 26.2065 14.4671L21.3626 14.4675ZM22.11 15.2655H25.5112C25.5795 15.2658 25.6449 15.2931 25.6932 15.3414C25.7414 15.3897 25.7686 15.4552 25.7688 15.5235C25.7688 16.245 25.6398 18.2797 24.7638 19.3365C24.6866 19.3879 24.6352 19.4141 24.558 19.4141H23.0377C23.0038 19.415 22.9701 19.4085 22.939 19.3951C22.9078 19.3817 22.88 19.3617 22.8573 19.3365C21.9813 18.306 21.8786 16.245 21.8523 15.5235C21.8525 15.4552 21.8797 15.3897 21.928 15.3414C21.9763 15.2931 22.0417 15.2658 22.11 15.2655ZM25.3563 17.0175C25.3563 17.0175 25.3308 17.25 24.7125 17.4817C23.8623 17.7907 22.368 17.5845 22.368 17.5845C22.4966 18.1256 22.7025 18.6409 23.0118 19.0275C23.0377 19.0789 23.1146 19.1044 23.1663 19.1044H24.4548C24.5062 19.1044 24.5576 19.0789 24.6093 19.0275C25.0473 18.5122 25.2536 17.7131 25.3563 17.0175ZM7.78496 18.2801V18.564H20.9512C20.9512 18.4609 20.9253 18.3832 20.9253 18.2801H7.78496ZM26.6707 18.2801C26.6707 18.3832 26.6448 18.4609 26.6448 18.564H40.635V18.2801H26.6707ZM18.168 21.0885C17.7817 21.0885 17.4206 21.1399 17.0857 21.2947C16.7508 21.4234 16.4673 21.6296 16.2356 21.8614C15.992 22.1042 15.7992 22.3932 15.6686 22.7115C15.54 23.0467 15.4631 23.3812 15.4631 23.742V23.7682C15.4631 24.1286 15.54 24.4897 15.6686 24.7991C15.7976 25.134 15.978 25.4171 16.2097 25.6492C16.4415 25.881 16.7253 26.0872 17.0602 26.2159C17.4051 26.3508 17.7721 26.4206 18.1425 26.4217C18.5287 26.4217 18.8891 26.3707 19.2243 26.2159C19.5592 26.0872 19.8431 25.881 20.0748 25.6492C20.3185 25.4064 20.5112 25.1174 20.6418 24.7991C20.7705 24.4639 20.8473 24.1286 20.8473 23.7679V23.742C20.8464 23.3884 20.7766 23.0384 20.6418 22.7115C20.5128 22.3766 20.3325 22.0935 20.1007 21.8614C19.869 21.6296 19.5851 21.4234 19.2502 21.2947C18.9053 21.1596 18.5384 21.0897 18.168 21.0885ZM25.2791 21.0885C24.8666 21.0885 24.5321 21.1657 24.1972 21.2947C23.8623 21.4234 23.5785 21.6296 23.3467 21.8614C23.1193 22.1119 22.9363 22.3994 22.8056 22.7115C22.6707 23.0383 22.6008 23.3884 22.5997 23.742V23.7682C22.5997 24.1286 22.6766 24.4639 22.8056 24.7991C22.9342 25.134 23.1146 25.4171 23.3467 25.6492C23.5785 25.881 23.8623 26.0872 24.1717 26.2159C24.4977 26.3532 24.8481 26.4232 25.2018 26.4217C25.434 26.4217 25.6657 26.4217 25.8975 26.3704C26.0778 26.3449 26.2837 26.2676 26.4386 26.1904C26.5931 26.1127 26.7476 26.0351 26.9021 25.9065C27.057 25.7775 27.1856 25.6744 27.3146 25.5199L26.7221 24.9274C26.49 25.1336 26.2582 25.2881 26.052 25.4171C25.8457 25.5457 25.563 25.5971 25.2536 25.5971C25.0218 25.5971 24.7893 25.5202 24.5835 25.443C24.3772 25.3657 24.1968 25.2109 24.0423 25.0564C23.8878 24.876 23.7588 24.6956 23.6816 24.4639C23.6043 24.2314 23.553 23.9996 23.553 23.742V23.7169C23.553 23.4847 23.6043 23.2526 23.6816 23.0205C23.7847 22.8142 23.8878 22.6087 24.0423 22.4542C24.2007 22.2971 24.3834 22.1666 24.5835 22.068C24.7897 21.9645 24.996 21.9131 25.2536 21.9131C25.563 21.9131 25.8198 21.9649 26.0523 22.0935C26.2831 22.2245 26.4991 22.3799 26.6966 22.557L27.2891 21.8872C27.1601 21.7586 27.0311 21.6555 26.9021 21.5524C26.7735 21.4492 26.619 21.372 26.4645 21.2947C26.2845 21.243 26.1296 21.1916 25.9233 21.1402C25.7171 21.114 25.5108 21.0885 25.2791 21.0885ZM37.389 21.1657L35.1213 26.3445H36.0491L36.5898 25.1081H39.0116L39.5276 26.3449H40.4801L38.2132 21.1661L37.389 21.1657ZM8.42884 21.192V26.3707H9.33071V22.6856L10.9282 25.0819H10.9541L12.5771 22.6605V26.3449H13.479V21.1912H12.5257L10.9537 23.6137L9.38209 21.192H8.42884ZM29.1183 21.192V26.3445H30.0198V24.1804H32.4933V26.3449H33.3952V21.1912H32.4933V23.3299H30.0198V21.1912L29.1183 21.192ZM18.1425 21.9127C18.4001 21.9127 18.6322 21.9641 18.8381 22.0672C19.0381 22.1661 19.2209 22.2967 19.3792 22.4539C19.5337 22.6342 19.6627 22.8142 19.74 23.0464C19.8172 23.2781 19.8686 23.5099 19.8686 23.7675V23.7937C19.8686 24.0251 19.8172 24.2572 19.74 24.489C19.6368 24.6952 19.5337 24.9015 19.3792 25.056C19.2209 25.2131 19.0382 25.3436 18.8381 25.4422C18.6318 25.5457 18.4001 25.5971 18.1425 25.5971C17.9107 25.5971 17.6527 25.5457 17.4465 25.4426C17.2465 25.3438 17.0639 25.2133 16.9057 25.056C16.7512 24.8756 16.6226 24.6952 16.5453 24.4635C16.4677 24.231 16.416 23.9992 16.416 23.7416V23.7165C16.416 23.4844 16.4677 23.2522 16.5453 23.0201C16.6481 22.8139 16.7516 22.6084 16.9057 22.4539C17.0639 22.2967 17.2465 22.1663 17.4465 22.0676C17.6527 21.9641 17.8852 21.9127 18.1425 21.9127ZM37.8007 22.2476L38.6767 24.3086H36.9247L37.8007 22.2476ZM7.78496 27.9679V28.251H40.635V27.9679H7.78496Z" fill="white"/>
</svg>
