<svg width="48" height="48" viewBox="0 0 48 48" fill="none" xmlns="http://www.w3.org/2000/svg">
<path fill-rule="evenodd" clip-rule="evenodd" d="M13.1775 10.2975C12.7802 10.2962 12.3843 10.3467 12 10.4475V10.5H12.057C12.3323 10.9155 12.6392 11.3092 12.975 11.6775C13.206 12.1365 13.407 12.594 13.6365 13.053L13.6935 12.9945C13.9066 12.8254 14.0734 12.605 14.1783 12.354C14.2832 12.103 14.3228 11.8295 14.2935 11.559C14.1679 11.3653 14.0527 11.165 13.9485 10.959C13.776 10.6725 13.4025 10.5285 13.173 10.299" fill="#5D87A1"/>
<path fill-rule="evenodd" clip-rule="evenodd" d="M41.67 35.3295C39.7779 35.1966 37.8792 35.4708 36.102 36.1335C35.6715 36.306 34.9845 36.306 34.9245 36.8505C35.1555 37.08 35.1825 37.4505 35.385 37.77C35.7778 38.4352 36.2828 39.0274 36.8775 39.5205C37.4775 39.9795 38.0775 40.437 38.715 40.839C39.8325 41.5305 41.097 41.931 42.186 42.6195C42.819 43.0215 43.449 43.5375 44.082 43.9695C44.397 44.199 44.5965 44.5695 44.9985 44.7195V44.6325C44.8804 44.3137 44.7343 44.006 44.562 43.713C44.2755 43.428 43.9875 43.1685 43.6995 42.882C42.8581 41.7694 41.8514 40.7921 40.7145 39.984C39.795 39.351 37.785 38.484 37.4145 37.434L37.356 37.3755C38.0288 37.2802 38.6919 37.1256 39.3375 36.9135C40.3125 36.6555 41.202 36.714 42.2055 36.4635C42.666 36.348 43.4985 36.0615 43.4985 36.0615V35.6115C42.9855 35.1015 42.618 34.419 42.078 33.9375C40.6089 32.6551 39.0433 31.4877 37.395 30.4455C36.5145 29.877 35.379 29.511 34.4415 29.0265C34.1025 28.8555 33.5415 28.7715 33.336 28.4865C32.8697 27.8025 32.4794 27.0696 32.172 26.301C31.3328 24.6853 30.5567 23.0375 29.8455 21.3615C29.4264 20.2557 28.9431 19.1754 28.398 18.126C25.7675 13.6537 21.9706 9.98072 17.4135 7.50002C16.2636 6.94345 15.0411 6.5516 13.782 6.33602C13.071 6.30602 12.363 6.25052 11.6535 6.22352C11.1955 5.92346 10.7598 5.59059 10.35 5.22752C8.72698 4.20002 4.55698 1.99202 3.36298 4.91552C2.59798 6.76202 4.49998 8.57702 5.15248 9.51452C5.70267 10.1755 6.18744 10.8884 6.59998 11.643C6.79948 12.126 6.85648 12.6375 7.04998 13.143C7.46635 14.4407 7.96075 15.712 8.53048 16.95C8.83519 17.5619 9.18621 18.1496 9.58048 18.708C9.80998 19.0215 10.206 19.158 10.2915 19.6755C9.9769 20.3517 9.75684 21.0679 9.63748 21.804C9.14164 23.3699 8.95916 25.0181 9.10046 26.6544C9.24176 28.2908 9.70407 29.8833 10.461 31.341C10.911 32.0505 11.994 33.612 13.4415 33.015C14.718 32.505 14.4345 30.8865 14.8035 29.469C14.8875 29.1255 14.832 28.9005 15.0015 28.674V28.95C15.0015 28.95 15.726 30.5415 16.086 31.35C17.065 32.8335 18.2812 34.146 19.686 35.235C20.2416 35.7201 20.6893 36.3165 21 36.9855V37.5H21.6405C21.6271 37.268 21.5628 37.0418 21.4521 36.8375C21.3414 36.6332 21.187 36.4559 21 36.318C20.4747 35.7774 19.9937 35.1955 19.5615 34.578C18.3874 32.9058 17.3519 31.1404 16.4655 29.2995C16.0155 28.3995 15.636 27.4125 15.276 26.514C15.111 26.1675 15.111 25.644 14.8335 25.464C14.3211 26.0703 13.8764 26.7307 13.5075 27.4335C13.0596 28.8541 12.7989 30.327 12.732 31.815C12.6225 31.845 12.6765 31.815 12.6225 31.872C11.739 31.6395 11.4345 30.684 11.1015 29.874C10.2412 27.3758 10.1545 24.6763 10.8525 22.128C11.0445 21.5205 11.877 19.6065 11.544 19.026C11.3775 18.4725 10.824 18.156 10.521 17.7195C10.1342 17.1323 9.8013 16.5113 9.52648 15.864C8.86798 14.25 8.53498 12.45 7.81798 10.824C7.42107 10.042 6.95894 9.29486 6.43648 8.59052C5.85855 7.88692 5.34876 7.13002 4.91398 6.33002C4.77598 6.01052 4.58248 5.48852 4.80298 5.14052C4.81786 5.04385 4.86383 4.95466 4.93393 4.88646C5.00403 4.81825 5.09444 4.77474 5.19148 4.76252C5.54848 4.44452 6.57298 4.84952 6.93148 5.02352C7.89501 5.40283 8.81279 5.8894 9.66748 6.47402C10.0545 6.76502 10.9665 7.50152 10.9665 7.50152H11.2365C12.1545 7.70102 13.1865 7.55702 14.0505 7.81652C15.5052 8.30145 16.8935 8.96663 18.183 9.79652C21.9835 12.2192 25.0731 15.607 27.1365 19.614C27.4815 20.2725 27.627 20.877 27.942 21.564C28.542 22.974 29.292 24.414 29.892 25.785C30.4213 27.1414 31.1058 28.432 31.932 29.631C32.361 30.231 34.0845 30.549 34.86 30.864C35.5334 31.097 36.1943 31.3649 36.84 31.6665C37.8165 32.2665 38.79 32.958 39.7095 33.6165C40.167 33.9615 41.6025 34.6785 41.6895 35.253" fill="#00758F"/>
</svg>
