<svg width="16" height="15" viewBox="0 0 16 15" fill="none" xmlns="http://www.w3.org/2000/svg">
<path d="M10.65 2C10.6102 2 10.5721 2.0158 10.5439 2.04393C10.5158 2.07206 10.5 2.11022 10.5 2.15V4.8985L9.877 4.535C9.83854 4.51226 9.79468 4.50026 9.75 4.50026C9.70532 4.50026 9.66146 4.51226 9.623 4.535L8.126 5.408C8.08773 5.4301 8.05594 5.46187 8.03382 5.50013C8.01171 5.5384 8.00004 5.58181 8 5.626V7.374C8 7.464 8.048 7.547 8.126 7.592L9.623 8.465C9.66146 8.48774 9.70532 8.49974 9.75 8.49974C9.79468 8.49974 9.83854 8.48774 9.877 8.465L11.374 7.592C11.4123 7.5699 11.4441 7.53813 11.4662 7.49986C11.4883 7.4616 11.5 7.41819 11.5 7.374V2.615C11.4999 2.57139 11.4884 2.52858 11.4666 2.49078C11.4449 2.45298 11.4136 2.42152 11.376 2.3995L10.7245 2.0205C10.7021 2.00725 10.6765 2.00018 10.6505 2H10.65ZM5.75 4.501C5.70541 4.50094 5.6616 4.51267 5.623 4.535L4.126 5.408C4.08773 5.4301 4.05594 5.46187 4.03382 5.50013C4.01171 5.5384 4.00004 5.58181 4 5.626V7.374C4 7.464 4.048 7.547 4.126 7.592L5.623 8.465C5.7015 8.51 5.798 8.51 5.877 8.465L7.374 7.592C7.41227 7.5699 7.44406 7.53813 7.46618 7.49986C7.48829 7.4616 7.49996 7.41819 7.5 7.374V5.626C7.50006 5.58178 7.48844 5.53834 7.46631 5.50006C7.44419 5.46178 7.41234 5.43002 7.374 5.408L5.877 4.535C5.8384 4.51267 5.79459 4.50094 5.75 4.501ZM13.75 4.501C13.7054 4.50078 13.6615 4.51252 13.623 4.535L12.126 5.408C12.0877 5.4301 12.0559 5.46187 12.0338 5.50013C12.0117 5.5384 12 5.58181 12 5.626V7.374C12 7.464 12.048 7.547 12.126 7.592L13.578 8.4695C13.6164 8.49279 13.6603 8.50527 13.7052 8.50562C13.7501 8.50597 13.7943 8.49418 13.833 8.4715L14.547 8.0565C14.5638 8.04661 14.5777 8.0325 14.5874 8.01557C14.5971 7.99865 14.6022 7.97949 14.6022 7.96C14.6022 7.94051 14.5971 7.92135 14.5874 7.90443C14.5777 7.8875 14.5638 7.87339 14.547 7.8635L13 6.952V6.055L13.75 5.6185L14.5 6.055V6.68C14.5 6.7635 14.57 6.7765 14.617 6.7485C14.8698 6.60093 15.1228 6.45376 15.376 6.307C15.4137 6.28502 15.4449 6.25356 15.4667 6.21576C15.4884 6.17795 15.4999 6.13512 15.5 6.0915V5.6265C15.5001 5.58229 15.4884 5.53884 15.4663 5.50056C15.4442 5.46228 15.4123 5.43052 15.374 5.4085L13.877 4.5355C13.8384 4.51308 13.7946 4.50135 13.75 4.5015V4.501ZM1.75 4.502C1.70539 4.50178 1.66153 4.51352 1.623 4.536L0.126 5.408C0.0876815 5.4303 0.0558809 5.46226 0.0337718 5.50068C0.0116626 5.53911 1.79659e-05 5.58267 0 5.627V7.8585C0 7.9675 0.118 8.035 0.212 7.9805L0.876 7.594C0.913711 7.57194 0.944995 7.54039 0.966747 7.5025C0.988499 7.46461 0.999963 7.42169 1 7.378V6.0565L1.75 5.619L2.5 6.0565V7.378C2.50007 7.42162 2.51156 7.46445 2.53331 7.50226C2.55506 7.54006 2.58633 7.57152 2.624 7.5935L3.288 7.9805C3.30944 7.993 3.3338 7.99961 3.35861 7.99968C3.38343 7.99975 3.40782 7.99327 3.42933 7.98089C3.45084 7.96851 3.4687 7.95068 3.48111 7.92919C3.49351 7.9077 3.50003 7.88331 3.5 7.8585V5.627C3.49998 5.58267 3.48834 5.53911 3.46623 5.50068C3.44412 5.46226 3.41232 5.4303 3.374 5.408L1.877 4.536C1.83847 4.51352 1.79461 4.50178 1.75 4.502ZM9.75 5.618L10.5 6.0555V6.9445L9.75 7.382L9 6.9445V6.055L9.75 5.6175V5.618ZM13.75 6.002L13.3215 6.252V6.751L13.75 7L14.1785 6.751V6.252L13.75 6.002ZM7.703 7.999C7.65106 7.99871 7.59992 8.01179 7.5545 8.037L6.1485 8.85C6.10325 8.87565 6.06565 8.91288 6.03955 8.95787C6.01345 9.00286 5.9998 9.05399 6 9.106V10.729C6 10.8335 6.0585 10.932 6.1485 10.985L6.5185 11.196C6.696 11.2835 6.7615 11.2835 6.842 11.2835C7.107 11.2835 7.258 11.125 7.258 10.845V9.2415C7.25813 9.23603 7.25717 9.23059 7.25517 9.2255C7.25317 9.22041 7.25017 9.21577 7.24635 9.21186C7.24253 9.20795 7.23797 9.20484 7.23292 9.20271C7.22788 9.20059 7.22247 9.1995 7.217 9.1995H7.039C7.02786 9.1995 7.01718 9.20393 7.0093 9.2118C7.00143 9.21968 6.997 9.23036 6.997 9.2415V10.845C6.997 10.9665 6.8685 11.0915 6.659 10.987L6.274 10.765C6.26772 10.761 6.26252 10.7556 6.25885 10.7491C6.25519 10.7427 6.25318 10.7354 6.253 10.728V9.105C6.253 9.0905 6.26 9.0735 6.2745 9.066L7.6805 8.2555C7.68724 8.25178 7.6948 8.24983 7.7025 8.24983C7.71019 8.24983 7.71776 8.25178 7.7245 8.2555L9.132 9.0655C9.1465 9.0735 9.1535 9.088 9.1535 9.105V10.728C9.15346 10.7358 9.15148 10.7434 9.14772 10.7502C9.14397 10.7571 9.13856 10.7628 9.132 10.767L7.7245 11.5805C7.71776 11.5842 7.71019 11.5862 7.7025 11.5862C7.6948 11.5862 7.68724 11.5842 7.6805 11.5805L7.3215 11.3665C7.3115 11.3615 7.2965 11.359 7.287 11.364C7.2212 11.4062 7.14985 11.439 7.075 11.4615C7.0505 11.469 7.0175 11.484 7.088 11.523L7.5545 11.8005C7.60012 11.8253 7.65107 11.8387 7.703 11.8395C7.75474 11.84 7.80555 11.8258 7.8495 11.7985L9.256 10.985C9.30125 10.9593 9.33885 10.9221 9.36495 10.8771C9.39105 10.8321 9.4047 10.781 9.4045 10.729V9.106C9.40385 9.05416 9.38983 9.00337 9.36382 8.95853C9.33781 8.91368 9.30067 8.8763 9.256 8.85L7.8495 8.0375C7.80486 8.01218 7.75432 7.99907 7.703 7.9995V7.999ZM9.8965 8.748C9.86104 8.74807 9.82595 8.75511 9.79321 8.76874C9.76048 8.78237 9.73075 8.80232 9.70573 8.82743C9.65519 8.87816 9.62687 8.94689 9.627 9.0185C9.62713 9.09011 9.65571 9.15873 9.70643 9.20927C9.75716 9.25981 9.82589 9.28813 9.8975 9.288C9.96911 9.28787 10.0377 9.25929 10.0883 9.20857C10.1388 9.15784 10.1671 9.08911 10.167 9.0175C10.1669 8.94589 10.1383 8.87727 10.0876 8.82673C10.0368 8.77619 9.96811 8.74787 9.8965 8.748ZM9.8935 8.791C10.0205 8.791 10.1235 8.891 10.1235 9.0175C10.1226 9.07822 10.0981 9.1362 10.0551 9.17914C10.0122 9.22207 9.95422 9.2466 9.8935 9.2475C9.83312 9.24684 9.77546 9.22225 9.73319 9.17913C9.69091 9.13601 9.66747 9.07788 9.668 9.0175C9.6678 8.98778 9.67349 8.95832 9.68474 8.93082C9.69599 8.90332 9.71258 8.87831 9.73354 8.85725C9.75451 8.83619 9.77944 8.8195 9.80689 8.80813C9.83435 8.79675 9.86378 8.79093 9.8935 8.791ZM9.795 8.8645V9.168H9.8525V9.047H9.9065C9.9285 9.047 9.9335 9.056 9.9385 9.073C9.9385 9.0755 9.9475 9.1545 9.95 9.169H10.0125C10.0046 9.14265 9.9997 9.11547 9.998 9.088C9.991 9.049 9.989 9.022 9.9475 9.0195C9.9695 9.012 10.006 9.0005 10.006 8.9445C10.006 8.864 9.936 8.8645 9.8995 8.8645H9.795ZM9.8525 8.913H9.9015C9.9165 8.913 9.9455 8.913 9.9455 8.954C9.9455 8.971 9.938 8.999 9.8985 8.998H9.8525V8.913ZM8.08 9.161C7.6785 9.161 7.44 9.3325 7.44 9.6145C7.44 9.9235 7.679 10.006 8.0635 10.0445C8.5235 10.091 8.5595 10.157 8.5595 10.247C8.5595 10.405 8.4325 10.4705 8.1355 10.4705C7.763 10.4705 7.6815 10.3785 7.6545 10.1935C7.652 10.1735 7.6345 10.159 7.6125 10.159H7.4295C7.42403 10.159 7.41862 10.1601 7.41358 10.1622C7.40853 10.1643 7.40397 10.1674 7.40015 10.1714C7.39633 10.1753 7.39333 10.1799 7.39133 10.185C7.38933 10.1901 7.38837 10.1955 7.3885 10.201C7.3885 10.437 7.5175 10.7195 8.133 10.7195C8.5845 10.7195 8.84 10.5445 8.84 10.2375C8.84 9.9335 8.635 9.8525 8.202 9.794C7.764 9.7355 7.7205 9.706 7.7205 9.6035C7.7205 9.5185 7.7565 9.407 8.0805 9.407C8.3695 9.407 8.4775 9.4705 8.5215 9.665C8.5265 9.685 8.54 9.6965 8.5595 9.6965H8.742C8.754 9.6965 8.7645 9.6915 8.7715 9.6845C8.779 9.675 8.7835 9.6655 8.7815 9.6535C8.7525 9.3175 8.5305 9.161 8.08 9.161Z" fill="#57687C"/>
</svg>
