<svg width="79" height="48" viewBox="0 0 79 48" fill="none" xmlns="http://www.w3.org/2000/svg">
<g clip-path="url(#clip0_23_50)">
<path d="M38.7232 47.8615C38.4583 47.8615 38.211 47.7909 37.9812 47.6672L35.6315 46.2715C35.2781 46.0771 35.4548 46.0064 35.5609 45.9711C36.0378 45.8122 36.1262 45.7767 36.6209 45.4942C36.6739 45.4587 36.7447 45.4765 36.7976 45.5118L38.5997 46.5895C38.6704 46.6248 38.7587 46.6248 38.8116 46.5895L45.861 42.5083C45.9317 42.4729 45.9671 42.4022 45.9671 42.314V34.1693C45.9671 34.0807 45.9317 34.0103 45.861 33.9748L38.8116 29.9113C38.741 29.8758 38.6526 29.8758 38.5997 29.9113L31.5503 33.9748C31.4797 34.0101 31.4442 34.0985 31.4442 34.1691V42.3138C31.4442 42.3846 31.4797 42.4728 31.5503 42.5083L33.4761 43.6213C34.5185 44.1513 35.1722 43.5329 35.1722 42.9146V34.8758C35.1722 34.7699 35.2605 34.6638 35.3842 34.6638H36.2852C36.3913 34.6638 36.4972 34.7521 36.4972 34.8758V42.9146C36.4972 44.3102 35.7375 45.123 34.4124 45.123C34.0061 45.123 33.6881 45.123 32.787 44.6813L30.932 43.6213C30.4726 43.3564 30.1899 42.8615 30.1899 42.3315V34.1868C30.1899 33.6568 30.4726 33.162 30.932 32.8971L37.9812 28.8159C38.423 28.5685 39.0238 28.5685 39.4654 28.8159L46.5147 32.8971C46.974 33.162 47.2568 33.6568 47.2568 34.1868V42.3315C47.2568 42.8615 46.974 43.3564 46.5147 43.6213L39.4654 47.7025C39.2356 47.8086 38.9706 47.8615 38.7232 47.8615ZM40.8964 42.2609C37.8047 42.2609 37.1686 40.8475 37.1686 39.6461C37.1686 39.5401 37.2569 39.4341 37.3806 39.4341H38.2993C38.4053 39.4341 38.4936 39.5047 38.4936 39.6108C38.635 40.5471 39.0414 41.0065 40.9141 41.0065C42.3981 41.0065 43.0344 40.6708 43.0344 39.8757C43.0344 39.4164 42.8575 39.0808 40.5431 38.8511C38.6173 38.6566 37.4159 38.2327 37.4159 36.6957C37.4159 35.2645 38.6175 34.4164 40.6315 34.4164C42.8928 34.4164 44.006 35.1939 44.1474 36.8898C44.1474 36.943 44.1297 36.9959 44.0944 37.0489C44.0589 37.0843 44.006 37.1196 43.953 37.1196H43.0342C42.9459 37.1196 42.8575 37.0489 42.8399 36.9606C42.6279 35.989 42.0802 35.6709 40.6315 35.6709C39.006 35.6709 38.8116 36.2363 38.8116 36.6602C38.8116 37.1726 39.0414 37.3316 41.2321 37.6142C43.4052 37.897 44.43 38.3034 44.43 39.8227C44.4123 41.3775 43.1403 42.2609 40.8964 42.2609Z" fill="#539E43"/>
<path d="M16.8508 16.0069C16.8508 15.6889 16.6741 15.3884 16.3915 15.2294L8.90042 10.9186C8.7766 10.8478 8.63535 10.8125 8.49411 10.7948H8.42333C8.28208 10.7948 8.14068 10.8478 8.01701 10.9186L0.525952 15.2294C0.24315 15.3884 0.0665894 15.6888 0.0665894 16.0069L0.0843218 27.5968C0.0843218 27.7557 0.172679 27.9147 0.313927 27.9855C0.455328 28.0739 0.631889 28.0739 0.75571 27.9855L5.20794 25.4414C5.49059 25.2824 5.6673 24.982 5.6673 24.664V19.24C5.6673 18.9221 5.84386 18.6217 6.12667 18.4627L8.01701 17.3673C8.15841 17.2789 8.31739 17.2434 8.47637 17.2434C8.63535 17.2434 8.79433 17.2789 8.91816 17.3673L10.8085 18.4627C11.0913 18.6217 11.2679 18.9219 11.2679 19.24V24.664C11.2679 24.982 11.4446 25.2824 11.7272 25.4414L16.1795 27.9855C16.2482 28.0288 16.3279 28.0518 16.4091 28.0518C16.4904 28.0518 16.57 28.0288 16.6388 27.9855C16.7802 27.9147 16.8686 27.7557 16.8686 27.5968L16.8508 16.0069ZM52.8574 0.0530218C52.7162 -0.0177553 52.5395 -0.0177553 52.4156 0.0530218C52.2744 0.141378 52.186 0.282627 52.186 0.441608V11.9257C52.186 12.0316 52.1331 12.1376 52.0271 12.2083C51.9211 12.2612 51.815 12.2612 51.7091 12.2083L49.8363 11.1306C49.699 11.0525 49.5437 11.0113 49.3858 11.0113C49.2278 11.0113 49.0725 11.0525 48.9352 11.1306L41.4441 15.4592C41.1615 15.6182 40.9848 15.9186 40.9848 16.2365V24.8759C40.9848 25.1939 41.1615 25.4944 41.4441 25.6534L48.9352 29.9819C49.0725 30.0601 49.2278 30.1012 49.3858 30.1012C49.5437 30.1012 49.699 30.0601 49.8363 29.9819L57.3274 25.6534C57.61 25.4944 57.7867 25.194 57.7867 24.8759V3.33919C57.7867 3.00349 57.61 2.70326 57.3274 2.54413L52.8574 0.0530218ZM52.1685 22.0315C52.1685 22.1199 52.1331 22.1905 52.0624 22.2258L49.5006 23.7098C49.4648 23.7273 49.4256 23.7364 49.3858 23.7364C49.3459 23.7364 49.3067 23.7273 49.2709 23.7098L46.7091 22.2258C46.6384 22.1905 46.6031 22.1021 46.6031 22.0315V19.0633C46.6031 18.975 46.6384 18.9043 46.7091 18.869L49.2709 17.3848C49.3067 17.3674 49.3459 17.3583 49.3858 17.3583C49.4256 17.3583 49.4648 17.3674 49.5006 17.3848L52.0624 18.869C52.1331 18.9042 52.1685 18.9927 52.1685 19.0633V22.0315ZM77.7864 18.9927C78.0692 18.8337 78.2282 18.5333 78.2282 18.2152V16.1128C78.2282 15.7949 78.0515 15.4945 77.7864 15.3355L70.3484 11.0247C70.2111 10.9465 70.0558 10.9054 69.8978 10.9054C69.7398 10.9054 69.5845 10.9465 69.4472 11.0247L61.9562 15.3531C61.6734 15.5121 61.4968 15.8125 61.4968 16.1304V24.77C61.4968 25.0879 61.6735 25.3883 61.9562 25.5473L69.3942 29.7875C69.677 29.9465 70.0127 29.9465 70.2778 29.7875L74.7829 27.279C74.9243 27.2082 75.0126 27.0492 75.0126 26.8902C75.0126 26.7312 74.9243 26.5723 74.7829 26.5015L67.2565 22.1729C67.1151 22.0846 67.0267 21.9433 67.0267 21.7843V19.0812C67.0267 18.9222 67.1151 18.7632 67.2565 18.6925L69.6062 17.3497C69.675 17.3064 69.7546 17.2834 69.8359 17.2834C69.9172 17.2834 69.9968 17.3064 70.0656 17.3497L72.4154 18.6925C72.5568 18.7808 72.645 18.9221 72.645 19.0812V21.2013C72.645 21.3603 72.7334 21.5193 72.8748 21.5899C72.9436 21.6332 73.0232 21.6562 73.1045 21.6562C73.1858 21.6562 73.2654 21.6332 73.3342 21.5899L77.7864 18.9927Z" fill="#333333"/>
<path d="M69.7829 18.5862C69.8091 18.5689 69.8399 18.5597 69.8713 18.5597C69.9027 18.5597 69.9334 18.5689 69.9596 18.5862L71.3908 19.4166C71.4437 19.452 71.479 19.5049 71.479 19.5756V21.2364C71.479 21.3071 71.4438 21.3601 71.3908 21.3954L69.9596 22.2258C69.9334 22.2431 69.9027 22.2523 69.8713 22.2523C69.8399 22.2523 69.8091 22.2431 69.7829 22.2258L68.3519 21.3954C68.2989 21.3601 68.2636 21.3071 68.2636 21.2364V19.5757C68.2636 19.5049 68.2987 19.4519 68.3519 19.4167L69.7829 18.5862Z" fill="#539E43"/>
<path d="M29.3772 11.06C29.2399 10.9818 29.0846 10.9407 28.9267 10.9407C28.7687 10.9407 28.6135 10.9818 28.4762 11.06L21.0382 15.3529C20.7554 15.5119 20.5964 15.8123 20.5964 16.1302V24.7345C20.5964 25.0524 20.7731 25.3528 21.0382 25.5118L28.4762 29.805C28.6135 29.8832 28.7687 29.9243 28.9267 29.9243C29.0846 29.9243 29.2399 29.8832 29.3772 29.805L36.8153 25.5118C37.098 25.3528 37.2571 25.0524 37.2571 24.7345V16.1304C37.2571 15.8124 37.0802 15.5121 36.8153 15.3531L29.3772 11.06Z" fill="url(#paint0_linear_23_50)"/>
</g>
<defs>
<linearGradient id="paint0_linear_23_50" x1="1156.66" y1="342.906" x2="341.38" y2="1623.95" gradientUnits="userSpaceOnUse">
<stop stop-color="#41873F"/>
<stop offset="0.3288" stop-color="#418B3D"/>
<stop offset="0.6352" stop-color="#419637"/>
<stop offset="0.9319" stop-color="#3FA92D"/>
<stop offset="1" stop-color="#3FAE2A"/>
</linearGradient>
<clipPath id="clip0_23_50">
<rect width="78.27" height="48" fill="white" transform="translate(0.0300293)"/>
</clipPath>
</defs>
</svg>
