<svg width="16" height="16" viewBox="0 0 16 16" fill="none" xmlns="http://www.w3.org/2000/svg">
<g clip-path="url(#clip0_16_8)">
<path d="M8 3.66669C3.514 3.66669 0 5.57002 0 8.00002C0 10.43 3.514 12.3334 8 12.3334C12.486 12.3334 16 10.43 16 8.00002C16 5.57002 12.486 3.66669 8 3.66669ZM7.16933 5.00002H8.04267L7.76533 6.33335H8.54533C9.04 6.33335 9.372 6.40269 9.56133 6.57535C9.746 6.74602 9.802 7.02602 9.728 7.40735L9.38133 9.00002H8.49333L8.81267 7.52735C8.85133 7.32535 8.836 7.18469 8.768 7.11069C8.70067 7.03669 8.552 7.00002 8.32933 7.00002H7.63L7.208 9.00002H6.33333L7.16933 5.00002ZM3.33333 6.33335H5.11067C5.958 6.33335 6.47133 6.90135 6.27067 7.74869C6.03733 8.73335 5.41333 9.00002 4.264 9.00002H3.71467L3.54067 10H2.65733L3.33333 6.33335ZM10.3333 6.33335H12.1107C12.958 6.33335 13.4713 6.90135 13.2707 7.74869C13.0373 8.73335 12.4127 9.00002 11.264 9.00002H10.7147L10.5407 10H9.65733L10.3333 6.33335ZM4.09 7.00002L3.83867 8.33335H4.40867C4.902 8.33335 5.36067 8.27735 5.43733 7.54135C5.466 7.25669 5.34733 7.00002 4.77733 7.00002H4.09ZM11.09 7.00002L10.8387 8.33335H11.4087C11.902 8.33335 12.3607 8.27735 12.4373 7.54135C12.466 7.25669 12.348 7.00002 11.7773 7.00002H11.09Z" fill="#57687C"/>
</g>
<defs>
<clipPath id="clip0_16_8">
<rect width="16" height="16" fill="white"/>
</clipPath>
</defs>
</svg>
