<svg width="92" height="48" viewBox="0 0 92 48" fill="none" xmlns="http://www.w3.org/2000/svg">
<g clip-path="url(#clip0_23_35)">
<path d="M45.515 47.8578C70.6501 47.8578 91.0261 37.1445 91.0261 23.9289C91.0261 10.7133 70.6501 0 45.515 0C20.3799 0 0.00388718 10.7133 0.00388718 23.9289C0.00388718 37.1445 20.3799 47.8578 45.515 47.8578Z" fill="url(#paint0_radial_23_35)"/>
<path d="M45.515 46.08C69.6683 46.08 89.2483 36.1626 89.2483 23.9289C89.2483 11.6952 69.6683 1.77777 45.515 1.77777C21.3617 1.77777 1.78167 11.6952 1.78167 23.9289C1.78167 36.1626 21.3617 46.08 45.515 46.08Z" fill="#6181B6"/>
<path d="M54.3683 31.1111L56.5372 19.9466C57.035 17.4222 56.6083 15.5378 55.3283 14.3644C54.0839 13.2266 51.9506 12.6578 48.8217 12.6578H45.0528L46.1194 7.11108C46.155 6.89775 46.1194 6.68442 45.9772 6.50664C45.835 6.32886 45.6572 6.25775 45.4439 6.25775H40.2528C39.8972 6.25775 39.6128 6.50664 39.5417 6.82664L37.2306 18.6666C37.0172 17.3155 36.5194 16.1778 35.6661 15.2533C34.1372 13.5111 31.755 12.6222 28.5194 12.6222H18.5283C18.1728 12.6222 17.8883 12.8711 17.8172 13.1911L13.1594 37.2266C13.1239 37.44 13.1594 37.6533 13.3017 37.8311C13.4439 38.0089 13.6217 38.08 13.835 38.08H19.0617C19.4172 38.08 19.7017 37.8311 19.7728 37.5111L20.9106 31.7155H24.7861C26.8128 31.7155 28.555 31.5022 29.8706 31.0755C31.2572 30.6133 32.5017 29.8666 33.6039 28.8355C34.4928 28.0178 35.2394 27.0933 35.8083 26.0978L34.8839 30.8978C34.8483 31.1111 34.8839 31.3244 35.0261 31.5022C35.1683 31.68 35.3461 31.7511 35.5594 31.7511H40.7506C41.1061 31.7511 41.3906 31.5022 41.4617 31.1822L44.0217 18.0266H47.5772C49.1061 18.0266 49.5328 18.3111 49.675 18.4533C49.7817 18.56 49.995 18.9866 49.7461 20.3022L47.6839 30.9333C47.6483 31.1466 47.6839 31.36 47.8261 31.5378C47.9683 31.7155 48.1461 31.7866 48.3594 31.7866H53.6928C54.0128 31.68 54.2972 31.4311 54.3683 31.1111ZM30.3328 21.8666C30.0128 23.5378 29.4083 24.7466 28.5194 25.4222C27.6306 26.0978 26.1728 26.4533 24.2528 26.4533H21.9417L23.6128 17.8489H26.5994C28.8039 17.8489 29.6928 18.3111 30.0483 18.7022C30.5106 19.2711 30.6172 20.3733 30.3328 21.8666ZM76.555 15.2533C75.0261 13.5111 72.6439 12.6222 69.4083 12.6222H59.3461C58.9906 12.6222 58.7061 12.8711 58.635 13.1911L53.9772 37.1911C53.9417 37.4044 53.9772 37.6178 54.1194 37.7955C54.2617 37.9733 54.4394 38.0444 54.6528 38.0444H59.8794C60.235 38.0444 60.5194 37.7955 60.5906 37.4755L61.7283 31.68H65.6039C67.6306 31.68 69.3728 31.4666 70.6883 31.04C72.075 30.5778 73.3194 29.8311 74.4217 28.8C75.3461 27.9466 76.1283 26.9866 76.6972 25.9555C77.2661 24.9244 77.6928 23.7866 77.9417 22.5422C78.5461 19.4489 78.0839 17.0311 76.555 15.2533ZM71.115 21.8666C70.795 23.5378 70.1906 24.7466 69.3017 25.4222C68.4128 26.0978 66.955 26.4533 65.035 26.4533H62.7239L64.395 17.8489H67.3817C69.5861 17.8489 70.475 18.3111 70.8306 18.7022C71.3283 19.2711 71.435 20.3733 71.115 21.8666Z" fill="white"/>
<path d="M26.5994 17.1378C28.5906 17.1378 29.9061 17.4933 30.5817 18.24C31.2572 18.9866 31.3994 20.2311 31.0439 22.0089C30.6883 23.8578 29.9772 25.2089 28.9461 25.9911C27.915 26.7733 26.3506 27.1644 24.2528 27.1644H21.0883L23.0439 17.1378H26.5994ZM13.8706 37.3333H19.0972L20.3417 30.9689H24.8217C26.8128 30.9689 28.4128 30.7555 29.6928 30.3289C30.9728 29.9022 32.1106 29.2267 33.1772 28.2311C34.0661 27.4133 34.7772 26.5244 35.3106 25.5644C35.8439 24.6044 36.235 23.5378 36.4483 22.3644C37.0172 19.52 36.5906 17.3155 35.2039 15.7155C33.8172 14.1155 31.6128 13.3333 28.5906 13.3333H18.5283L13.8706 37.3333ZM40.2883 6.96887H45.4794L44.235 13.3333H48.8572C51.7728 13.3333 53.7639 13.8311 54.8661 14.8622C55.9683 15.8933 56.2883 17.5289 55.8617 19.8044L53.6928 30.9689H48.4306L50.4928 20.3378C50.7417 19.1289 50.635 18.3111 50.2439 17.8844C49.8528 17.4578 48.9639 17.2089 47.6483 17.2089H43.4883L40.8217 30.9689H35.6306L40.2883 6.96887ZM67.3817 17.1378C69.3728 17.1378 70.6883 17.4933 71.3639 18.24C72.0394 18.9866 72.1817 20.2311 71.8261 22.0089C71.4706 23.8578 70.7594 25.2089 69.7283 25.9911C68.6972 26.7733 67.1328 27.1644 65.035 27.1644H61.8706L63.8261 17.1378H67.3817ZM54.6528 37.3333H59.8794L61.1239 30.9689H65.6039C67.595 30.9689 69.195 30.7555 70.475 30.3289C71.755 29.9022 72.8928 29.2267 73.9594 28.2311C74.8483 27.4133 75.5594 26.5244 76.0928 25.5644C76.6261 24.6044 77.0172 23.5378 77.2306 22.3644C77.7994 19.52 77.3728 17.3155 75.9861 15.7155C74.5994 14.1155 72.395 13.3333 69.3728 13.3333H59.3106L54.6528 37.3333Z" fill="#000004"/>
</g>
<defs>
<radialGradient id="paint0_radial_23_35" cx="0" cy="0" r="1" gradientUnits="userSpaceOnUse" gradientTransform="translate(27.3289 8.41512) scale(59.7673 59.7673)">
<stop stop-color="white"/>
<stop offset="0.5" stop-color="#4C6B97"/>
<stop offset="1" stop-color="#231F20"/>
</radialGradient>
<clipPath id="clip0_23_35">
<rect width="91.03" height="48" fill="white"/>
</clipPath>
</defs>
</svg>
