<svg width="47" height="48" viewBox="0 0 47 48" fill="none" xmlns="http://www.w3.org/2000/svg">
<g clip-path="url(#clip0_23_240)">
<path d="M46.3674 28.7429C46.0883 27.8977 45.3572 27.3089 44.4117 27.1677C43.9659 27.1011 43.4554 27.1295 42.8512 27.254C41.7981 27.4713 41.0168 27.554 40.4467 27.57C42.5988 23.9364 44.3488 19.7927 45.3563 15.8922C46.9854 9.58511 46.1148 6.71184 45.0976 5.4122C42.4054 1.9722 38.4776 0.124199 33.739 0.0676532C31.2112 0.0367441 28.9921 0.535835 27.8345 0.894744C26.7567 0.704562 25.5977 0.598381 24.3817 0.578744C22.1023 0.542381 20.0883 1.03929 18.3674 2.06056C17.4147 1.73838 15.8856 1.2842 14.1197 0.99438C9.96665 0.312562 6.61938 0.843835 4.17102 2.57347C1.20629 4.66765 -0.168074 8.3062 0.086108 13.388C0.166835 15.0015 1.06938 19.9106 2.49047 24.5662C3.3072 27.2422 4.17811 29.4644 5.07902 31.1717C6.35665 33.5926 7.72374 35.0182 9.25847 35.5302C10.1187 35.8167 11.6816 36.0175 13.3254 34.6484C13.5337 34.9007 13.8117 35.1515 14.1807 35.3844C14.6492 35.6798 15.2221 35.9213 15.7943 36.0644C17.8563 36.5798 19.7877 36.4509 21.4356 35.7284C21.4457 36.0215 21.4536 36.3015 21.4601 36.5433C21.471 36.9355 21.4819 37.32 21.4963 37.6797C21.5939 40.1113 21.7594 42.002 22.2496 43.3249C22.2765 43.3977 22.3127 43.5086 22.3508 43.6262C22.5954 44.3749 23.0043 45.6284 24.0447 46.61C25.1219 47.6269 26.425 47.9387 27.6185 47.9387C28.217 47.9387 28.7881 47.8602 29.289 47.7529C31.0745 47.3702 33.1023 46.7873 34.5692 44.6986C35.9561 42.724 36.6303 39.75 36.7523 35.064C36.7681 34.9315 36.7827 34.8049 36.7967 34.6844L36.8257 34.4367L37.1525 34.4655L37.2367 34.4711C39.0552 34.554 41.2788 34.1684 42.6445 33.534C43.7236 33.0333 47.1816 31.2077 46.3674 28.7429Z" fill="black"/>
<path d="M43.2579 29.2222C37.8506 30.3376 37.4788 28.5069 37.4788 28.5069C43.1879 20.0355 45.5746 9.28218 43.5152 6.65036C37.8963 -0.528731 28.1699 2.86654 28.0075 2.95454L27.9553 2.964C26.887 2.74218 25.6915 2.61018 24.3477 2.58818C21.9012 2.54818 20.0452 3.22963 18.6368 4.29763C18.6368 4.29763 1.28589 -2.85037 2.09298 13.2875C2.26462 16.7205 7.01371 39.2644 12.6781 32.4551C14.7484 29.9651 16.749 27.8598 16.749 27.8598C17.7424 28.5198 18.9319 28.8565 20.1788 28.7356L20.2757 28.6535C20.2455 28.9625 20.2593 29.2649 20.3144 29.6229C18.8552 31.2533 19.2841 31.5395 16.367 32.14C13.4152 32.7484 15.1492 33.8313 16.2813 34.1145C17.6539 34.4576 20.8292 34.9438 22.9746 31.9404L22.8892 32.2831C23.4608 32.7411 23.8623 35.2618 23.795 37.5471C23.7277 39.8322 23.6828 41.4011 24.1332 42.6265C24.5839 43.852 25.0328 46.6093 28.8677 45.7876C32.0719 45.1009 33.7324 43.3215 33.9635 40.3531C34.1273 38.2429 34.4984 38.5549 34.5217 36.6682L34.8193 35.7751C35.1624 32.9145 34.8739 31.9916 36.8479 32.4209L37.3279 32.4631C38.7806 32.5291 40.6824 32.2293 41.7986 31.7105C44.2019 30.5953 45.6273 28.7329 43.2575 29.2222H43.2579Z" fill="#336791"/>
<path d="M19.6525 14.8227C19.1652 14.7549 18.7239 14.8176 18.5006 14.9867C18.3752 15.0818 18.3363 15.192 18.3257 15.2678C18.2977 15.4687 18.4385 15.6909 18.525 15.8054C18.7697 16.1298 19.1272 16.3527 19.481 16.4018C19.5323 16.4091 19.5834 16.4124 19.6341 16.4124C20.2241 16.4124 20.7606 15.9529 20.8079 15.6138C20.867 15.1891 20.2505 14.9058 19.6525 14.8227ZM35.795 14.8362C35.7485 14.5033 35.1561 14.4084 34.5939 14.4865C34.0325 14.5647 33.4881 14.8182 33.5336 15.1518C33.5699 15.4113 34.0385 15.8542 34.593 15.8542C34.6399 15.8542 34.6872 15.8511 34.7348 15.8444C35.105 15.7931 35.3766 15.558 35.5057 15.4225C35.7021 15.216 35.8159 14.9858 35.795 14.8362Z" fill="white"/>
<path d="M45.0572 29.0955C44.851 28.472 44.1874 28.2715 43.0848 28.4991C39.8112 29.1747 38.6388 28.7067 38.2539 28.4233C40.7985 24.5469 42.8918 19.8611 44.021 15.4893C44.5559 13.4184 44.8514 11.4951 44.8756 9.92746C44.9023 8.20691 44.6092 6.94255 44.0048 6.17018C41.5681 3.05655 37.9918 1.38636 33.6627 1.34055C30.6865 1.30709 28.1719 2.06873 27.6845 2.28291C26.6579 2.02764 25.5388 1.87091 24.3205 1.85091C22.0863 1.81473 20.155 2.34964 18.5561 3.44C17.8616 3.18146 16.0667 2.56527 13.8716 2.21164C10.0767 1.60073 7.06102 2.06364 4.90902 3.58818C2.34121 5.40746 1.15575 8.65945 1.38539 13.2536C1.46266 14.7993 2.34339 19.5542 3.73321 24.1078C5.56266 30.1013 7.55139 33.4942 9.64375 34.1922C9.88866 34.2738 10.171 34.3309 10.4825 34.3309C11.2458 34.3309 12.1816 33.9869 13.1552 32.8164C14.3428 31.3917 15.5712 30.0017 16.839 28.648C17.6616 29.0895 18.5652 29.336 19.4894 29.3607C19.4912 29.3849 19.4936 29.4091 19.4958 29.4331C19.3367 29.6228 19.1809 29.8153 19.0285 30.0104C18.3881 30.8233 18.2548 30.9925 16.1936 31.4169C15.6072 31.538 14.0499 31.8589 14.027 32.9505C14.0023 34.1433 15.8679 34.6442 16.0805 34.6973C16.8212 34.8827 17.5348 34.9742 18.2154 34.9742C19.8705 34.9742 21.327 34.4302 22.491 33.3776C22.4552 37.6296 22.6325 41.8195 23.143 43.096C23.5612 44.1411 24.5827 46.6951 27.8092 46.6949C28.2827 46.6949 28.8038 46.6398 29.377 46.5169C32.7445 45.7951 34.2068 44.3067 34.7725 41.0255C35.0752 39.2718 35.5947 35.0844 35.839 32.8382C36.3547 32.9991 37.0185 33.0727 37.7361 33.0725C39.2328 33.0725 40.9599 32.7545 42.043 32.2518C43.2598 31.6867 45.4554 30.3002 45.0572 29.0955ZM37.0379 13.9173C37.0268 14.5804 36.9356 15.1824 36.8388 15.8107C36.7347 16.4865 36.627 17.1853 36.5999 18.0335C36.5732 18.8589 36.6763 19.7171 36.7759 20.5471C36.9774 22.2235 37.1841 23.9493 36.3839 25.6522C36.251 25.4167 36.1326 25.1732 36.0294 24.9233C35.9299 24.6822 35.7139 24.2949 35.4148 23.7589C34.2514 21.6724 31.5268 16.7862 32.9216 14.7924C33.337 14.1989 34.3914 13.5887 37.0379 13.9173ZM33.8299 2.68327C37.7088 2.76891 40.7772 4.22 42.9496 6.996C44.6158 9.12527 42.781 18.8138 37.4696 27.1722C37.4162 27.1043 37.3625 27.0366 37.3085 26.9691L37.2412 26.8851C38.6138 24.6184 38.3454 22.3756 38.1065 20.3873C38.0083 19.5713 37.9156 18.8005 37.9392 18.0765C37.9636 17.3093 38.065 16.6511 38.1632 16.0147C38.2838 15.2305 38.4065 14.4191 38.3727 13.4625C38.3979 13.3622 38.4081 13.2436 38.3948 13.1029C38.3085 12.1856 37.2612 9.44036 35.1267 6.95564C33.959 5.59655 32.2563 4.07564 29.9314 3.04982C30.9314 2.84255 32.2988 2.64927 33.8299 2.68327ZM12.1248 31.9596C11.0521 33.2495 10.3114 33.0022 10.0678 32.9211C8.48048 32.3916 6.63866 29.0367 5.01484 23.7167C3.60975 19.1135 2.78866 14.4845 2.72357 13.1865C2.51848 9.08146 3.51357 6.22055 5.68139 4.68309C9.20939 2.18127 15.0098 3.67873 17.3405 4.43818C17.307 4.47127 17.2721 4.50218 17.239 4.53582C13.4143 8.39836 13.505 14.9976 13.5145 15.4011C13.5141 15.5567 13.5272 15.7771 13.545 16.0802C13.6108 17.1902 13.7334 19.256 13.4061 21.5955C13.1021 23.7695 13.7723 25.8973 15.2445 27.4335C15.3956 27.5908 15.5544 27.7406 15.7203 27.8822C15.065 28.584 13.6408 30.136 12.1248 31.9596ZM16.2119 26.5064C15.0254 25.2682 14.4865 23.546 14.7332 21.7809C15.0787 19.3096 14.9512 17.1573 14.8827 16.0009C14.873 15.8391 14.8645 15.6973 14.8596 15.5855C15.4183 15.09 18.0076 13.7027 19.8541 14.1258C20.6967 14.3187 21.2101 14.8925 21.4236 15.8795C22.5283 20.9891 21.5698 23.1187 20.7996 24.8302C20.6408 25.1827 20.4908 25.516 20.3628 25.8607L20.2636 26.1273C20.0123 26.8011 19.7785 27.4276 19.6336 28.0225C18.3721 28.0189 17.145 27.48 16.2119 26.5062V26.5064ZM16.4056 33.3973C16.0372 33.3053 15.7059 33.1455 15.5116 33.0129C15.6739 32.9365 15.9628 32.8325 16.4639 32.7293C18.8888 32.2302 19.2634 31.8778 20.0812 30.8395C20.2687 30.6013 20.4812 30.3315 20.7756 30.0027L20.7759 30.0024C21.2143 29.5115 21.4148 29.5947 21.7785 29.7456C22.0732 29.8675 22.3603 30.2369 22.4767 30.6435C22.5318 30.8355 22.5936 31.1998 22.3912 31.4835C20.6828 33.8755 18.1934 33.8447 16.4056 33.3973ZM29.0963 45.2067C26.1298 45.8424 25.0794 44.3287 24.3872 42.5984C23.9405 41.4813 23.7208 36.4438 23.8767 30.8807C23.8787 30.8067 23.8681 30.7353 23.8478 30.668C23.8295 30.5352 23.8018 30.4038 23.7648 30.2749C23.5332 29.4655 22.9687 28.7884 22.2914 28.5076C22.0223 28.3962 21.5285 28.1916 20.935 28.3435C21.0616 27.822 21.281 27.2331 21.519 26.5955L21.6188 26.3273C21.7312 26.0249 21.8723 25.7116 22.0214 25.38C22.8274 23.5895 23.9312 21.1369 22.7332 15.5964C22.2845 13.5211 20.7859 12.5076 18.5143 12.7431C17.1525 12.884 15.9065 13.4335 15.285 13.7485C15.1514 13.8162 15.0292 13.8816 14.915 13.9453C15.0885 11.8544 15.7438 7.94673 18.195 5.47436C19.7385 3.918 21.7939 3.14927 24.2983 3.19073C29.2328 3.27146 32.3972 5.80382 34.183 7.91418C35.7219 9.73255 36.5552 11.5644 36.8878 12.5524C34.3868 12.298 32.6859 12.7916 31.8238 14.0244C29.9479 16.7058 32.8499 21.9102 34.2447 24.4115C34.5005 24.8698 34.7212 25.266 34.7907 25.4344C35.2448 26.5351 35.8328 27.27 36.2621 27.8064C36.3938 27.9707 36.5214 28.1302 36.6185 28.2695C35.861 28.4878 34.5005 28.9924 34.6245 31.5144C34.5245 32.7798 33.8134 38.7045 33.4521 40.7978C32.9752 43.5633 31.9576 44.5933 29.0963 45.2069V45.2067ZM41.4788 31.0365C40.7043 31.396 39.4081 31.6656 38.1768 31.7236C36.8168 31.7873 36.1245 31.5713 35.9616 31.4384C35.8852 29.8667 36.4701 29.7025 37.0892 29.5287C37.1865 29.5015 37.2814 29.4747 37.373 29.4427C37.4299 29.4891 37.4923 29.5351 37.5607 29.5802C38.6538 30.3016 40.6034 30.3795 43.3559 29.8113L43.3861 29.8053C43.0148 30.1524 42.3796 30.6182 41.4788 31.0365Z" fill="white"/>
</g>
<defs>
<clipPath id="clip0_23_240">
<rect width="46.55" height="48" fill="white"/>
</clipPath>
</defs>
</svg>
