<svg width="16" height="16" viewBox="0 0 16 16" fill="none" xmlns="http://www.w3.org/2000/svg">
<g clip-path="url(#clip0_16_18)">
<path d="M15.995 9.56001C15.99 9.71351 15.7865 9.88301 15.3725 10.099C14.5185 10.5445 10.0965 12.3645 9.15351 12.854C8.21101 13.346 7.69001 13.341 6.94501 12.984C6.20001 12.63 1.49451 10.726 0.645512 10.3225C0.223512 10.1195 0.00751172 9.95001 -0.000488281 9.78851V11.4055C-0.000488281 11.567 0.223512 11.736 0.645512 11.9395C1.49451 12.346 6.20301 14.247 6.94501 14.601C7.69001 14.958 8.21051 14.963 9.15351 14.471C10.096 13.9815 14.518 12.161 15.3725 11.716C15.8075 11.492 16 11.315 16 11.156V9.56201C16 9.55951 15.9975 9.55951 15.995 9.55951V9.56001ZM15.995 6.92451C15.987 7.07551 15.7865 7.24501 15.3725 7.46351C14.5185 7.90601 10.0965 9.72651 9.15351 10.216C8.21101 10.708 7.69001 10.703 6.94501 10.349C6.20001 9.99201 1.49451 8.09101 0.645512 7.68501C0.223512 7.48451 0.00751172 7.31251 -0.000488281 7.15101V8.76801C-0.000488281 8.92951 0.223512 9.10151 0.645512 9.30201C1.49451 9.70851 6.20001 11.6095 6.94501 11.966C7.69001 12.32 8.21051 12.3255 9.15351 11.836C10.096 11.344 14.518 9.52601 15.3725 9.08101C15.8075 8.85451 16 8.67751 16 8.51851V6.92451H15.995ZM15.995 4.18751C16.003 4.02601 15.792 3.88301 15.362 3.72651C14.5315 3.42201 10.133 1.67201 9.29151 1.36201C8.45051 1.05451 8.10651 1.06751 7.11701 1.42201C6.12751 1.77901 1.44751 3.61451 0.614512 3.94001C0.198012 4.10401 -0.00548828 4.25501 0.00251172 4.41651V6.03351C0.00251172 6.19501 0.224012 6.36401 0.648512 6.56751C1.49501 6.97401 6.20301 8.87501 6.94801 9.23151C7.69001 9.58551 8.21351 9.59101 9.15651 9.09851C10.0965 8.60901 14.521 6.78851 15.3755 6.34601C15.808 6.11951 16.0005 5.94251 16.0005 5.78351V4.18701L15.995 4.18751ZM5.72901 5.71901L9.43751 5.15151L8.31751 6.79201L5.72901 5.71901ZM13.9295 4.23951L11.5 5.20051L9.30751 4.33351L11.7345 3.37501L13.9295 4.23951ZM7.49201 2.65101L7.13251 1.98951L8.25251 2.42701L9.30701 2.08301L9.02051 2.76551L10.096 3.16901L8.71051 3.31201L8.39801 4.05951L7.89801 3.22601L6.29651 3.08301L7.49201 2.65101ZM4.72901 3.58601C5.82551 3.58601 6.71101 3.93001 6.71101 4.35151C6.71101 4.77601 5.82301 5.11951 4.72901 5.11951C3.63501 5.11951 2.74701 4.77551 2.74701 4.35151C2.74701 3.92951 3.63501 3.58601 4.72901 3.58601Z" fill="#57687C"/>
</g>
<defs>
<clipPath id="clip0_16_18">
<rect width="16" height="16" fill="white"/>
</clipPath>
</defs>
</svg>
