<svg width="16" height="16" viewBox="0 0 16 16" fill="none" xmlns="http://www.w3.org/2000/svg">
<path d="M11.0267 4.66667C10.49 3.09 9.336 2 8 2C6.15067 2 4.65134 3.75467 4.65134 6.33067C4.65134 7.63467 5.706 9.482 6.326 10.3307" stroke="#57687C" stroke-width="1.33333" stroke-linecap="round" stroke-linejoin="round"/>
<path d="M3.14067 7.98602C2.03667 9.23736 1.66467 10.776 2.33334 11.9267C3.25801 13.52 5.75867 13.814 8.00067 12.5267C9.13601 11.874 9.91734 10.2854 10.3447 9.32802" stroke="#57687C" stroke-width="1.33333" stroke-linecap="round" stroke-linejoin="round"/>
<path d="M10.0093 13.3267C11.6833 13.3267 13.0247 13.0347 13.6673 11.9267C14.592 10.3333 13.524 7.998 11.2813 6.71066C10.1467 6.058 8.37667 5.88733 7.33 5.99733" stroke="#57687C" stroke-width="1.33333" stroke-linecap="round" stroke-linejoin="round"/>
<path d="M6.99534 6.57468C7.31534 6.75868 7.72534 6.64935 7.91001 6.33068C7.99814 6.17755 8.02188 5.99568 7.976 5.82505C7.93012 5.65442 7.81839 5.50898 7.66534 5.42068C7.51151 5.33206 7.32884 5.30798 7.1573 5.35371C6.98575 5.39944 6.83931 5.51125 6.75001 5.66468C6.66193 5.81791 6.63829 5.99983 6.68429 6.17047C6.7303 6.34111 6.84218 6.4865 6.99534 6.57468ZM5.66667 10.3334C5.66667 10.5102 5.73691 10.6797 5.86193 10.8048C5.98696 10.9298 6.15653 11 6.33334 11C6.51015 11 6.67972 10.9298 6.80474 10.8048C6.92977 10.6797 7.00001 10.5102 7.00001 10.3334C7.00001 10.1565 6.92977 9.98697 6.80474 9.86195C6.67972 9.73692 6.51015 9.66668 6.33334 9.66668C6.15653 9.66668 5.98696 9.73692 5.86193 9.86195C5.73691 9.98697 5.66667 10.1565 5.66667 10.3334ZM9.66667 9.33335C9.66667 9.51016 9.73691 9.67973 9.86193 9.80476C9.98696 9.92978 10.1565 10 10.3333 10C10.5101 10 10.6797 9.92978 10.8047 9.80476C10.9298 9.67973 11 9.51016 11 9.33335C11 9.15654 10.9298 8.98697 10.8047 8.86195C10.6797 8.73692 10.5101 8.66668 10.3333 8.66668C10.1565 8.66668 9.98696 8.73692 9.86193 8.86195C9.73691 8.98697 9.66667 9.15654 9.66667 9.33335Z" stroke="#57687C" stroke-width="1.33333" stroke-linecap="round" stroke-linejoin="round"/>
</svg>
