<svg width="16" height="16" viewBox="0 0 16 16" fill="none" xmlns="http://www.w3.org/2000/svg">
<g clip-path="url(#clip0_18_32)">
<path d="M12.8 10.4C11.76 10.4 10.88 11.04 10.56 12H7.2C7.2 11.44 7.04 10.96 6.8 10.56L12.48 4.71999C12.72 4.71999 12.96 4.79999 13.2 4.79999C14.32 4.79999 15.2 3.91999 15.2 2.79999C15.2 1.67999 14.32 0.799988 13.2 0.799988C12.08 0.799988 11.2 1.67999 11.2 2.79999C11.2 3.03999 11.28 3.35999 11.36 3.59999L5.76 9.35999C5.28 8.95999 4.64 8.79999 4 8.79999V5.43999C4.96 5.11999 5.6 4.23999 5.6 3.19999C5.6 1.83999 4.56 0.799988 3.2 0.799988C1.84 0.799988 0.800003 1.83999 0.800003 3.19999C0.800003 4.23999 1.44 5.11999 2.4 5.43999V9.19999C1.44 9.75999 0.800003 10.8 0.800003 11.92C0.800003 13.68 2.24 15.12 4 15.12C5.2 15.12 6.24 14.48 6.72 13.52H10.48C10.8 14.4 11.68 15.12 12.72 15.12C14 15.12 15.12 14.08 15.12 12.72C15.2 11.44 14.08 10.4 12.8 10.4Z" fill="#57687C"/>
</g>
<defs>
<clipPath id="clip0_18_32">
<rect width="16" height="16" fill="white"/>
</clipPath>
</defs>
</svg>
