<svg width="16" height="16" viewBox="0 0 16 16" fill="none" xmlns="http://www.w3.org/2000/svg">
<path d="M1.33333 4.66665V1.33331H4.66666V2.66665H2.66666V4.66665H1.33333ZM1.33333 14.6666V11.3333H2.66666V13.3333H4.66666V14.6666H1.33333ZM11.3333 14.6666V13.3333H13.3333V11.3333H14.6667V14.6666H11.3333ZM13.3333 4.66665V2.66665H11.3333V1.33331H14.6667V4.66665H13.3333ZM11.6667 11.6666H12.6667V12.6666H11.6667V11.6666ZM11.6667 9.66665H12.6667V10.6666H11.6667V9.66665ZM10.6667 10.6666H11.6667V11.6666H10.6667V10.6666ZM9.66666 11.6666H10.6667V12.6666H9.66666V11.6666ZM8.66666 10.6666H9.66666V11.6666H8.66666V10.6666ZM10.6667 8.66665H11.6667V9.66665H10.6667V8.66665ZM9.66666 9.66665H10.6667V10.6666H9.66666V9.66665ZM8.66666 8.66665H9.66666V9.66665H8.66666V8.66665ZM12.6667 3.33331V7.33331H8.66666V3.33331H12.6667ZM7.33333 8.66665V12.6666H3.33333V8.66665H7.33333ZM7.33333 3.33331V7.33331H3.33333V3.33331H7.33333ZM6.33333 11.6666V9.66665H4.33333V11.6666H6.33333ZM6.33333 6.33331V4.33331H4.33333V6.33331H6.33333ZM11.6667 6.33331V4.33331H9.66666V6.33331H11.6667Z" fill="#57687C"/>
</svg>
